<?xml version="1.0" standalone="no"?>
<!DOCTYPE svg PUBLIC "-//W3C//DTD SVG 1.1//EN" "http://www.w3.org/Graphics/SVG/1.1/DTD/svg11.dtd" >
<svg>
<metadata>
Created by FontForge 20090622 at Mon Nov 12 08:37:13 2018
 By deploy user
Generated in 2010 by FontLab Studio. Copyright info pending.
</metadata>
<defs>
<font id="Brown-Regular" horiz-adv-x="590" >
  <font-face 
    font-family="Brown"
    font-weight="400"
    font-stretch="normal"
    units-per-em="1000"
    panose-1="0 0 0 0 0 0 0 0 0 0"
    ascent="800"
    descent="-200"
    x-height="470"
    cap-height="700"
    bbox="-95 -250 1370 1110"
    underline-thickness="80"
    underline-position="-20"
    unicode-range="U+000D-U+FB04"
  />
<missing-glyph horiz-adv-x="539" 
d="M75 0v700h389v-700h-389zM170 610v-520h199v520h-199z" />
    <glyph glyph-name="uniFB00" unicode="ff" horiz-adv-x="755" 
d="M725 713l-20 -87q-14 4 -35 4q-47 0 -72 -33q-18 -24 -18 -84v-43h145v-85h-145v-385h-95v385h-255v-385h-95v385h-110v85h110v40q0 89 30 132q54 78 154 78q33 0 56 -7l-20 -87q-14 4 -35 4q-47 0 -72 -33q-18 -24 -18 -84v-43h255v40q0 89 30 132q54 78 154 78
q33 0 56 -7z" />
    <glyph glyph-name="fi" unicode="fi" horiz-adv-x="665" 
d="M470 647q0 26 18 44.5t44 18.5t44.5 -18.5t18.5 -44.5t-18.5 -44t-44.5 -18t-44 18t-18 44zM135 470v40q0 89 30 132q54 78 154 78q33 0 56 -7l-20 -87q-14 4 -35 4q-47 0 -72 -33q-18 -24 -18 -84v-43h350v-470h-95v385h-255v-385h-95v385h-110v85h110z" />
    <glyph glyph-name="fl" unicode="fl" horiz-adv-x="665" 
d="M135 470v40q0 89 30 132q54 78 154 78q33 0 56 -7l-20 -87q-14 4 -35 4q-47 0 -72 -33q-18 -24 -18 -84v-43h255v240h95v-710h-95v385h-255v-385h-95v385h-110v85h110z" />
    <glyph glyph-name="uniFB03" unicode="ffi" horiz-adv-x="1015" 
d="M725 713l-20 -87q-14 4 -35 4q-47 0 -72 -33q-18 -24 -18 -84v-43h350v-470h-95v385h-255v-385h-95v385h-255v-385h-95v385h-110v85h110v40q0 89 30 132q54 78 154 78q33 0 56 -7l-20 -87q-14 4 -35 4q-47 0 -72 -33q-18 -24 -18 -84v-43h255v40q0 89 30 132
q54 78 154 78q33 0 56 -7zM820 647q0 26 18 44.5t44 18.5t44.5 -18.5t18.5 -44.5t-18.5 -44t-44.5 -18t-44 18t-18 44z" />
    <glyph glyph-name="uniFB04" unicode="ffl" horiz-adv-x="1015" 
d="M725 713l-20 -87q-14 4 -35 4q-47 0 -72 -33q-18 -24 -18 -84v-43h255v240h95v-710h-95v385h-255v-385h-95v385h-255v-385h-95v385h-110v85h110v40q0 89 30 132q54 78 154 78q33 0 56 -7l-20 -87q-14 4 -35 4q-47 0 -72 -33q-18 -24 -18 -84v-43h255v40q0 89 30 132
q54 78 154 78q33 0 56 -7z" />
    <glyph glyph-name=".notdef" horiz-adv-x="539" 
d="M75 0v700h389v-700h-389zM170 610v-520h199v520h-199z" />
    <glyph glyph-name=".null" horiz-adv-x="0" 
 />
    <glyph glyph-name=".null" horiz-adv-x="0" 
 />
    <glyph glyph-name="nonmarkingreturn" horiz-adv-x="333" 
 />
    <glyph glyph-name="CR" unicode="&#xd;" horiz-adv-x="270" 
 />
    <glyph glyph-name="space" unicode=" " horiz-adv-x="270" 
 />
    <glyph glyph-name="exclam" unicode="!" horiz-adv-x="340" 
d="M138 220l-15 250v230h95v-230l-15 -250h-65zM100 60q0 29 20.5 49.5t49.5 20.5t49.5 -20.5t20.5 -49.5t-20.5 -49.5t-49.5 -20.5t-49.5 20.5t-20.5 49.5z" />
    <glyph glyph-name="quotedbl" unicode="&#x22;" horiz-adv-x="460" 
d="M95 450l-15 250h95l-15 -250h-65zM300 450l-15 250h95l-15 -250h-65z" />
    <glyph glyph-name="numbersign" unicode="#" horiz-adv-x="580" 
d="M537 195h-127l-53 -195h-93l53 195h-137l-53 -195h-93l53 195h-102v90h126l34 130h-103v90h127l53 195h93l-53 -195h137l53 195h93l-53 -195h103v-90h-127l-34 -130h103v-90zM238 415l-34 -130h137l34 130h-137z" />
    <glyph glyph-name="dollar" unicode="$" horiz-adv-x="532" 
d="M270 85q50 0 86 29.5t36 75.5q0 48 -36.5 77t-106 56.5t-98.5 46.5q-89 59 -89 154q0 66 46 117t119 64v110h95v-109q77 -13 140 -66l-59 -73q-57 48 -125 48q-47 0 -81.5 -25.5t-34.5 -68.5q0 -40 37 -66.5t104.5 -54t97.5 -47.5q91 -60 91 -160q0 -78 -47.5 -131.5
t-122.5 -67.5v-109h-95v109q-119 17 -197 113l69 68q74 -90 171 -90z" />
    <glyph glyph-name="percent" unicode="%" horiz-adv-x="945" 
d="M316 0h-96l409 700h96zM420 525q0 -77 -51.5 -131t-128.5 -54t-128.5 54t-51.5 131t51.5 131t128.5 54t128.5 -54t51.5 -131zM150 525q0 -42 25 -71t65 -29t65 29t25 71t-25 71t-65 29t-65 -29t-25 -71zM885 175q0 -77 -51.5 -131t-128.5 -54t-128.5 54t-51.5 131
t51.5 131t128.5 54t128.5 -54t51.5 -131zM615 175q0 -42 25 -71t65 -29t65 29t25 71t-25 71t-65 29t-65 -29t-25 -71z" />
    <glyph glyph-name="ampersand" unicode="&#x26;" horiz-adv-x="655" 
d="M541 143l144 -143h-128l-71 70q-85 -80 -210 -80q-106 0 -176 59t-70 155q0 67 32.5 113.5t89.5 89.5q-77 80 -77 146q0 65 45.5 111t115.5 46q63 0 110.5 -44t47.5 -113q0 -51 -26 -89.5t-73 -74.5l175 -175q15 39 15 84q0 65 -18 119l90 25q23 -65 23 -144
q0 -83 -39 -155zM125 204q0 -55 42.5 -89.5t108.5 -34.5q86 0 144 56l-204 205q-91 -62 -91 -137zM299 553q0 28 -18.5 47.5t-44.5 19.5q-30 0 -48 -20t-18 -47q0 -39 58 -99q71 54 71 99z" />
    <glyph glyph-name="quotesingle" unicode="'" horiz-adv-x="255" 
d="M95 450l-15 250h95l-15 -250h-65z" />
    <glyph glyph-name="parenleft" unicode="(" horiz-adv-x="445" 
d="M245 250q0 -224 130 -407l-77 -53q-148 207 -148 460t148 460l77 -53q-130 -183 -130 -407z" />
    <glyph glyph-name="parenright" unicode=")" horiz-adv-x="445" 
d="M200 250q0 224 -130 407l77 53q148 -207 148 -460t-148 -460l-77 53q130 183 130 407z" />
    <glyph glyph-name="asterisk" unicode="*" horiz-adv-x="500" 
d="M40 518l24 75l146 -47v154h80v-153l146 48l25 -76l-147 -48l91 -124l-64 -47l-91 125l-90 -125l-64 46l90 125z" />
    <glyph glyph-name="plus" unicode="+" horiz-adv-x="540" 
d="M50 305h175v175h90v-175h175v-90h-175v-175h-90v175h-175v90z" />
    <glyph glyph-name="comma" unicode="," horiz-adv-x="340" 
d="M120 120h110l-120 -260h-65z" />
    <glyph glyph-name="hyphen" unicode="-" horiz-adv-x="460" 
d="M80 295h300v-80h-300v80z" />
    <glyph glyph-name="period" unicode="." horiz-adv-x="340" 
d="M110 60q0 29 20.5 49.5t49.5 20.5t49.5 -20.5t20.5 -49.5t-20.5 -49.5t-49.5 -20.5t-49.5 20.5t-20.5 49.5z" />
    <glyph glyph-name="slash" unicode="/" horiz-adv-x="435" 
d="M104 0h-99l326 700h99z" />
    <glyph glyph-name="zero" unicode="0" 
d="M435 350q0 265 -140 265t-140 -265t140 -265t140 265zM55 350q0 77 13 140.5t41 113.5t75 78t111 28t111 -28t75 -78t41 -113.5t13 -140.5t-13 -140.5t-41 -113.5t-75 -78t-111 -28t-111 28t-75 78t-41 113.5t-13 140.5z" />
    <glyph glyph-name="one" unicode="1" horiz-adv-x="405" 
d="M185 575l-135 -68v99l165 94h70v-700h-100v575z" />
    <glyph glyph-name="two" unicode="2" horiz-adv-x="520" 
d="M125 522l-89 29q17 61 56.5 99t76 49t73.5 11q90 0 151.5 -62t61.5 -149q0 -102 -91 -205l-176 -199h267v-95h-420v65l239 273q45 51 63 85t18 76q0 47 -31.5 81.5t-79.5 34.5q-88 0 -119 -93z" />
    <glyph glyph-name="three" unicode="3" horiz-adv-x="540" 
d="M25 110l83 48q17 -33 53 -53t79 -20q60 0 102.5 41.5t42.5 103.5q0 63 -42.5 104t-108.5 41q-41 0 -81 -11v65l149 176h-242v95h390v-65l-154 -177q80 -12 134.5 -76.5t54.5 -151.5q0 -102 -70 -171t-169 -69q-73 0 -132 31t-89 89z" />
    <glyph glyph-name="four" unicode="4" horiz-adv-x="565" 
d="M15 170v65l360 465h70v-435h110v-95h-110v-170h-100v170h-330zM157 265h188v236z" />
    <glyph glyph-name="five" unicode="5" horiz-adv-x="550" 
d="M446 605h-246l-20 -147q36 12 66 12q102 0 170.5 -70.5t68.5 -169.5t-69 -169.5t-171 -70.5q-64 0 -118 27t-87 73l76 59q49 -64 130 -64q62 0 100.5 42t38.5 103t-39.5 103t-102.5 42t-106 -40l-69 10l50 355h328v-95z" />
    <glyph glyph-name="six" unicode="6" horiz-adv-x="585" 
d="M189 338q-35 -54 -35 -108q0 -62 41 -103.5t102 -41.5q62 0 102.5 41.5t40.5 101.5t-40.5 103.5t-100.5 43.5q-71 0 -110 -37zM423 700l-153 -235q13 2 38 2q97 0 164.5 -68t67.5 -169t-69.5 -170.5t-173.5 -69.5q-105 0 -173.5 69t-68.5 168q0 55 23 107q19 44 66 114
l166 252h113z" />
    <glyph glyph-name="seven" unicode="7" horiz-adv-x="520" 
d="M172 0h-107l300 605h-320v95h440v-65z" />
    <glyph glyph-name="eight" unicode="8" horiz-adv-x="580" 
d="M290 -10q-101 0 -170.5 64.5t-69.5 157.5q0 59 31 108t80 75q-29 20 -47.5 56t-18.5 74q0 77 56 131t139 54t139 -54t56 -131q0 -38 -18.5 -74t-47.5 -56q49 -26 80 -75t31 -108q0 -93 -69.5 -157.5t-170.5 -64.5zM290 340q-60 0 -100 -37t-40 -91t40 -90.5t100 -36.5
t100 36.5t40 90.5t-40 91t-100 37zM290 615q-41 0 -68 -26t-27 -64t27 -64t68 -26t68 26t27 64t-27 64t-68 26z" />
    <glyph glyph-name="nine" unicode="9" horiz-adv-x="585" 
d="M396 362q35 54 35 108q0 62 -41 103.5t-102 41.5q-62 0 -102.5 -41.5t-40.5 -101.5t40.5 -103.5t100.5 -43.5q71 0 110 37zM162 0l153 235q-13 -2 -38 -2q-97 0 -164.5 68t-67.5 169t69.5 170.5t173.5 69.5t173 -69t69 -168q0 -55 -23 -107q-19 -44 -66 -114l-166 -252
h-113z" />
    <glyph glyph-name="colon" unicode=":" horiz-adv-x="340" 
d="M110 410q0 29 20.5 49.5t49.5 20.5t49.5 -20.5t20.5 -49.5t-20.5 -49.5t-49.5 -20.5t-49.5 20.5t-20.5 49.5zM110 60q0 29 20.5 49.5t49.5 20.5t49.5 -20.5t20.5 -49.5t-20.5 -49.5t-49.5 -20.5t-49.5 20.5t-20.5 49.5z" />
    <glyph glyph-name="semicolon" unicode=";" horiz-adv-x="340" 
d="M110 410q0 29 20.5 49.5t49.5 20.5t49.5 -20.5t20.5 -49.5t-20.5 -49.5t-49.5 -20.5t-49.5 20.5t-20.5 49.5zM120 120h110l-120 -260h-65z" />
    <glyph glyph-name="less" unicode="&#x3c;" horiz-adv-x="545" 
d="M209 260l281 -120v-98l-440 188v60l440 188v-98z" />
    <glyph glyph-name="equal" unicode="=" horiz-adv-x="540" 
d="M50 395h440v-90h-440v90zM50 215h440v-90h-440v90z" />
    <glyph glyph-name="greater" unicode="&#x3e;" horiz-adv-x="545" 
d="M55 140l281 120l-281 120v98l440 -188v-60l-440 -188v98z" />
    <glyph glyph-name="question" unicode="?" horiz-adv-x="500" 
d="M155 544l-90 26q15 61 71 100.5t128 39.5q84 0 140 -53t56 -129q0 -43 -18 -79.5t-43.5 -61t-51 -43.5t-43.5 -36t-18 -31q0 -19 26 -42l-63 -66q-58 44 -58 107q0 34 18 62.5t43.5 49l51 40t43.5 45t18 55.5q0 39 -28.5 65.5t-72.5 26.5q-39 0 -70 -22t-39 -54zM190 60
q0 29 20.5 49.5t49.5 20.5t49.5 -20.5t20.5 -49.5t-20.5 -49.5t-49.5 -20.5t-49.5 20.5t-20.5 49.5z" />
    <glyph glyph-name="at" unicode="@" horiz-adv-x="1000" 
d="M591 170v165q-41 45 -103 45q-49 0 -85 -34t-36 -96q0 -63 36.5 -96.5t86.5 -33.5q51 0 101 50zM713 -36l47 -70q-109 -84 -253 -84q-181 0 -309 129t-128 311t128 311t309 129q117 0 213 -49.5t153 -142t57 -208.5q0 -109 -49.5 -182t-142.5 -73q-83 0 -124 59
q-47 -59 -138 -59q-79 0 -139 58t-60 157t60.5 157t141.5 58q70 0 117 -44v34h85v-243q0 -44 10 -62q18 -30 54 -30q46 0 71.5 46.5t25.5 125.5q0 136 -95.5 224.5t-239.5 88.5t-245.5 -104t-101.5 -251t101.5 -251t245.5 -104q113 0 206 69z" />
    <glyph glyph-name="A" unicode="A" horiz-adv-x="660" 
d="M551 0l-74 180h-295l-73 -180h-104l290 700h70l290 -700h-104zM330 535l-108 -260h216z" />
    <glyph glyph-name="B" unicode="B" horiz-adv-x="625" 
d="M190 95h152q79 0 115 36q33 35 33 82q0 46 -33 81q-36 36 -115 36h-152v-235zM190 425h120q70 0 96 29q24 26 24 61t-24 61q-26 29 -96 29h-120v-180zM360 0h-270v700h238q90 0 144 -49q58 -53 58 -133q0 -73 -55 -125q51 -25 83 -75.5t32 -108.5q0 -100 -77 -162
q-56 -47 -153 -47z" />
    <glyph glyph-name="C" unicode="C" horiz-adv-x="690" 
d="M35 350q0 152 101.5 256t252.5 104q75 0 142.5 -28.5t113.5 -79.5l-67 -66q-32 35 -83 57t-106 22q-108 0 -181 -76t-73 -189q0 -117 75 -191t188 -74q119 0 201 99l71 -64q-46 -59 -119 -94.5t-153 -35.5q-157 0 -260 102.5t-103 257.5z" />
    <glyph glyph-name="D" unicode="D" horiz-adv-x="715" 
d="M580 350q0 121 -85 196q-68 59 -200 59h-105v-510h105q132 0 200 59q85 75 85 196zM300 0h-210v700h210q150 0 240 -66q65 -49 102.5 -123.5t37.5 -160.5t-37 -161t-102 -123q-90 -66 -241 -66z" />
    <glyph glyph-name="E" unicode="E" horiz-adv-x="540" 
d="M190 425h230v-95h-230v-235h310v-95h-410v700h400v-95h-300v-180z" />
    <glyph glyph-name="F" unicode="F" horiz-adv-x="510" 
d="M190 425h230v-95h-230v-330h-100v700h400v-95h-300v-180z" />
    <glyph glyph-name="G" unicode="G" horiz-adv-x="735" 
d="M670 425v-305q-46 -58 -119.5 -94t-152.5 -36q-157 0 -260 102.5t-103 257.5q0 152 101.5 256t252.5 104q75 0 142.5 -28.5t113.5 -79.5l-67 -66q-32 35 -83 57t-106 22q-108 0 -181 -76t-73 -189q0 -117 75 -191t188 -74q107 0 172 65v180h-200v95h300z" />
    <glyph glyph-name="H" unicode="H" horiz-adv-x="770" 
d="M580 0v330h-390v-330h-100v700h100v-275h390v275h100v-700h-100z" />
    <glyph glyph-name="I" unicode="I" horiz-adv-x="280" 
d="M90 0v700h100v-700h-100z" />
    <glyph glyph-name="J" unicode="J" horiz-adv-x="460" 
d="M0 103l89 38q12 -26 37 -41t56 -15q50 0 79 39q19 25 19 79v497h100v-490q0 -76 -24 -119q-26 -46 -72.5 -73.5t-101.5 -27.5q-61 0 -110.5 30t-71.5 83z" />
    <glyph glyph-name="K" unicode="K" horiz-adv-x="650" 
d="M90 0v700h100v-295l288 295h132l-316 -325l336 -375h-128l-312 350v-350h-100z" />
    <glyph glyph-name="L" unicode="L" horiz-adv-x="520" 
d="M190 700v-605h310v-95h-410v700h100z" />
    <glyph glyph-name="M" unicode="M" horiz-adv-x="860" 
d="M670 471l-205 -321h-70l-205 321v-471h-100v700h70l270 -427l270 427h70v-700h-100v471z" />
    <glyph glyph-name="N" unicode="N" horiz-adv-x="770" 
d="M610 0l-420 514v-514h-100v700h70l420 -514v514h100v-700h-70z" />
    <glyph glyph-name="O" unicode="O" horiz-adv-x="770" 
d="M35 350q0 153 100.5 256.5t249.5 103.5t249.5 -103.5t100.5 -256.5t-100.5 -256.5t-249.5 -103.5t-249.5 103.5t-100.5 256.5zM135 350q0 -114 71.5 -189.5t178.5 -75.5t178.5 75.5t71.5 189.5q0 113 -71.5 189t-178.5 76t-178.5 -76t-71.5 -189z" />
    <glyph glyph-name="P" unicode="P" horiz-adv-x="600" 
d="M190 405h160q63 0 92 31q28 30 28 69t-28 69q-29 31 -92 31h-160v-200zM355 310h-165v-310h-100v700h265q92 0 146 -46q69 -59 69 -149t-69 -149q-54 -46 -146 -46z" />
    <glyph glyph-name="Q" unicode="Q" horiz-adv-x="775" 
d="M35 350q0 153 100.5 256.5t249.5 103.5t249.5 -103.5t100.5 -256.5q0 -136 -83 -237l103 -113h-124l-47 51q-88 -61 -199 -61q-149 0 -249.5 103.5t-100.5 256.5zM135 350q0 -114 71.5 -189.5t178.5 -75.5q74 0 134 38l-168 187l70 60l164 -183q50 71 50 163
q0 113 -71.5 189t-178.5 76t-178.5 -76t-71.5 -189z" />
    <glyph glyph-name="R" unicode="R" horiz-adv-x="640" 
d="M270 330h-80v-330h-100v700h245q86 0 136 -41q69 -56 69 -144t-69 -144q-35 -29 -82 -37l251 -334h-121zM190 425h140q58 0 84 26t26 64t-26 64t-84 26h-140v-180z" />
    <glyph glyph-name="S" unicode="S" horiz-adv-x="532" 
d="M30 107l69 68q74 -90 171 -90q50 0 86 29.5t36 75.5q0 48 -36.5 77t-106 56.5t-98.5 46.5q-89 59 -89 154q0 77 60.5 131.5t151.5 54.5q104 0 188 -70l-59 -73q-57 48 -125 48q-47 0 -81.5 -25.5t-34.5 -68.5q0 -40 37 -66.5t104.5 -54t97.5 -47.5q91 -60 91 -160
q0 -91 -62 -147t-155 -56q-148 0 -245 117z" />
    <glyph glyph-name="T" unicode="T" horiz-adv-x="510" 
d="M15 605v95h480v-95h-190v-605h-100v605h-190z" />
    <glyph glyph-name="U" unicode="U" horiz-adv-x="740" 
d="M370 -10q-131 0 -217 92q-73 79 -73 208v410h100v-415q0 -89 44 -138q56 -62 146 -62t146 62q44 49 44 138v415h100v-410q0 -129 -73 -208q-86 -92 -217 -92z" />
    <glyph glyph-name="V" unicode="V" horiz-adv-x="640" 
d="M630 700l-275 -700h-70l-275 700h104l206 -528l206 528h104z" />
    <glyph glyph-name="W" unicode="W" horiz-adv-x="950" 
d="M475 518l-175 -518h-70l-220 700h102l157 -507l171 507h70l171 -507l157 507h102l-220 -700h-70z" />
    <glyph glyph-name="X" unicode="X" horiz-adv-x="659" 
d="M133 0h-118l249 383l-209 317h123l151 -233l152 233h123l-210 -317l250 -383h-118l-197 299z" />
    <glyph glyph-name="Y" unicode="Y" horiz-adv-x="600" 
d="M590 700l-240 -380v-320h-100v320l-240 380h112l178 -281l178 281h112z" />
    <glyph glyph-name="Z" unicode="Z" 
d="M70 605v95h470v-65l-364 -540h384v-95h-520v65l366 540h-336z" />
    <glyph glyph-name="bracketleft" unicode="[" horiz-adv-x="445" 
d="M150 -200v900h245v-90h-150v-720h150v-90h-245z" />
    <glyph glyph-name="backslash" unicode="\" horiz-adv-x="435" 
d="M430 0h-99l-326 700h99z" />
    <glyph glyph-name="bracketright" unicode="]" horiz-adv-x="445" 
d="M295 700v-900h-245v90h150v720h-150v90h245z" />
    <glyph glyph-name="asciicircum" unicode="^" horiz-adv-x="540" 
d="M160 350h-100l177 350h66l177 -350h-100l-110 217z" />
    <glyph glyph-name="underscore" unicode="_" horiz-adv-x="490" 
d="M20 0h450v-80h-450v80z" />
    <glyph glyph-name="grave" unicode="`" horiz-adv-x="310" 
d="M240 550h-65l-105 150h105z" />
    <glyph glyph-name="a" unicode="a" horiz-adv-x="605" 
d="M428 0v43q-59 -53 -145 -53q-66 0 -118 31q-55 32 -87.5 88.5t-32.5 125.5t33 126t88 89q51 30 115 30q85 0 147 -53v43h92v-470h-92zM425 147v176q-51 67 -134 67q-66 0 -108.5 -45.5t-42.5 -109.5t44.5 -109.5t111.5 -45.5q79 0 129 67z" />
    <glyph glyph-name="b" unicode="b" horiz-adv-x="605" 
d="M177 43v-43h-92v710h95v-281q61 51 144 51q64 0 115 -30q55 -32 88 -89t33 -126t-32.5 -125.5t-87.5 -88.5q-52 -31 -118 -31q-86 0 -145 53zM180 323v-176q50 -67 129 -67q67 0 111.5 45.5t44.5 109.5t-42.5 109.5t-108.5 45.5q-83 0 -134 -67z" />
    <glyph glyph-name="c" unicode="c" horiz-adv-x="530" 
d="M432 153l73 -53q-29 -49 -87 -79.5t-122 -30.5q-108 0 -179.5 70t-71.5 175t70 175t175 70q60 0 113 -27.5t87 -74.5l-70 -59q-51 71 -130 71q-64 0 -107 -44t-43 -111q0 -69 44 -112t112 -43q81 0 136 73z" />
    <glyph glyph-name="d" unicode="d" horiz-adv-x="605" 
d="M428 0v43q-59 -53 -145 -53q-66 0 -118 31q-55 32 -87.5 88.5t-32.5 125.5t33 126t88 89q51 30 115 30q83 0 144 -51v281h95v-710h-92zM425 147v176q-51 67 -134 67q-66 0 -108.5 -45.5t-42.5 -109.5t44.5 -109.5t111.5 -45.5q79 0 129 67z" />
    <glyph glyph-name="e" unicode="e" horiz-adv-x="545" 
d="M499 215h-362q4 -60 47.5 -101t104.5 -41q77 0 135 64l62 -59q-29 -38 -80 -63t-118 -25q-103 0 -173 70t-70 175q0 106 64.5 175.5t164.5 69.5q98 0 162 -70t64 -175q0 -11 -1 -20zM277 397q-46 0 -83 -28.5t-49 -73.5h256q-10 44 -45.5 73t-78.5 29z" />
    <glyph glyph-name="f" unicode="f" horiz-adv-x="405" 
d="M375 713l-20 -87q-14 4 -35 4q-47 0 -72 -33q-18 -24 -18 -84v-43h145v-85h-145v-385h-95v385h-110v85h110v40q0 89 30 132q54 78 154 78q33 0 56 -7z" />
    <glyph glyph-name="g" unicode="g" horiz-adv-x="605" 
d="M425 41q-59 -51 -142 -51q-66 0 -118 31q-55 32 -87.5 88.5t-32.5 125.5t33 126t88 89q51 30 115 30q85 0 147 -53v43h92v-450q0 -99 -28 -154q-29 -55 -81.5 -85.5t-121.5 -30.5q-83 0 -142.5 33t-86.5 76l70 65q63 -84 155 -84q79 0 114 54q26 40 26 121v26zM425 147
v176q-51 67 -134 67q-66 0 -108.5 -45.5t-42.5 -109.5t44.5 -109.5t111.5 -45.5q79 0 129 67z" />
    <glyph glyph-name="h" unicode="h" horiz-adv-x="610" 
d="M180 710v-281q60 51 138 51q106 0 171 -83q46 -58 46 -167v-230h-95v235q0 74 -28 109q-36 46 -97 46q-80 0 -135 -67v-323h-95v710h95z" />
    <glyph glyph-name="i" unicode="i" horiz-adv-x="265" 
d="M85 0v470h95v-470h-95zM70 637q0 26 18 44.5t44 18.5t44.5 -18.5t18.5 -44.5t-18.5 -44t-44.5 -18t-44 18t-18 44z" />
    <glyph glyph-name="j" unicode="j" horiz-adv-x="285" 
d="M90 637q0 26 18 44.5t44 18.5t44.5 -18.5t18.5 -44.5t-18.5 -44t-44.5 -18t-44 18t-18 44zM105 -43v513h95v-510q0 -89 -30 -132q-54 -78 -154 -78q-33 0 -56 7l20 87q14 -4 35 -4q47 0 72 33q18 24 18 84z" />
    <glyph glyph-name="k" unicode="k" horiz-adv-x="550" 
d="M275 258l265 -258h-127l-233 230v-230h-95v710h95v-420l196 180h134z" />
    <glyph glyph-name="l" unicode="l" horiz-adv-x="265" 
d="M85 0v710h95v-710h-95z" />
    <glyph glyph-name="m" unicode="m" horiz-adv-x="945" 
d="M85 470h92v-45q18 19 56.5 37t81.5 18q101 0 166 -78q78 78 179 78q104 0 167 -79q43 -53 43 -161v-240h-95v255q0 62 -27 94q-34 41 -88 41q-78 0 -143 -67q8 -37 8 -83v-240h-95v255q0 62 -27 94q-34 41 -91 41q-75 0 -132 -67v-323h-95v470z" />
    <glyph glyph-name="n" unicode="n" horiz-adv-x="610" 
d="M177 470v-45q57 55 141 55q106 0 171 -83q46 -58 46 -167v-230h-95v235q0 74 -28 109q-36 46 -97 46q-80 0 -135 -67v-323h-95v470h92z" />
    <glyph glyph-name="o" unicode="o" horiz-adv-x="576" 
d="M45 235q0 105 69.5 175t173.5 70t173.5 -70t69.5 -175t-69.5 -175t-173.5 -70t-173.5 70t-69.5 175zM140 235q0 -65 42 -110t106 -45t106 45t42 110t-42 110t-106 45t-106 -45t-42 -110z" />
    <glyph glyph-name="p" unicode="p" horiz-adv-x="605" 
d="M180 41v-281h-95v710h92v-43q62 53 147 53q64 0 115 -30q55 -32 88 -89t33 -126t-32.5 -125.5t-87.5 -88.5q-52 -31 -118 -31q-83 0 -142 51zM180 323v-176q50 -67 129 -67q67 0 111.5 45.5t44.5 109.5t-42.5 109.5t-108.5 45.5q-83 0 -134 -67z" />
    <glyph glyph-name="q" unicode="q" horiz-adv-x="605" 
d="M425 41q-59 -51 -142 -51q-66 0 -118 31q-55 32 -87.5 88.5t-32.5 125.5t33 126t88 89q51 30 115 30q85 0 147 -53v43h92v-710h-95v281zM425 147v176q-51 67 -134 67q-66 0 -108.5 -45.5t-42.5 -109.5t44.5 -109.5t111.5 -45.5q79 0 129 67z" />
    <glyph glyph-name="r" unicode="r" horiz-adv-x="385" 
d="M355 477l-11 -91q-15 4 -37 4q-36 0 -71.5 -22.5t-55.5 -56.5v-311h-95v470h92v-54q19 27 56 45.5t85 18.5q20 0 37 -3z" />
    <glyph glyph-name="s" unicode="s" horiz-adv-x="455" 
d="M40 55l49 70q67 -52 139 -52q33 0 57.5 16.5t24.5 42.5q0 15 -8 26.5t-24.5 19t-32 12t-41 11t-41.5 11.5q-108 36 -108 121q0 71 52 109t122 38q92 0 156 -52l-49 -68q-49 37 -101 37q-36 0 -60.5 -16t-24.5 -43q0 -22 20.5 -33t63.5 -22q34 -9 59 -18.5t53 -26.5
t43.5 -43.5t15.5 -60.5q0 -64 -51.5 -104t-123.5 -40q-110 0 -190 65z" />
    <glyph glyph-name="t" unicode="t" horiz-adv-x="420" 
d="M356 86l19 -86q-30 -10 -74 -10q-84 0 -133 55q-38 42 -38 125v215h-120v85h120v130h95v-130h150v-85h-150v-220q0 -44 14 -60q20 -25 65 -25q31 0 52 6z" />
    <glyph glyph-name="u" unicode="u" horiz-adv-x="600" 
d="M285 -10q-104 0 -167 79q-43 53 -43 161v240h95v-255q0 -62 27 -94q34 -41 91 -41q75 0 132 67v323h95v-470h-92v43q-20 -20 -57 -36.5t-81 -16.5z" />
    <glyph glyph-name="v" unicode="v" horiz-adv-x="494" 
d="M214 0l-204 470h98l139 -320l139 320h98l-204 -470h-66z" />
    <glyph glyph-name="w" unicode="w" horiz-adv-x="798" 
d="M366 470h66l129 -321l129 321h98l-191 -470h-66l-132 330l-132 -330h-66l-191 470h98l129 -321z" />
    <glyph glyph-name="x" unicode="x" horiz-adv-x="510" 
d="M382 0l-127 176l-127 -176h-113l178 247l-161 223h112l111 -152l111 152h112l-161 -223l178 -247h-113z" />
    <glyph glyph-name="y" unicode="y" horiz-adv-x="509" 
d="M185 -240h-101l127 289l-201 421h102l147 -310l135 310h100z" />
    <glyph glyph-name="z" unicode="z" horiz-adv-x="470" 
d="M40 60l258 325h-243v85h375v-60l-259 -325h279v-85h-410v60z" />
    <glyph glyph-name="braceleft" unicode="{" horiz-adv-x="445" 
d="M192 250q53 -27 53 -103q0 -32 -5 -89.5t-5 -84.5q0 -43 17 -63q18 -20 59 -20h34v-90h-30q-84 0 -123 32q-52 41 -52 135q0 35 5 96.5t5 86.5q0 38 -18.5 54t-61.5 16v60q43 0 61.5 16t18.5 54q0 25 -5 86.5t-5 96.5q0 94 52 135q39 32 123 32h30v-90h-34q-41 0 -59 -20
q-17 -20 -17 -63q0 -27 5 -84.5t5 -89.5q0 -76 -53 -103z" />
    <glyph glyph-name="bar" unicode="|" horiz-adv-x="215" 
d="M60 -200v900h95v-900h-95z" />
    <glyph glyph-name="braceright" unicode="}" horiz-adv-x="445" 
d="M253 250q-53 27 -53 103q0 32 5 89.5t5 84.5q0 43 -17 63q-18 20 -59 20h-34v90h30q84 0 123 -32q52 -41 52 -135q0 -35 -5 -96.5t-5 -86.5q0 -38 18.5 -54t61.5 -16v-60q-43 0 -61.5 -16t-18.5 -54q0 -25 5 -86.5t5 -96.5q0 -94 -52 -135q-39 -32 -123 -32h-30v90h34
q41 0 59 20q17 20 17 63q0 27 -5 84.5t-5 89.5q0 76 53 103z" />
    <glyph glyph-name="asciitilde" unicode="~" horiz-adv-x="560" 
d="M458 338l77 -39q-51 -128 -152 -128q-40 0 -78.5 22t-69.5 44t-54 22q-45 0 -79 -77l-77 39q51 128 152 128q40 0 78.5 -22t69.5 -44t54 -22q45 0 79 77z" />
    <glyph glyph-name="exclamdown" unicode="&#xa1;" horiz-adv-x="340" 
d="M123 -10l15 250h65l15 -250v-230h-95v230zM100 410q0 29 20.5 49.5t49.5 20.5t49.5 -20.5t20.5 -49.5t-20.5 -49.5t-49.5 -20.5t-49.5 20.5t-20.5 49.5z" />
    <glyph glyph-name="cent" unicode="&#xa2;" horiz-adv-x="530" 
d="M242 -115v111q-88 17 -142.5 82.5t-54.5 156.5t55 157.5t142 82.5v110h95v-110q95 -18 153 -97l-70 -59q-51 71 -130 71q-64 0 -107 -44t-43 -111q0 -69 44 -112t112 -43q81 0 136 73l73 -53q-25 -41 -70 -69.5t-98 -36.5v-109h-95z" />
    <glyph glyph-name="sterling" unicode="&#xa3;" horiz-adv-x="530" 
d="M237 400h148v-85h-120q6 -29 6 -60q0 -98 -58 -165h292v-90h-465v60q63 24 99.5 81.5t36.5 113.5q0 26 -9 60h-107v85h76q-30 73 -30 124q0 80 57.5 133t135.5 53q108 0 174 -94l-75 -54q-37 58 -99 58q-38 0 -68 -27t-30 -71q0 -11 1.5 -22.5t6.5 -26t7.5 -22.5
t10.5 -27z" />
    <glyph glyph-name="currency" unicode="&#xa4;" horiz-adv-x="560" 
d="M74 351q0 60 32 111l-76 76l63 63l76 -76q51 32 111 32t111 -32l76 76l63 -63l-76 -76q32 -49 32 -111t-32 -111l76 -76l-63 -63l-76 76q-49 -32 -111 -32t-111 32l-76 -76l-63 63l76 76q-32 51 -32 111zM169 351q0 -46 32.5 -78.5t78.5 -32.5t78.5 32.5t32.5 78.5
t-32.5 78.5t-78.5 32.5t-78.5 -32.5t-32.5 -78.5z" />
    <glyph glyph-name="yen" unicode="&#xa5;" horiz-adv-x="600" 
d="M350 315h190v-85h-190v-230h-100v230h-190v85h190l-44 70h-146v85h93l-143 230h114l176 -286l176 286h114l-144 -230h94v-85h-147z" />
    <glyph glyph-name="brokenbar" unicode="&#xa6;" horiz-adv-x="255" 
d="M80 -200v390h95v-390h-95zM80 310v390h95v-390h-95z" />
    <glyph glyph-name="section" unicode="&#xa7;" horiz-adv-x="580" 
d="M92 524q0 77 60.5 131.5t151.5 54.5q104 0 188 -70l-59 -73q-57 48 -125 48q-47 0 -81.5 -23t-34.5 -65q0 -34 34 -56t102.5 -46.5t101.5 -42.5q105 -57 105 -160q0 -46 -25 -90t-64 -73q42 -44 42 -103q0 -77 -60.5 -131.5t-151.5 -54.5q-104 0 -188 70l59 73
q57 -48 125 -48q47 0 81.5 23t34.5 65q0 34 -34 56t-102.5 46.5t-101.5 42.5q-105 57 -105 160q0 46 25 89.5t64 73.5q-42 40 -42 103zM145 262q0 -25 12 -44t37 -33.5t48 -24.5t60.5 -24t58.5 -23q29 14 51.5 43.5t22.5 61.5q0 25 -12 44t-37 33.5t-48 24.5t-60.5 23.5
t-59.5 23.5q-29 -15 -51 -44t-22 -61z" />
    <glyph glyph-name="dieresis" unicode="&#xa8;" horiz-adv-x="450" 
d="M70 617q0 26 18 44.5t44 18.5t44.5 -18.5t18.5 -44.5t-18.5 -44t-44.5 -18t-44 18t-18 44zM255 617q0 26 18 44.5t44 18.5t44.5 -18.5t18.5 -44.5t-18.5 -44t-44.5 -18t-44 18t-18 44z" />
    <glyph glyph-name="copyright" unicode="&#xa9;" horiz-adv-x="840" 
d="M556 501l-39 -51q-45 35 -90 35q-52 0 -86 -37t-34 -95q0 -57 35 -95t91 -38q48 0 95 36l39 -52q-59 -52 -136 -52q-86 0 -141.5 57.5t-55.5 143.5q0 85 55 142.5t138 57.5q72 0 129 -52zM70 350q0 145 102.5 247.5t247.5 102.5t247.5 -102.5t102.5 -247.5t-102.5 -247.5
t-247.5 -102.5t-247.5 102.5t-102.5 247.5zM135 350q0 -118 83 -201t201 -83t201.5 83t83.5 201t-83.5 201.5t-201.5 83.5t-201 -83.5t-83 -201.5z" />
    <glyph glyph-name="ordfeminine" unicode="&#xaa;" horiz-adv-x="416" 
d="M292 496v108q-29 39 -77 39q-39 0 -65 -27t-26 -66t26 -66t65 -27q48 0 77 39zM366 703v-306h-72v25q-36 -32 -90 -32q-62 0 -108 46.5t-46 113.5t46 113.5t108 46.5q54 0 90 -32v25h72z" />
    <glyph glyph-name="guillemotleft" unicode="&#xab;" horiz-adv-x="600" 
d="M176 240l154 -190h-116l-134 165v50l134 165h116zM406 240l154 -190h-116l-134 165v50l134 165h116z" />
    <glyph glyph-name="logicalnot" unicode="&#xac;" horiz-adv-x="530" 
d="M480 395v-270h-90v180h-350v90h440z" />
    <glyph glyph-name="registered" unicode="&#xae;" horiz-adv-x="840" 
d="M546 438q0 -33 -20.5 -62.5t-51.5 -39.5l122 -175h-83l-119 170h-19v-170h-72v383h128q46 0 74 -23q41 -32 41 -83zM375 476v-77h50q29 0 39 12q9 11 9 26t-9 25q-12 14 -39 14h-50zM70 350q0 145 102.5 247.5t247.5 102.5t247.5 -102.5t102.5 -247.5t-102.5 -247.5
t-247.5 -102.5t-247.5 102.5t-102.5 247.5zM135 350q0 -118 83 -201t201 -83t201.5 83t83.5 201t-83.5 201.5t-201.5 83.5t-201 -83.5t-83 -201.5z" />
    <glyph glyph-name="macron" unicode="&#xaf;" horiz-adv-x="440" 
d="M70 660h300v-85h-300v85z" />
    <glyph glyph-name="degree" unicode="&#xb0;" horiz-adv-x="400" 
d="M40 550q0 66 47 113t113 47t113 -47t47 -113t-47 -113t-113 -47t-113 47t-47 113zM120 550q0 -33 23.5 -56.5t56.5 -23.5t56.5 23.5t23.5 56.5t-23.5 56.5t-56.5 23.5t-56.5 -23.5t-23.5 -56.5z" />
    <glyph glyph-name="plusminus" unicode="&#xb1;" horiz-adv-x="540" 
d="M50 365h175v135h90v-135h175v-90h-175v-135h-90v135h-175v90zM50 110h440v-90h-440v90z" />
    <glyph glyph-name="twosuperior" unicode="&#xb2;" horiz-adv-x="311" 
d="M101 595l-70 21q11 43 43.5 68.5t77.5 25.5q50 0 86 -33t36 -84q0 -47 -43 -95l-79 -88h124v-70h-246v40l136 152q33 35 33 61q0 19 -13 33t-34 14q-38 0 -51 -45z" />
    <glyph glyph-name="threesuperior" unicode="&#xb3;" horiz-adv-x="303" 
d="M20 394l60 38q20 -34 58 -34q26 0 43 17.5t17 42.5t-17 43.5t-44 18.5q-22 0 -49 -11v40l61 81h-115v70h223v-40l-64 -88q35 -12 57.5 -44t22.5 -70q0 -54 -39 -91t-96 -37q-77 0 -118 64z" />
    <glyph glyph-name="acute" unicode="&#xb4;" horiz-adv-x="310" 
d="M135 550h-65l65 150h105z" />
    <glyph glyph-name="mu" unicode="&#xb5;" horiz-adv-x="610" 
d="M295 -10q-35 0 -66.5 14t-48.5 31v-275h-95v710h95v-255q0 -62 27 -94q34 -41 88 -41q74 0 135 67v323h95v-470h-92v43q-20 -20 -57 -36.5t-81 -16.5z" />
    <glyph glyph-name="paragraph" unicode="&#xb6;" horiz-adv-x="685" 
d="M440 -200v810h-100v-810h-95v470q-89 0 -152 63t-63 152q0 110 88 174q57 41 147 41h370v-90h-100v-810h-95zM125 485q0 -52 34.5 -88.5t85.5 -36.5v250q-51 0 -85.5 -36.5t-34.5 -88.5z" />
    <glyph glyph-name="periodcentered" unicode="&#xb7;" horiz-adv-x="340" 
d="M100 235q0 29 20.5 49.5t49.5 20.5t49.5 -20.5t20.5 -49.5t-20.5 -49.5t-49.5 -20.5t-49.5 20.5t-20.5 49.5z" />
    <glyph glyph-name="cedilla" unicode="&#xb8;" horiz-adv-x="275" 
d="M140 10h65l-30 -150h-105z" />
    <glyph glyph-name="onesuperior" unicode="&#xb9;" horiz-adv-x="235" 
d="M30 569v75l110 56h45v-360h-75v266z" />
    <glyph glyph-name="ordmasculine" unicode="&#xba;" horiz-adv-x="416" 
d="M292 549q0 41 -23 67.5t-61 26.5t-61 -26.5t-23 -67.5q0 -40 23 -66t61 -26t61 26t23 66zM50 550q0 67 44.5 113.5t113.5 46.5t113.5 -46.5t44.5 -113.5t-44.5 -113.5t-113.5 -46.5t-113.5 46.5t-44.5 113.5z" />
    <glyph glyph-name="guillemotright" unicode="&#xbb;" horiz-adv-x="600" 
d="M270 50l154 190l-154 190h116l134 -165v-50l-134 -165h-116zM40 50l154 190l-154 190h116l134 -165v-50l-134 -165h-116z" />
    <glyph glyph-name="onequarter" unicode="&#xbc;" horiz-adv-x="632" 
d="M151 0h-86l409 700h86zM30 569v75l110 56h45v-360h-75v266zM511 360h45v-213h61v-70h-61v-77h-75v77h-161v40zM431 147h50v66z" />
    <glyph glyph-name="onehalf" unicode="&#xbd;" horiz-adv-x="676" 
d="M151 0h-86l409 700h86zM30 569v75l110 56h45v-360h-75v266zM466 255l-70 21q11 43 43.5 68.5t77.5 25.5q50 0 86 -33t36 -84q0 -47 -43 -95l-79 -88h124v-70h-246v40l136 152q33 35 33 61q0 19 -13 33t-34 14q-38 0 -51 -45z" />
    <glyph glyph-name="threequarters" unicode="&#xbe;" horiz-adv-x="670" 
d="M189 0h-86l409 700h86zM549 360h45v-213h61v-70h-61v-77h-75v77h-161v40zM469 147h50v66zM20 394l60 38q20 -34 58 -34q26 0 43 17.5t17 42.5t-17 43.5t-44 18.5q-22 0 -49 -11v40l61 81h-115v70h223v-40l-64 -88q35 -12 57.5 -44t22.5 -70q0 -54 -39 -91t-96 -37
q-77 0 -118 64z" />
    <glyph glyph-name="questiondown" unicode="&#xbf;" horiz-adv-x="500" 
d="M345 -84l90 -26q-15 -61 -71 -100.5t-128 -39.5q-84 0 -140 53t-56 129q0 43 18 79.5t43.5 61t51 43.5t43.5 36t18 31q0 19 -26 42l63 66q58 -44 58 -107q0 -34 -18 -62.5t-43.5 -49l-51 -40t-43.5 -45t-18 -55.5q0 -39 28.5 -65.5t72.5 -26.5q39 0 70 22t39 54zM310 410
q0 -29 -20.5 -49.5t-49.5 -20.5t-49.5 20.5t-20.5 49.5t20.5 49.5t49.5 20.5t49.5 -20.5t20.5 -49.5z" />
    <glyph glyph-name="Agrave" unicode="&#xc0;" horiz-adv-x="660" 
d="M360 750h-65l-105 150h105zM551 0l-74 180h-295l-73 -180h-104l290 700h70l290 -700h-104zM330 535l-108 -260h216z" />
    <glyph glyph-name="Aacute" unicode="&#xc1;" horiz-adv-x="660" 
d="M365 750h-65l65 150h105zM551 0l-74 180h-295l-73 -180h-104l290 700h70l290 -700h-104zM330 535l-108 -260h216z" />
    <glyph glyph-name="Acircumflex" unicode="&#xc2;" horiz-adv-x="660" 
d="M245 750h-65l95 150h110l95 -150h-65l-85 94zM551 0l-74 180h-295l-73 -180h-104l290 700h70l290 -700h-104zM330 535l-108 -260h216z" />
    <glyph glyph-name="Atilde" unicode="&#xc3;" horiz-adv-x="660" 
d="M551 0l-74 180h-295l-73 -180h-104l290 700h70l290 -700h-104zM330 535l-108 -260h216zM225 760l-65 21q2 46 29.5 77.5t71.5 31.5q27 0 72 -22.5t64 -22.5q30 0 38 45l65 -21q-2 -46 -29.5 -77.5t-71.5 -31.5q-27 0 -72 22.5t-64 22.5q-30 0 -38 -45z" />
    <glyph glyph-name="Adieresis" unicode="&#xc4;" horiz-adv-x="660" 
d="M175 817q0 26 18 44.5t44 18.5t44.5 -18.5t18.5 -44.5t-18.5 -44t-44.5 -18t-44 18t-18 44zM360 817q0 26 18 44.5t44 18.5t44.5 -18.5t18.5 -44.5t-18.5 -44t-44.5 -18t-44 18t-18 44zM551 0l-74 180h-295l-73 -180h-104l290 700h70l290 -700h-104zM330 535l-108 -260
h216z" />
    <glyph glyph-name="Aring" unicode="&#xc5;" horiz-adv-x="660" 
d="M230 830q0 41 29.5 70.5t70.5 29.5t70.5 -29.5t29.5 -70.5t-29.5 -70.5t-70.5 -29.5t-70.5 29.5t-29.5 70.5zM290 830q0 -16 12 -28t28 -12t28 12t12 28t-12 28t-28 12t-28 -12t-12 -28zM551 0l-74 180h-295l-73 -180h-104l290 700h70l290 -700h-104zM330 535l-108 -260
h216z" />
    <glyph glyph-name="AE" unicode="&#xc6;" horiz-adv-x="910" 
d="M870 0h-410v180h-258l-108 -180h-114l418 700h462v-95h-300v-180h230v-95h-230v-235h310v-95zM460 615l-202 -340h202v340z" />
    <glyph glyph-name="Ccedilla" unicode="&#xc7;" horiz-adv-x="690" 
d="M35 350q0 152 101.5 256t252.5 104q75 0 142.5 -28.5t113.5 -79.5l-67 -66q-32 35 -83 57t-106 22q-108 0 -181 -76t-73 -189q0 -117 75 -191t188 -74q119 0 201 99l71 -64q-42 -54 -108.5 -89t-140.5 -40l-26 -131h-105l62 133q-139 15 -228 114.5t-89 242.5z" />
    <glyph glyph-name="Egrave" unicode="&#xc8;" horiz-adv-x="540" 
d="M190 425h230v-95h-230v-235h310v-95h-410v700h400v-95h-300v-180zM335 750h-65l-105 150h105z" />
    <glyph glyph-name="Eacute" unicode="&#xc9;" horiz-adv-x="540" 
d="M190 425h230v-95h-230v-235h310v-95h-410v700h400v-95h-300v-180zM320 750h-65l65 150h105z" />
    <glyph glyph-name="Ecircumflex" unicode="&#xca;" horiz-adv-x="540" 
d="M190 425h230v-95h-230v-235h310v-95h-410v700h400v-95h-300v-180zM205 750h-65l95 150h110l95 -150h-65l-85 94z" />
    <glyph glyph-name="Edieresis" unicode="&#xcb;" horiz-adv-x="540" 
d="M190 425h230v-95h-230v-235h310v-95h-410v700h400v-95h-300v-180zM135 817q0 26 18 44.5t44 18.5t44.5 -18.5t18.5 -44.5t-18.5 -44t-44.5 -18t-44 18t-18 44zM320 817q0 26 18 44.5t44 18.5t44.5 -18.5t18.5 -44.5t-18.5 -44t-44.5 -18t-44 18t-18 44z" />
    <glyph glyph-name="Igrave" unicode="&#xcc;" horiz-adv-x="280" 
d="M90 0v700h100v-700h-100zM180 750h-65l-105 150h105z" />
    <glyph glyph-name="Iacute" unicode="&#xcd;" horiz-adv-x="280" 
d="M90 0v700h100v-700h-100zM165 750h-65l65 150h105z" />
    <glyph glyph-name="Icircumflex" unicode="&#xce;" horiz-adv-x="280" 
d="M90 0v700h100v-700h-100zM55 750h-65l95 150h110l95 -150h-65l-85 94z" />
    <glyph glyph-name="Idieresis" unicode="&#xcf;" horiz-adv-x="280" 
d="M90 0v700h100v-700h-100zM-15 817q0 26 18 44.5t44 18.5t44.5 -18.5t18.5 -44.5t-18.5 -44t-44.5 -18t-44 18t-18 44zM170 817q0 26 18 44.5t44 18.5t44.5 -18.5t18.5 -44.5t-18.5 -44t-44.5 -18t-44 18t-18 44z" />
    <glyph glyph-name="Eth" unicode="&#xd0;" horiz-adv-x="715" 
d="M300 0h-210v330h-100v95h100v275h210q150 0 240 -66q65 -49 102.5 -123.5t37.5 -160.5t-37 -161t-102 -123q-90 -66 -241 -66zM580 350q0 121 -85 196q-68 59 -200 59h-105v-180h200v-95h-200v-235h105q132 0 200 59q85 75 85 196z" />
    <glyph glyph-name="Ntilde" unicode="&#xd1;" horiz-adv-x="770" 
d="M610 0l-420 514v-514h-100v700h70l420 -514v514h100v-700h-70zM279 760l-65 21q2 46 29.5 77.5t71.5 31.5q27 0 72 -22.5t64 -22.5q30 0 38 45l65 -21q-2 -46 -29.5 -77.5t-71.5 -31.5q-27 0 -72 22.5t-64 22.5q-30 0 -38 -45z" />
    <glyph glyph-name="Ograve" unicode="&#xd2;" horiz-adv-x="770" 
d="M35 350q0 153 100.5 256.5t249.5 103.5t249.5 -103.5t100.5 -256.5t-100.5 -256.5t-249.5 -103.5t-249.5 103.5t-100.5 256.5zM135 350q0 -114 71.5 -189.5t178.5 -75.5t178.5 75.5t71.5 189.5q0 113 -71.5 189t-178.5 76t-178.5 -76t-71.5 -189zM420 750h-65l-105 150
h105z" />
    <glyph glyph-name="Oacute" unicode="&#xd3;" horiz-adv-x="770" 
d="M35 350q0 153 100.5 256.5t249.5 103.5t249.5 -103.5t100.5 -256.5t-100.5 -256.5t-249.5 -103.5t-249.5 103.5t-100.5 256.5zM135 350q0 -114 71.5 -189.5t178.5 -75.5t178.5 75.5t71.5 189.5q0 113 -71.5 189t-178.5 76t-178.5 -76t-71.5 -189zM415 750h-65l65 150h105
z" />
    <glyph glyph-name="Ocircumflex" unicode="&#xd4;" horiz-adv-x="770" 
d="M35 350q0 153 100.5 256.5t249.5 103.5t249.5 -103.5t100.5 -256.5t-100.5 -256.5t-249.5 -103.5t-249.5 103.5t-100.5 256.5zM135 350q0 -114 71.5 -189.5t178.5 -75.5t178.5 75.5t71.5 189.5q0 113 -71.5 189t-178.5 76t-178.5 -76t-71.5 -189zM300 750h-65l95 150h110
l95 -150h-65l-85 94z" />
    <glyph glyph-name="Otilde" unicode="&#xd5;" horiz-adv-x="770" 
d="M35 350q0 153 100.5 256.5t249.5 103.5t249.5 -103.5t100.5 -256.5t-100.5 -256.5t-249.5 -103.5t-249.5 103.5t-100.5 256.5zM135 350q0 -114 71.5 -189.5t178.5 -75.5t178.5 75.5t71.5 189.5q0 113 -71.5 189t-178.5 76t-178.5 -76t-71.5 -189zM280 760l-65 21
q2 46 29.5 77.5t71.5 31.5q27 0 72 -22.5t64 -22.5q30 0 38 45l65 -21q-2 -46 -29.5 -77.5t-71.5 -31.5q-27 0 -72 22.5t-64 22.5q-30 0 -38 -45z" />
    <glyph glyph-name="Odieresis" unicode="&#xd6;" horiz-adv-x="770" 
d="M35 350q0 153 100.5 256.5t249.5 103.5t249.5 -103.5t100.5 -256.5t-100.5 -256.5t-249.5 -103.5t-249.5 103.5t-100.5 256.5zM135 350q0 -114 71.5 -189.5t178.5 -75.5t178.5 75.5t71.5 189.5q0 113 -71.5 189t-178.5 76t-178.5 -76t-71.5 -189zM230 817q0 26 18 44.5
t44 18.5t44.5 -18.5t18.5 -44.5t-18.5 -44t-44.5 -18t-44 18t-18 44zM415 817q0 26 18 44.5t44 18.5t44.5 -18.5t18.5 -44.5t-18.5 -44t-44.5 -18t-44 18t-18 44z" />
    <glyph glyph-name="multiply" unicode="&#xd7;" horiz-adv-x="548" 
d="M129 469l145 -145l145 145l64 -64l-145 -145l145 -145l-64 -64l-145 145l-145 -145l-64 64l145 145l-145 145z" />
    <glyph glyph-name="Oslash" unicode="&#xd8;" horiz-adv-x="770" 
d="M35 350q0 153 100.5 256.5t249.5 103.5q108 0 194 -58l49 58h119l-99 -119q87 -102 87 -241q0 -153 -100.5 -256.5t-249.5 -103.5q-107 0 -194 57l-49 -57h-120l100 118q-87 100 -87 242zM135 350q0 -95 51 -165l331 392q-60 38 -132 38q-107 0 -178.5 -76t-71.5 -189z
M635 350q0 94 -52 165l-330 -393q59 -37 132 -37q107 0 178.5 75.5t71.5 189.5z" />
    <glyph glyph-name="Ugrave" unicode="&#xd9;" horiz-adv-x="740" 
d="M370 -10q-131 0 -217 92q-73 79 -73 208v410h100v-415q0 -89 44 -138q56 -62 146 -62t146 62q44 49 44 138v415h100v-410q0 -129 -73 -208q-86 -92 -217 -92zM405 750h-65l-105 150h105z" />
    <glyph glyph-name="Uacute" unicode="&#xda;" horiz-adv-x="740" 
d="M370 -10q-131 0 -217 92q-73 79 -73 208v410h100v-415q0 -89 44 -138q56 -62 146 -62t146 62q44 49 44 138v415h100v-410q0 -129 -73 -208q-86 -92 -217 -92zM400 750h-65l65 150h105z" />
    <glyph glyph-name="Ucircumflex" unicode="&#xdb;" horiz-adv-x="740" 
d="M370 -10q-131 0 -217 92q-73 79 -73 208v410h100v-415q0 -89 44 -138q56 -62 146 -62t146 62q44 49 44 138v415h100v-410q0 -129 -73 -208q-86 -92 -217 -92zM285 750h-65l95 150h110l95 -150h-65l-85 94z" />
    <glyph glyph-name="Udieresis" unicode="&#xdc;" horiz-adv-x="740" 
d="M370 -10q-131 0 -217 92q-73 79 -73 208v410h100v-415q0 -89 44 -138q56 -62 146 -62t146 62q44 49 44 138v415h100v-410q0 -129 -73 -208q-86 -92 -217 -92zM215 817q0 26 18 44.5t44 18.5t44.5 -18.5t18.5 -44.5t-18.5 -44t-44.5 -18t-44 18t-18 44zM400 817
q0 26 18 44.5t44 18.5t44.5 -18.5t18.5 -44.5t-18.5 -44t-44.5 -18t-44 18t-18 44z" />
    <glyph glyph-name="Yacute" unicode="&#xdd;" horiz-adv-x="600" 
d="M590 700l-240 -380v-320h-100v320l-240 380h112l178 -281l178 281h112zM330 750h-65l65 150h105z" />
    <glyph glyph-name="Thorn" unicode="&#xde;" horiz-adv-x="600" 
d="M190 250h160q63 0 92 31q28 30 28 69t-28 69q-29 31 -92 31h-160v-200zM190 545h165q92 0 146 -46q69 -59 69 -149t-69 -149q-54 -46 -146 -46h-165v-155h-100v700h100v-155z" />
    <glyph glyph-name="germandbls" unicode="&#xdf;" 
d="M229 12l36 79q25 -11 53 -11q57 0 93.5 37.5t36.5 92.5q0 51 -34 88q-39 42 -116 42h-38v90h4q58 0 87 26q33 30 33 74q0 41 -28.5 70.5t-69.5 29.5q-51 0 -80 -35q-26 -29 -26 -85v-510h-95v510q0 92 49 146q58 64 148 64q81 0 139 -55.5t58 -134.5q0 -77 -53 -125
q54 -28 86.5 -80t32.5 -115q0 -92 -63 -156t-157 -64q-50 0 -96 22z" />
    <glyph glyph-name="agrave" unicode="&#xe0;" horiz-adv-x="605" 
d="M372 550h-65l-105 150h105zM428 0v43q-59 -53 -145 -53q-66 0 -118 31q-55 32 -87.5 88.5t-32.5 125.5t33 126t88 89q51 30 115 30q85 0 147 -53v43h92v-470h-92zM425 147v176q-51 67 -134 67q-66 0 -108.5 -45.5t-42.5 -109.5t44.5 -109.5t111.5 -45.5q79 0 129 67z" />
    <glyph glyph-name="aacute" unicode="&#xe1;" horiz-adv-x="605" 
d="M317 550h-65l65 150h105zM428 0v43q-59 -53 -145 -53q-66 0 -118 31q-55 32 -87.5 88.5t-32.5 125.5t33 126t88 89q51 30 115 30q85 0 147 -53v43h92v-470h-92zM425 147v176q-51 67 -134 67q-66 0 -108.5 -45.5t-42.5 -109.5t44.5 -109.5t111.5 -45.5q79 0 129 67z" />
    <glyph glyph-name="acircumflex" unicode="&#xe2;" horiz-adv-x="605" 
d="M222 550h-65l95 150h110l95 -150h-65l-85 94zM428 0v43q-59 -53 -145 -53q-66 0 -118 31q-55 32 -87.5 88.5t-32.5 125.5t33 126t88 89q51 30 115 30q85 0 147 -53v43h92v-470h-92zM425 147v176q-51 67 -134 67q-66 0 -108.5 -45.5t-42.5 -109.5t44.5 -109.5t111.5 -45.5
q79 0 129 67z" />
    <glyph glyph-name="atilde" unicode="&#xe3;" horiz-adv-x="605" 
d="M196 560l-65 21q2 46 29.5 77.5t71.5 31.5q27 0 72 -22.5t64 -22.5q30 0 38 45l65 -21q-2 -46 -29.5 -77.5t-71.5 -31.5q-27 0 -72 22.5t-64 22.5q-30 0 -38 -45zM428 0v43q-59 -53 -145 -53q-66 0 -118 31q-55 32 -87.5 88.5t-32.5 125.5t33 126t88 89q51 30 115 30
q85 0 147 -53v43h92v-470h-92zM425 147v176q-51 67 -134 67q-66 0 -108.5 -45.5t-42.5 -109.5t44.5 -109.5t111.5 -45.5q79 0 129 67z" />
    <glyph glyph-name="adieresis" unicode="&#xe4;" horiz-adv-x="605" 
d="M142 617q0 26 18 44.5t44 18.5t44.5 -18.5t18.5 -44.5t-18.5 -44t-44.5 -18t-44 18t-18 44zM327 617q0 26 18 44.5t44 18.5t44.5 -18.5t18.5 -44.5t-18.5 -44t-44.5 -18t-44 18t-18 44zM428 0v43q-59 -53 -145 -53q-66 0 -118 31q-55 32 -87.5 88.5t-32.5 125.5t33 126
t88 89q51 30 115 30q85 0 147 -53v43h92v-470h-92zM425 147v176q-51 67 -134 67q-66 0 -108.5 -45.5t-42.5 -109.5t44.5 -109.5t111.5 -45.5q79 0 129 67z" />
    <glyph glyph-name="aring" unicode="&#xe5;" horiz-adv-x="605" 
d="M197 630q0 41 29.5 70.5t70.5 29.5t70.5 -29.5t29.5 -70.5t-29.5 -70.5t-70.5 -29.5t-70.5 29.5t-29.5 70.5zM257 630q0 -16 11.5 -28t28.5 -12t28.5 12t11.5 28t-11.5 28t-28.5 12t-28.5 -12t-11.5 -28zM428 0v43q-59 -53 -145 -53q-66 0 -118 31q-55 32 -87.5 88.5
t-32.5 125.5t33 126t88 89q51 30 115 30q85 0 147 -53v43h92v-470h-92zM425 147v176q-51 67 -134 67q-66 0 -108.5 -45.5t-42.5 -109.5t44.5 -109.5t111.5 -45.5q79 0 129 67z" />
    <glyph glyph-name="ae" unicode="&#xe6;" horiz-adv-x="929" 
d="M428 0v43q-59 -53 -145 -53q-66 0 -118 31q-55 32 -87.5 88.5t-32.5 125.5t33 126t88 89q51 30 115 30q85 0 147 -53v43h84v-43q59 53 141 53q96 0 163.5 -71t67.5 -174q0 -11 -1 -20h-367q5 -60 50.5 -101t109.5 -41q75 0 132 64l62 -59q-70 -88 -192 -88q-97 0 -166 64
v-54h-84zM425 147v176q-51 67 -134 67q-66 0 -108.5 -45.5t-42.5 -109.5t44.5 -109.5t111.5 -45.5q79 0 129 67zM657 397q-47 0 -85 -28t-51 -74h264q-11 45 -47.5 73.5t-80.5 28.5z" />
    <glyph glyph-name="ccedilla" unicode="&#xe7;" horiz-adv-x="530" 
d="M432 153l73 -53q-26 -42 -73 -71t-102 -36l-26 -133h-105l61 133q-95 11 -155 78.5t-60 163.5q0 105 70 175t175 70q60 0 113 -27.5t87 -74.5l-70 -59q-51 71 -130 71q-64 0 -107 -44t-43 -111q0 -69 44 -112t112 -43q81 0 136 73z" />
    <glyph glyph-name="egrave" unicode="&#xe8;" horiz-adv-x="545" 
d="M327 550h-65l-105 150h105zM499 215h-362q4 -60 47.5 -101t104.5 -41q77 0 135 64l62 -59q-29 -38 -80 -63t-118 -25q-103 0 -173 70t-70 175q0 106 64.5 175.5t164.5 69.5q98 0 162 -70t64 -175q0 -11 -1 -20zM277 397q-46 0 -83 -28.5t-49 -73.5h256q-10 44 -45.5 73
t-78.5 29z" />
    <glyph glyph-name="eacute" unicode="&#xe9;" horiz-adv-x="545" 
d="M302 550h-65l65 150h105zM499 215h-362q4 -60 47.5 -101t104.5 -41q77 0 135 64l62 -59q-29 -38 -80 -63t-118 -25q-103 0 -173 70t-70 175q0 106 64.5 175.5t164.5 69.5q98 0 162 -70t64 -175q0 -11 -1 -20zM277 397q-46 0 -83 -28.5t-49 -73.5h256q-10 44 -45.5 73
t-78.5 29z" />
    <glyph glyph-name="ecircumflex" unicode="&#xea;" horiz-adv-x="545" 
d="M192 550h-65l95 150h110l95 -150h-65l-85 94zM499 215h-362q4 -60 47.5 -101t104.5 -41q77 0 135 64l62 -59q-29 -38 -80 -63t-118 -25q-103 0 -173 70t-70 175q0 106 64.5 175.5t164.5 69.5q98 0 162 -70t64 -175q0 -11 -1 -20zM277 397q-46 0 -83 -28.5t-49 -73.5h256
q-10 44 -45.5 73t-78.5 29z" />
    <glyph glyph-name="edieresis" unicode="&#xeb;" horiz-adv-x="545" 
d="M117 617q0 26 18 44.5t44 18.5t44.5 -18.5t18.5 -44.5t-18.5 -44t-44.5 -18t-44 18t-18 44zM302 617q0 26 18 44.5t44 18.5t44.5 -18.5t18.5 -44.5t-18.5 -44t-44.5 -18t-44 18t-18 44zM499 215h-362q4 -60 47.5 -101t104.5 -41q77 0 135 64l62 -59q-29 -38 -80 -63
t-118 -25q-103 0 -173 70t-70 175q0 106 64.5 175.5t164.5 69.5q98 0 162 -70t64 -175q0 -11 -1 -20zM277 397q-46 0 -83 -28.5t-49 -73.5h256q-10 44 -45.5 73t-78.5 29z" />
    <glyph glyph-name="igrave" unicode="&#xec;" horiz-adv-x="265" 
d="M85 0v470h95v-470h-95zM180 550h-65l-105 150h105z" />
    <glyph glyph-name="iacute" unicode="&#xed;" horiz-adv-x="265" 
d="M85 0v470h95v-470h-95zM150 550h-65l65 150h105z" />
    <glyph glyph-name="icircumflex" unicode="&#xee;" horiz-adv-x="265" 
d="M85 0v470h95v-470h-95zM47 550h-65l95 150h110l95 -150h-65l-85 94z" />
    <glyph glyph-name="idieresis" unicode="&#xef;" horiz-adv-x="265" 
d="M85 0v470h95v-470h-95zM-23 617q0 26 18 44.5t44 18.5t44.5 -18.5t18.5 -44.5t-18.5 -44t-44.5 -18t-44 18t-18 44zM162 617q0 26 18 44.5t44 18.5t44.5 -18.5t18.5 -44.5t-18.5 -44t-44.5 -18t-44 18t-18 44z" />
    <glyph glyph-name="eth" unicode="&#xf0;" horiz-adv-x="576" 
d="M262 552l-80 -51l-45 68l80 51l-59 90h111l26 -41l80 51l45 -68l-80 -51l120 -180q71 -108 71 -186q0 -102 -70 -173.5t-173 -71.5q-104 0 -173.5 71t-69.5 174t69 174t174 71q7 0 23 -2zM288 390q-64 0 -106 -45t-42 -110t42 -110t106 -45t106 45t42 110q0 70 -52 132
q-44 23 -96 23z" />
    <glyph glyph-name="ntilde" unicode="&#xf1;" horiz-adv-x="610" 
d="M177 470v-45q57 55 141 55q106 0 171 -83q46 -58 46 -167v-230h-95v235q0 74 -28 109q-36 46 -97 46q-80 0 -135 -67v-323h-95v470h92zM206 560l-65 21q2 46 29.5 77.5t71.5 31.5q27 0 72 -22.5t64 -22.5q30 0 38 45l65 -21q-2 -46 -29.5 -77.5t-71.5 -31.5
q-27 0 -72 22.5t-64 22.5q-30 0 -38 -45z" />
    <glyph glyph-name="ograve" unicode="&#xf2;" horiz-adv-x="576" 
d="M45 235q0 105 69.5 175t173.5 70t173.5 -70t69.5 -175t-69.5 -175t-173.5 -70t-173.5 70t-69.5 175zM140 235q0 -65 42 -110t106 -45t106 45t42 110t-42 110t-106 45t-106 -45t-42 -110zM323 550h-65l-105 150h105z" />
    <glyph glyph-name="oacute" unicode="&#xf3;" horiz-adv-x="576" 
d="M45 235q0 105 69.5 175t173.5 70t173.5 -70t69.5 -175t-69.5 -175t-173.5 -70t-173.5 70t-69.5 175zM140 235q0 -65 42 -110t106 -45t106 45t42 110t-42 110t-106 45t-106 -45t-42 -110zM318 550h-65l65 150h105z" />
    <glyph glyph-name="ocircumflex" unicode="&#xf4;" horiz-adv-x="576" 
d="M45 235q0 105 69.5 175t173.5 70t173.5 -70t69.5 -175t-69.5 -175t-173.5 -70t-173.5 70t-69.5 175zM140 235q0 -65 42 -110t106 -45t106 45t42 110t-42 110t-106 45t-106 -45t-42 -110zM203 550h-65l95 150h110l95 -150h-65l-85 94z" />
    <glyph glyph-name="otilde" unicode="&#xf5;" horiz-adv-x="576" 
d="M45 235q0 105 69.5 175t173.5 70t173.5 -70t69.5 -175t-69.5 -175t-173.5 -70t-173.5 70t-69.5 175zM140 235q0 -65 42 -110t106 -45t106 45t42 110t-42 110t-106 45t-106 -45t-42 -110zM184 560l-65 21q2 46 29.5 77.5t71.5 31.5q27 0 72 -22.5t64 -22.5q30 0 38 45
l65 -21q-2 -46 -29.5 -77.5t-71.5 -31.5q-27 0 -72 22.5t-64 22.5q-30 0 -38 -45z" />
    <glyph glyph-name="odieresis" unicode="&#xf6;" horiz-adv-x="576" 
d="M45 235q0 105 69.5 175t173.5 70t173.5 -70t69.5 -175t-69.5 -175t-173.5 -70t-173.5 70t-69.5 175zM140 235q0 -65 42 -110t106 -45t106 45t42 110t-42 110t-106 45t-106 -45t-42 -110zM133 617q0 26 18 44.5t44 18.5t44.5 -18.5t18.5 -44.5t-18.5 -44t-44.5 -18t-44 18
t-18 44zM318 617q0 26 18 44.5t44 18.5t44.5 -18.5t18.5 -44.5t-18.5 -44t-44.5 -18t-44 18t-18 44z" />
    <glyph glyph-name="divide" unicode="&#xf7;" horiz-adv-x="540" 
d="M50 305h440v-90h-440v90zM200 100q0 29 20.5 49.5t49.5 20.5t49.5 -20.5t20.5 -49.5t-20.5 -49.5t-49.5 -20.5t-49.5 20.5t-20.5 49.5zM200 420q0 29 20.5 49.5t49.5 20.5t49.5 -20.5t20.5 -49.5t-20.5 -49.5t-49.5 -20.5t-49.5 20.5t-20.5 49.5z" />
    <glyph glyph-name="oslash" unicode="&#xf8;" horiz-adv-x="576" 
d="M45 235q0 105 69.5 175t173.5 70q65 0 123 -32l28 32h111l-74 -87q55 -68 55 -158q0 -105 -69.5 -175t-173.5 -70q-69 0 -123 31l-26 -31h-112l72 86q-54 67 -54 159zM140 235q0 -46 22 -84l189 225q-30 14 -63 14q-64 0 -106 -45t-42 -110zM436 235q0 45 -22 83
l-189 -225q29 -13 63 -13q64 0 106 45t42 110z" />
    <glyph glyph-name="ugrave" unicode="&#xf9;" horiz-adv-x="600" 
d="M340 550h-65l-105 150h105zM285 -10q-104 0 -167 79q-43 53 -43 161v240h95v-255q0 -62 27 -94q34 -41 91 -41q75 0 132 67v323h95v-470h-92v43q-20 -20 -57 -36.5t-81 -16.5z" />
    <glyph glyph-name="uacute" unicode="&#xfa;" horiz-adv-x="600" 
d="M325 550h-65l65 150h105zM285 -10q-104 0 -167 79q-43 53 -43 161v240h95v-255q0 -62 27 -94q34 -41 91 -41q75 0 132 67v323h95v-470h-92v43q-20 -20 -57 -36.5t-81 -16.5z" />
    <glyph glyph-name="ucircumflex" unicode="&#xfb;" horiz-adv-x="600" 
d="M210 550h-65l95 150h110l95 -150h-65l-85 94zM285 -10q-104 0 -167 79q-43 53 -43 161v240h95v-255q0 -62 27 -94q34 -41 91 -41q75 0 132 67v323h95v-470h-92v43q-20 -20 -57 -36.5t-81 -16.5z" />
    <glyph glyph-name="udieresis" unicode="&#xfc;" horiz-adv-x="600" 
d="M140 617q0 26 18 44.5t44 18.5t44.5 -18.5t18.5 -44.5t-18.5 -44t-44.5 -18t-44 18t-18 44zM325 617q0 26 18 44.5t44 18.5t44.5 -18.5t18.5 -44.5t-18.5 -44t-44.5 -18t-44 18t-18 44zM285 -10q-104 0 -167 79q-43 53 -43 161v240h95v-255q0 -62 27 -94q34 -41 91 -41
q75 0 132 67v323h95v-470h-92v43q-20 -20 -57 -36.5t-81 -16.5z" />
    <glyph glyph-name="yacute" unicode="&#xfd;" horiz-adv-x="509" 
d="M185 -240h-101l127 289l-201 421h102l147 -310l135 310h100zM287 550h-65l65 150h105z" />
    <glyph glyph-name="thorn" unicode="&#xfe;" horiz-adv-x="605" 
d="M85 710h95v-281q61 51 144 51q64 0 115 -30q55 -32 88 -89t33 -126t-32.5 -125.5t-87.5 -88.5q-52 -31 -118 -31q-83 0 -142 51v-281h-95v950zM180 323v-176q50 -67 129 -67q67 0 111.5 45.5t44.5 109.5t-42.5 109.5t-108.5 45.5q-83 0 -134 -67z" />
    <glyph glyph-name="ydieresis" unicode="&#xff;" horiz-adv-x="509" 
d="M185 -240h-101l127 289l-201 421h102l147 -310l135 310h100zM94 617q0 26 18 44.5t44 18.5t44.5 -18.5t18.5 -44.5t-18.5 -44t-44.5 -18t-44 18t-18 44zM279 617q0 26 18 44.5t44 18.5t44.5 -18.5t18.5 -44.5t-18.5 -44t-44.5 -18t-44 18t-18 44z" />
    <glyph glyph-name="Amacron" unicode="&#x100;" horiz-adv-x="660" 
d="M180 860h300v-85h-300v85zM551 0l-74 180h-295l-73 -180h-104l290 700h70l290 -700h-104zM330 535l-108 -260h216z" />
    <glyph glyph-name="amacron" unicode="&#x101;" horiz-adv-x="605" 
d="M160 660h300v-85h-300v85zM428 0v43q-59 -53 -145 -53q-66 0 -118 31q-55 32 -87.5 88.5t-32.5 125.5t33 126t88 89q51 30 115 30q85 0 147 -53v43h92v-470h-92zM425 147v176q-51 67 -134 67q-66 0 -108.5 -45.5t-42.5 -109.5t44.5 -109.5t111.5 -45.5q79 0 129 67z" />
    <glyph glyph-name="Abreve" unicode="&#x102;" horiz-adv-x="660" 
d="M390 900h80q0 -58 -41 -99t-99 -41t-99 41t-41 99h80q0 -25 17.5 -42.5t42.5 -17.5t42.5 17.5t17.5 42.5zM551 0l-74 180h-295l-73 -180h-104l290 700h70l290 -700h-104zM330 535l-108 -260h216z" />
    <glyph glyph-name="abreve" unicode="&#x103;" horiz-adv-x="605" 
d="M365 700h80q0 -58 -41 -99t-99 -41t-99 41t-41 99h80q0 -25 17.5 -42.5t42.5 -17.5t42.5 17.5t17.5 42.5zM428 0v43q-59 -53 -145 -53q-66 0 -118 31q-55 32 -87.5 88.5t-32.5 125.5t33 126t88 89q51 30 115 30q85 0 147 -53v43h92v-470h-92zM425 147v176q-51 67 -134 67
q-66 0 -108.5 -45.5t-42.5 -109.5t44.5 -109.5t111.5 -45.5q79 0 129 67z" />
    <glyph glyph-name="Aogonek" unicode="&#x104;" horiz-adv-x="660" 
d="M365 700l290 -700q-33 -52 -33 -86q0 -21 13 -32.5t34 -11.5q13 0 23 4l15 -85q-21 -9 -55 -9q-54 0 -89.5 34.5t-35.5 85.5q0 52 26 94l-76 186h-295l-73 -180h-104l290 700h70zM330 535l-108 -260h216z" />
    <glyph glyph-name="aogonek" unicode="&#x105;" horiz-adv-x="605" 
d="M387 -100q0 34 13 66t28 48v29q-59 -53 -145 -53q-66 0 -118 31q-55 32 -87.5 88.5t-32.5 125.5t33 126t88 89q51 30 115 30q85 0 147 -53v43h92v-470h-7q-31 -46 -31 -86q0 -21 13 -32.5t34 -11.5q13 0 23 4l15 -85q-21 -9 -55 -9q-54 0 -89.5 34.5t-35.5 85.5zM425 147
v176q-51 67 -134 67q-66 0 -108.5 -45.5t-42.5 -109.5t44.5 -109.5t111.5 -45.5q79 0 129 67z" />
    <glyph glyph-name="Cacute" unicode="&#x106;" horiz-adv-x="690" 
d="M35 350q0 152 101.5 256t252.5 104q75 0 142.5 -28.5t113.5 -79.5l-67 -66q-32 35 -83 57t-106 22q-108 0 -181 -76t-73 -189q0 -127 74.5 -196t188.5 -69q119 0 201 99l71 -64q-46 -59 -119 -94.5t-153 -35.5q-157 0 -260 102.5t-103 257.5zM405 750h-65l65 150h105z
" />
    <glyph glyph-name="cacute" unicode="&#x107;" horiz-adv-x="530" 
d="M432 153l73 -53q-29 -49 -87 -79.5t-122 -30.5q-108 0 -179.5 70t-71.5 175t70 175t175 70q60 0 113 -27.5t87 -74.5l-70 -59q-51 71 -130 71q-64 0 -107 -44t-43 -111q0 -69 44 -112t112 -43q81 0 136 73zM310 550h-65l65 150h105z" />
    <glyph glyph-name="Ccircumflex" unicode="&#x108;" horiz-adv-x="690" 
d="M35 350q0 152 101.5 256t252.5 104q75 0 142.5 -28.5t113.5 -79.5l-67 -66q-32 35 -83 57t-106 22q-108 0 -181 -76t-73 -189q0 -127 74.5 -196t188.5 -69q119 0 201 99l71 -64q-46 -59 -119 -94.5t-153 -35.5q-157 0 -260 102.5t-103 257.5zM299 750h-65l95 150h110
l95 -150h-65l-85 94z" />
    <glyph glyph-name="ccircumflex" unicode="&#x109;" horiz-adv-x="530" 
d="M432 153l73 -53q-29 -49 -87 -79.5t-122 -30.5q-108 0 -179.5 70t-71.5 175t70 175t175 70q60 0 113 -27.5t87 -74.5l-70 -59q-51 71 -130 71q-64 0 -107 -44t-43 -111q0 -69 44 -112t112 -43q81 0 136 73zM195 550h-65l95 150h110l95 -150h-65l-85 94z" />
    <glyph glyph-name="Cdotaccent" unicode="&#x10a;" horiz-adv-x="690" 
d="M35 350q0 152 101.5 256t252.5 104q75 0 142.5 -28.5t113.5 -79.5l-67 -66q-32 35 -83 57t-106 22q-108 0 -181 -76t-73 -189q0 -127 74.5 -196t188.5 -69q119 0 201 99l71 -64q-46 -59 -119 -94.5t-153 -35.5q-157 0 -260 102.5t-103 257.5zM322 837q0 26 18 44.5
t44 18.5t44.5 -18.5t18.5 -44.5t-18.5 -44t-44.5 -18t-44 18t-18 44z" />
    <glyph glyph-name="cdotaccent" unicode="&#x10b;" horiz-adv-x="530" 
d="M432 153l73 -53q-29 -49 -87 -79.5t-122 -30.5q-108 0 -179.5 70t-71.5 175t70 175t175 70q60 0 113 -27.5t87 -74.5l-70 -59q-51 71 -130 71q-64 0 -107 -44t-43 -111q0 -69 44 -112t112 -43q81 0 136 73zM217 637q0 26 18 44.5t44 18.5t44.5 -18.5t18.5 -44.5
t-18.5 -44t-44.5 -18t-44 18t-18 44z" />
    <glyph glyph-name="Ccaron" unicode="&#x10c;" horiz-adv-x="690" 
d="M35 350q0 152 101.5 256t252.5 104q75 0 142.5 -28.5t113.5 -79.5l-67 -66q-32 35 -83 57t-106 22q-108 0 -181 -76t-73 -189q0 -127 74.5 -196t188.5 -69q119 0 201 99l71 -64q-46 -59 -119 -94.5t-153 -35.5q-157 0 -260 102.5t-103 257.5zM224 900h65l85 -94l85 94h65
l-95 -150h-110z" />
    <glyph glyph-name="ccaron" unicode="&#x10d;" horiz-adv-x="530" 
d="M432 153l73 -53q-29 -49 -87 -79.5t-122 -30.5q-108 0 -179.5 70t-71.5 175t70 175t175 70q60 0 113 -27.5t87 -74.5l-70 -59q-51 71 -130 71q-64 0 -107 -44t-43 -111q0 -69 44 -112t112 -43q81 0 136 73zM135 700h65l85 -94l85 94h65l-95 -150h-110z" />
    <glyph glyph-name="Dcaron" unicode="&#x10e;" horiz-adv-x="715" 
d="M580 350q0 121 -85 196q-68 59 -200 59h-105v-510h105q132 0 200 59q85 75 85 196zM300 0h-210v700h210q150 0 240 -66q65 -49 102.5 -123.5t37.5 -160.5t-37 -161t-102 -123q-90 -66 -241 -66zM154 900h65l85 -94l85 94h65l-95 -150h-110z" />
    <glyph glyph-name="dcaron" unicode="&#x10f;" horiz-adv-x="665" 
d="M615 550h-65l65 150h105zM428 0v43q-59 -53 -145 -53q-66 0 -118 31q-55 32 -87.5 88.5t-32.5 125.5t33 126t88 89q51 30 115 30q83 0 144 -51v281h95v-710h-92zM425 147v176q-51 67 -134 67q-66 0 -108.5 -45.5t-42.5 -109.5t44.5 -109.5t111.5 -45.5q79 0 129 67z" />
    <glyph glyph-name="Dcroat" unicode="&#x110;" horiz-adv-x="715" 
d="M300 0h-210v330h-100v95h100v275h210q150 0 240 -66q65 -49 102.5 -123.5t37.5 -160.5t-37 -161t-102 -123q-90 -66 -241 -66zM580 350q0 121 -85 196q-68 59 -200 59h-105v-180h200v-95h-200v-235h105q132 0 200 59q85 75 85 196z" />
    <glyph glyph-name="dcroat" unicode="&#x111;" horiz-adv-x="605" 
d="M428 0v43q-59 -53 -145 -53q-66 0 -118 31q-55 32 -87.5 88.5t-32.5 125.5t33 126t88 89q51 30 115 30q83 0 144 -51v106h-120v85h120v90h95v-90h80v-85h-80v-535h-92zM425 147v176q-51 67 -134 67q-66 0 -108.5 -45.5t-42.5 -109.5t44.5 -109.5t111.5 -45.5q79 0 129 67
z" />
    <glyph glyph-name="Emacron" unicode="&#x112;" horiz-adv-x="540" 
d="M190 425h230v-95h-230v-235h310v-95h-410v700h400v-95h-300v-180zM140 860h300v-85h-300v85z" />
    <glyph glyph-name="emacron" unicode="&#x113;" horiz-adv-x="545" 
d="M124 660h300v-85h-300v85zM499 215h-362q4 -60 47.5 -101t104.5 -41q77 0 135 64l62 -59q-29 -38 -80 -63t-118 -25q-103 0 -173 70t-70 175q0 106 64.5 175.5t164.5 69.5q98 0 162 -70t64 -175q0 -11 -1 -20zM277 397q-46 0 -83 -28.5t-49 -73.5h256q-10 44 -45.5 73
t-78.5 29z" />
    <glyph glyph-name="Ebreve" unicode="&#x114;" horiz-adv-x="540" 
d="M190 425h230v-95h-230v-235h310v-95h-410v700h400v-95h-300v-180zM345 900h85q0 -58 -41 -99t-99 -41t-99 41t-41 99h85q0 -22 16.5 -38.5t38.5 -16.5t38.5 16.5t16.5 38.5z" />
    <glyph glyph-name="ebreve" unicode="&#x115;" horiz-adv-x="545" 
d="M334 700h85q0 -58 -41 -99t-99 -41t-99 41t-41 99h85q0 -22 16 -38.5t39 -16.5t39 16.5t16 38.5zM499 215h-362q4 -60 47.5 -101t104.5 -41q77 0 135 64l62 -59q-29 -38 -80 -63t-118 -25q-103 0 -173 70t-70 175q0 106 64.5 175.5t164.5 69.5q98 0 162 -70t64 -175
q0 -11 -1 -20zM277 397q-46 0 -83 -28.5t-49 -73.5h256q-10 44 -45.5 73t-78.5 29z" />
    <glyph glyph-name="Edotaccent" unicode="&#x116;" horiz-adv-x="540" 
d="M190 425h230v-95h-230v-235h310v-95h-410v700h400v-95h-300v-180zM228 837q0 26 18 44.5t44 18.5t44.5 -18.5t18.5 -44.5t-18.5 -44t-44.5 -18t-44 18t-18 44z" />
    <glyph glyph-name="edotaccent" unicode="&#x117;" horiz-adv-x="545" 
d="M212 637q0 26 18 44.5t44 18.5t44.5 -18.5t18.5 -44.5t-18.5 -44t-44.5 -18t-44 18t-18 44zM499 215h-362q4 -60 47.5 -101t104.5 -41q77 0 135 64l62 -59q-29 -38 -80 -63t-118 -25q-103 0 -173 70t-70 175q0 106 64.5 175.5t164.5 69.5q98 0 162 -70t64 -175
q0 -11 -1 -20zM277 397q-46 0 -83 -28.5t-49 -73.5h256q-10 44 -45.5 73t-78.5 29z" />
    <glyph glyph-name="Eogonek" unicode="&#x118;" horiz-adv-x="540" 
d="M190 425h230v-95h-230v-235h310v-95h-154q-31 -46 -31 -86q0 -21 13 -32.5t34 -11.5q13 0 23 4l15 -85q-21 -9 -55 -9q-54 0 -89.5 34.5t-35.5 85.5q0 55 30 100h-160v700h400v-95h-300v-180z" />
    <glyph glyph-name="eogonek" unicode="&#x119;" horiz-adv-x="545" 
d="M499 215h-362q4 -60 47.5 -101t104.5 -41q77 0 135 64l62 -59q-37 -49 -101 -72q-35 -50 -35 -92q0 -21 13 -32.5t34 -11.5q13 0 23 4l15 -85q-21 -9 -55 -9q-54 0 -89.5 34.5t-35.5 85.5t24 90q-100 4 -167 73t-67 172q0 106 64.5 175.5t164.5 69.5q98 0 162 -70
t64 -175q0 -11 -1 -20zM277 397q-46 0 -83 -28.5t-49 -73.5h256q-10 44 -45.5 73t-78.5 29z" />
    <glyph glyph-name="Ecaron" unicode="&#x11a;" horiz-adv-x="540" 
d="M190 425h230v-95h-230v-235h310v-95h-410v700h400v-95h-300v-180zM140 900h65l85 -94l85 94h65l-95 -150h-110z" />
    <glyph glyph-name="ecaron" unicode="&#x11b;" horiz-adv-x="545" 
d="M127 700h65l85 -94l85 94h65l-95 -150h-110zM499 215h-362q4 -60 47.5 -101t104.5 -41q77 0 135 64l62 -59q-29 -38 -80 -63t-118 -25q-103 0 -173 70t-70 175q0 106 64.5 175.5t164.5 69.5q98 0 162 -70t64 -175q0 -11 -1 -20zM277 397q-46 0 -83 -28.5t-49 -73.5h256
q-10 44 -45.5 73t-78.5 29z" />
    <glyph glyph-name="Gcircumflex" unicode="&#x11c;" horiz-adv-x="735" 
d="M670 425v-305q-46 -58 -119.5 -94t-152.5 -36q-157 0 -260 102.5t-103 257.5q0 152 101.5 256t252.5 104q75 0 142.5 -28.5t113.5 -79.5l-67 -66q-32 35 -83 57t-106 22q-108 0 -181 -76t-73 -189q0 -117 75 -191t188 -74q107 0 172 65v180h-200v95h300zM289 750h-65
l95 150h110l95 -150h-65l-85 94z" />
    <glyph glyph-name="gcircumflex" unicode="&#x11d;" horiz-adv-x="605" 
d="M222 550h-65l95 150h110l95 -150h-65l-85 94zM425 41q-59 -51 -142 -51q-66 0 -118 31q-55 32 -87.5 88.5t-32.5 125.5t33 126t88 89q51 30 115 30q85 0 147 -53v43h92v-450q0 -99 -28 -154q-29 -55 -81.5 -85.5t-121.5 -30.5q-83 0 -142.5 33t-86.5 76l70 65
q63 -84 155 -84q79 0 114 54q26 40 26 121v26zM425 147v176q-51 67 -134 67q-66 0 -108.5 -45.5t-42.5 -109.5t44.5 -109.5t111.5 -45.5q79 0 129 67z" />
    <glyph glyph-name="Gbreve" unicode="&#x11e;" horiz-adv-x="735" 
d="M670 425v-305q-46 -58 -119.5 -94t-152.5 -36q-157 0 -260 102.5t-103 257.5q0 152 101.5 256t252.5 104q75 0 142.5 -28.5t113.5 -79.5l-67 -66q-32 35 -83 57t-106 22q-108 0 -181 -76t-73 -189q0 -117 75 -191t188 -74q107 0 172 65v180h-200v95h300zM434 900h80
q0 -58 -41 -99t-99 -41t-99 41t-41 99h80q0 -25 17.5 -42.5t42.5 -17.5t42.5 17.5t17.5 42.5z" />
    <glyph glyph-name="gbreve" unicode="&#x11f;" horiz-adv-x="605" 
d="M365 700h80q0 -58 -41 -99t-99 -41t-99 41t-41 99h80q0 -25 17.5 -42.5t42.5 -17.5t42.5 17.5t17.5 42.5zM425 41q-59 -51 -142 -51q-66 0 -118 31q-55 32 -87.5 88.5t-32.5 125.5t33 126t88 89q51 30 115 30q85 0 147 -53v43h92v-450q0 -99 -28 -154
q-29 -55 -81.5 -85.5t-121.5 -30.5q-83 0 -142.5 33t-86.5 76l70 65q63 -84 155 -84q79 0 114 54q26 40 26 121v26zM425 147v176q-51 67 -134 67q-66 0 -108.5 -45.5t-42.5 -109.5t44.5 -109.5t111.5 -45.5q79 0 129 67z" />
    <glyph glyph-name="Gdotaccent" unicode="&#x120;" horiz-adv-x="735" 
d="M670 425v-305q-46 -58 -119.5 -94t-152.5 -36q-157 0 -260 102.5t-103 257.5q0 152 101.5 256t252.5 104q75 0 142.5 -28.5t113.5 -79.5l-67 -66q-32 35 -83 57t-106 22q-108 0 -181 -76t-73 -189q0 -117 75 -191t188 -74q107 0 172 65v180h-200v95h300zM312 837
q0 26 18 44.5t44 18.5t44.5 -18.5t18.5 -44.5t-18.5 -44t-44.5 -18t-44 18t-18 44z" />
    <glyph glyph-name="gdotaccent" unicode="&#x121;" horiz-adv-x="605" 
d="M218 637q0 26 18 44.5t44 18.5t44.5 -18.5t18.5 -44.5t-18.5 -44t-44.5 -18t-44 18t-18 44zM425 41q-59 -51 -142 -51q-66 0 -118 31q-55 32 -87.5 88.5t-32.5 125.5t33 126t88 89q51 30 115 30q85 0 147 -53v43h92v-450q0 -99 -28 -154q-29 -55 -81.5 -85.5
t-121.5 -30.5q-83 0 -142.5 33t-86.5 76l70 65q63 -84 155 -84q79 0 114 54q26 40 26 121v26zM425 147v176q-51 67 -134 67q-66 0 -108.5 -45.5t-42.5 -109.5t44.5 -109.5t111.5 -45.5q79 0 129 67z" />
    <glyph glyph-name="Gcommaaccent" unicode="&#x122;" horiz-adv-x="735" 
d="M670 425v-305q-46 -58 -119.5 -94t-152.5 -36q-157 0 -260 102.5t-103 257.5q0 152 101.5 256t252.5 104q75 0 142.5 -28.5t113.5 -79.5l-67 -66q-32 35 -83 57t-106 22q-108 0 -181 -76t-73 -189q0 -117 75 -191t188 -74q107 0 172 65v180h-200v95h300zM348 -200h-65
l65 150h105z" />
    <glyph glyph-name="gcommaaccent" unicode="&#x123;" horiz-adv-x="605" 
d="M334 700h65l-65 -150h-105zM425 41q-59 -51 -142 -51q-66 0 -118 31q-55 32 -87.5 88.5t-32.5 125.5t33 126t88 89q51 30 115 30q85 0 147 -53v43h92v-450q0 -99 -28 -154q-29 -55 -81.5 -85.5t-121.5 -30.5q-83 0 -142.5 33t-86.5 76l70 65q63 -84 155 -84q79 0 114 54
q26 40 26 121v26zM425 147v176q-51 67 -134 67q-66 0 -108.5 -45.5t-42.5 -109.5t44.5 -109.5t111.5 -45.5q79 0 129 67z" />
    <glyph glyph-name="Hcircumflex" unicode="&#x124;" horiz-adv-x="770" 
d="M580 0v330h-390v-330h-100v700h100v-275h390v275h100v-700h-100zM300 750h-65l95 150h110l95 -150h-65l-85 94z" />
    <glyph glyph-name="hcircumflex" unicode="&#x125;" horiz-adv-x="610" 
d="M67 760h-65l95 150h110l95 -150h-65l-85 94zM180 710v-281q60 51 138 51q106 0 171 -83q46 -58 46 -167v-230h-95v235q0 74 -28 109q-36 46 -97 46q-80 0 -135 -67v-323h-95v710h95z" />
    <glyph glyph-name="Hbar" unicode="&#x126;" horiz-adv-x="770" 
d="M680 525v-525h-100v330h-390v-330h-100v525h-90v95h90v80h100v-80h390v80h100v-80h90v-95h-90zM190 425h390v100h-390v-100z" />
    <glyph glyph-name="hbar" unicode="&#x127;" horiz-adv-x="610" 
d="M180 710v-90h120v-85h-120v-106q60 51 138 51q106 0 171 -83q46 -58 46 -167v-230h-95v235q0 74 -28 109q-36 46 -97 46q-80 0 -135 -67v-323h-95v535h-80v85h80v90h95z" />
    <glyph glyph-name="Itilde" unicode="&#x128;" horiz-adv-x="280" 
d="M95 0v700h100v-700h-100zM35 760l-65 21q2 46 29.5 77.5t71.5 31.5q27 0 72 -22.5t64 -22.5q30 0 38 45l65 -21q-2 -46 -29.5 -77.5t-71.5 -31.5q-27 0 -72 22.5t-64 22.5q-30 0 -38 -45z" />
    <glyph glyph-name="itilde" unicode="&#x129;" horiz-adv-x="265" 
d="M85 0v470h95v-470h-95zM27 560l-65 21q2 46 29.5 77.5t71.5 31.5q27 0 72 -22.5t64 -22.5q30 0 38 45l65 -21q-2 -46 -29.5 -77.5t-71.5 -31.5q-27 0 -72 22.5t-64 22.5q-30 0 -38 -45z" />
    <glyph glyph-name="Imacron" unicode="&#x12a;" horiz-adv-x="280" 
d="M95 0v700h100v-700h-100zM-10 860h300v-85h-300v85z" />
    <glyph glyph-name="imacron" unicode="&#x12b;" horiz-adv-x="265" 
d="M85 0v470h95v-470h-95zM-18 660h300v-85h-300v85z" />
    <glyph glyph-name="Ibreve" unicode="&#x12c;" horiz-adv-x="280" 
d="M95 0v700h100v-700h-100zM200 900h85q0 -58 -41 -99t-99 -41t-99 41t-41 99h85q0 -22 16 -38.5t39 -16.5t39 16.5t16 38.5z" />
    <glyph glyph-name="ibreve" unicode="&#x12d;" horiz-adv-x="265" 
d="M85 0v470h95v-470h-95zM187 700h85q0 -58 -41 -99t-99 -41t-99 41t-41 99h85q0 -22 16.5 -38.5t38.5 -16.5t38.5 16.5t16.5 38.5z" />
    <glyph glyph-name="Iogonek" unicode="&#x12e;" horiz-adv-x="280" 
d="M90 10v690h100v-700h-12q-31 -46 -31 -86q0 -21 13 -32.5t34 -11.5q13 0 23 4l15 -85q-21 -9 -55 -9q-54 0 -89.5 34.5t-35.5 85.5q0 64 38 110z" />
    <glyph glyph-name="iogonek" unicode="&#x12f;" horiz-adv-x="265" 
d="M85 10v460h95v-470h-7q-31 -46 -31 -86q0 -21 13 -32.5t34 -11.5q13 0 23 4l15 -85q-21 -9 -55 -9q-54 0 -89.5 34.5t-35.5 85.5q0 64 38 110zM70 637q0 26 18 44.5t44 18.5t44.5 -18.5t18.5 -44.5t-18.5 -44t-44.5 -18t-44 18t-18 44z" />
    <glyph glyph-name="Idotaccent" unicode="&#x130;" horiz-adv-x="280" 
d="M95 0v700h100v-700h-100zM83 837q0 26 18 44.5t44 18.5t44.5 -18.5t18.5 -44.5t-18.5 -44t-44.5 -18t-44 18t-18 44z" />
    <glyph glyph-name="dotlessi" unicode="&#x131;" horiz-adv-x="265" 
d="M85 0v470h95v-470h-95z" />
    <glyph glyph-name="IJ" unicode="&#x132;" horiz-adv-x="740" 
d="M90 0v700h100v-700h-100zM280 103l89 38q12 -26 37 -41t56 -15q50 0 79 39q19 25 19 79v497h100v-490q0 -76 -24 -119q-26 -46 -72.5 -73.5t-101.5 -27.5q-61 0 -110.5 30t-71.5 83z" />
    <glyph glyph-name="ij" unicode="&#x133;" horiz-adv-x="535" 
d="M85 0v470h95v-470h-95zM70 637q0 26 18 44.5t44 18.5t44.5 -18.5t18.5 -44.5t-18.5 -44t-44.5 -18t-44 18t-18 44zM340 637q0 26 18 44.5t44 18.5t44.5 -18.5t18.5 -44.5t-18.5 -44t-44.5 -18t-44 18t-18 44zM355 -43v513h95v-510q0 -89 -30 -132q-54 -78 -154 -78
q-33 0 -56 7l20 87q14 -4 35 -4q47 0 72 33q18 24 18 84z" />
    <glyph glyph-name="Jcircumflex" unicode="&#x134;" horiz-adv-x="460" 
d="M0 103l89 38q12 -26 37 -41t56 -15q50 0 79 39q19 25 19 79v497h100v-490q0 -76 -24 -119q-26 -46 -72.5 -73.5t-101.5 -27.5q-61 0 -110.5 30t-71.5 83zM225 750h-65l95 150h110l95 -150h-65l-85 94z" />
    <glyph glyph-name="jcircumflex" unicode="&#x135;" horiz-adv-x="285" 
d="M47 550h-65l95 150h110l95 -150h-65l-85 94zM105 -43v513h95v-510q0 -89 -30 -132q-54 -78 -154 -78q-33 0 -56 7l20 87q14 -4 35 -4q47 0 72 33q18 24 18 84z" />
    <glyph glyph-name="Kcommaaccent" unicode="&#x136;" horiz-adv-x="650" 
d="M90 0v700h100v-295l288 295h132l-316 -325l336 -375h-128l-312 350v-350h-100zM294 -200h-65l65 150h105z" />
    <glyph glyph-name="kcommaaccent" unicode="&#x137;" horiz-adv-x="550" 
d="M275 258l265 -258h-127l-233 230v-230h-95v710h95v-420l196 180h134zM234 -200h-65l65 150h105z" />
    <glyph glyph-name="kgreenlandic" unicode="&#x138;" horiz-adv-x="550" 
d="M275 258l265 -258h-127l-233 230v-230h-95v470h95v-180l196 180h134z" />
    <glyph glyph-name="Lacute" unicode="&#x139;" horiz-adv-x="520" 
d="M190 700v-605h310v-95h-410v700h100zM165 750h-65l65 150h105z" />
    <glyph glyph-name="lacute" unicode="&#x13a;" horiz-adv-x="265" 
d="M85 0v710h95v-710h-95zM156 760h-65l65 150h105z" />
    <glyph glyph-name="Lcommaaccent" unicode="&#x13b;" horiz-adv-x="520" 
d="M190 700v-605h310v-95h-410v700h100zM244 -200h-65l65 150h105z" />
    <glyph glyph-name="lcommaaccent" unicode="&#x13c;" horiz-adv-x="265" 
d="M85 0v710h95v-710h-95zM80 -200h-65l65 150h105z" />
    <glyph glyph-name="Lcaron" unicode="&#x13d;" horiz-adv-x="520" 
d="M190 700v-605h310v-95h-410v700h100zM285 550h-65l65 150h105z" />
    <glyph glyph-name="lcaron" unicode="&#x13e;" horiz-adv-x="335" 
d="M85 0v710h95v-710h-95zM285 550h-65l65 150h105z" />
    <glyph glyph-name="Ldot" unicode="&#x13f;" horiz-adv-x="520" 
d="M190 700v-605h310v-95h-410v700h100zM270 350q0 26 18 44.5t44 18.5t44.5 -18.5t18.5 -44.5t-18.5 -44t-44.5 -18t-44 18t-18 44z" />
    <glyph glyph-name="ldot" unicode="&#x140;" horiz-adv-x="305" 
d="M85 0v710h95v-710h-95zM220 350q0 26 18 44.5t44 18.5t44.5 -18.5t18.5 -44.5t-18.5 -44t-44.5 -18t-44 18t-18 44z" />
    <glyph glyph-name="Lslash" unicode="&#x141;" horiz-adv-x="520" 
d="M190 700v-240l150 87v-108l-150 -87v-257h310v-95h-410v294l-100 -57v108l100 57v298h100z" />
    <glyph glyph-name="lslash" unicode="&#x142;" horiz-adv-x="265" 
d="M85 0v298l-100 -58v104l100 58v308h95v-253l100 58v-104l-100 -58v-353h-95z" />
    <glyph glyph-name="Nacute" unicode="&#x143;" horiz-adv-x="770" 
d="M610 0l-420 514v-514h-100v700h70l420 -514v514h100v-700h-70zM405 750h-65l65 150h105z" />
    <glyph glyph-name="nacute" unicode="&#x144;" horiz-adv-x="610" 
d="M320 550h-65l65 150h105zM177 470v-45q57 55 141 55q106 0 171 -83q46 -58 46 -167v-230h-95v235q0 74 -28 109q-36 46 -97 46q-80 0 -135 -67v-323h-95v470h92z" />
    <glyph glyph-name="Ncommaaccent" unicode="&#x145;" horiz-adv-x="770" 
d="M610 0l-420 514v-514h-100v700h70l420 -514v514h100v-700h-70zM334 -200h-65l65 150h105z" />
    <glyph glyph-name="ncommaaccent" unicode="&#x146;" horiz-adv-x="610" 
d="M254 -200h-65l65 150h105zM177 470v-45q57 55 141 55q106 0 171 -83q46 -58 46 -167v-230h-95v235q0 74 -28 109q-36 46 -97 46q-80 0 -135 -67v-323h-95v470h92z" />
    <glyph glyph-name="Ncaron" unicode="&#x147;" horiz-adv-x="770" 
d="M610 0l-420 514v-514h-100v700h70l420 -514v514h100v-700h-70zM225 900h65l85 -94l85 94h65l-95 -150h-110z" />
    <glyph glyph-name="ncaron" unicode="&#x148;" horiz-adv-x="610" 
d="M165 700h65l85 -94l85 94h65l-95 -150h-110zM177 470v-45q57 55 141 55q106 0 171 -83q46 -58 46 -167v-230h-95v235q0 74 -28 109q-36 46 -97 46q-80 0 -135 -67v-323h-95v470h92z" />
    <glyph glyph-name="napostrophe" unicode="&#x149;" horiz-adv-x="610" 
d="M150 550h-65l65 150h105zM177 470v-45q57 55 141 55q106 0 171 -83q46 -58 46 -167v-230h-95v235q0 74 -28 109q-36 46 -97 46q-80 0 -135 -67v-323h-95v470h92z" />
    <glyph glyph-name="Eng" unicode="&#x14a;" horiz-adv-x="770" 
d="M300 -137l89 38q12 -26 37 -41t56 -15q50 0 79 39q19 25 19 79v73l-390 478v-514h-100v700h70l420 -514v514h100v-730q0 -75 -24 -119q-26 -46 -72.5 -73.5t-101.5 -27.5q-61 0 -110.5 30t-71.5 83z" />
    <glyph glyph-name="eng" unicode="&#x14b;" horiz-adv-x="610" 
d="M177 470v-45q57 55 141 55q106 0 171 -83q46 -58 46 -167v-270q0 -88 -30 -133q-24 -37 -63.5 -57t-86.5 -20q-64 0 -105 25l40 78q24 -13 58 -13q49 0 73 32q19 25 19 85v278q0 74 -28 109q-36 46 -97 46q-80 0 -135 -67v-323h-95v470h92z" />
    <glyph glyph-name="Omacron" unicode="&#x14c;" horiz-adv-x="770" 
d="M35 350q0 153 100.5 256.5t249.5 103.5t249.5 -103.5t100.5 -256.5t-100.5 -256.5t-249.5 -103.5t-249.5 103.5t-100.5 256.5zM135 350q0 -114 71.5 -189.5t178.5 -75.5t178.5 75.5t71.5 189.5q0 113 -71.5 189t-178.5 76t-178.5 -76t-71.5 -189zM235 860h300v-85h-300
v85z" />
    <glyph glyph-name="omacron" unicode="&#x14d;" horiz-adv-x="576" 
d="M45 235q0 105 69.5 175t173.5 70t173.5 -70t69.5 -175t-69.5 -175t-173.5 -70t-173.5 70t-69.5 175zM140 235q0 -65 42 -110t106 -45t106 45t42 110t-42 110t-106 45t-106 -45t-42 -110zM138 660h300v-85h-300v85z" />
    <glyph glyph-name="Obreve" unicode="&#x14e;" horiz-adv-x="770" 
d="M35 350q0 153 100.5 256.5t249.5 103.5t249.5 -103.5t100.5 -256.5t-100.5 -256.5t-249.5 -103.5t-249.5 103.5t-100.5 256.5zM135 350q0 -114 71.5 -189.5t178.5 -75.5t178.5 75.5t71.5 189.5q0 113 -71.5 189t-178.5 76t-178.5 -76t-71.5 -189zM445 900h80
q0 -58 -41 -99t-99 -41t-99 41t-41 99h80q0 -25 17.5 -42.5t42.5 -17.5t42.5 17.5t17.5 42.5z" />
    <glyph glyph-name="obreve" unicode="&#x14f;" horiz-adv-x="576" 
d="M45 235q0 105 69.5 175t173.5 70t173.5 -70t69.5 -175t-69.5 -175t-173.5 -70t-173.5 70t-69.5 175zM140 235q0 -65 42 -110t106 -45t106 45t42 110t-42 110t-106 45t-106 -45t-42 -110zM348 700h80q0 -58 -41 -99t-99 -41t-99 41t-41 99h80q0 -25 17.5 -42.5t42.5 -17.5
t42.5 17.5t17.5 42.5z" />
    <glyph glyph-name="Ohungarumlaut" unicode="&#x150;" horiz-adv-x="770" 
d="M35 350q0 153 100.5 256.5t249.5 103.5t249.5 -103.5t100.5 -256.5t-100.5 -256.5t-249.5 -103.5t-249.5 103.5t-100.5 256.5zM135 350q0 -114 71.5 -189.5t178.5 -75.5t178.5 75.5t71.5 189.5q0 113 -71.5 189t-178.5 76t-178.5 -76t-71.5 -189zM325 750h-65l65 150h105
zM510 750h-65l65 150h105z" />
    <glyph glyph-name="ohungarumlaut" unicode="&#x151;" horiz-adv-x="576" 
d="M45 235q0 105 69.5 175t173.5 70t173.5 -70t69.5 -175t-69.5 -175t-173.5 -70t-173.5 70t-69.5 175zM140 235q0 -65 42 -110t106 -45t106 45t42 110t-42 110t-106 45t-106 -45t-42 -110zM228 550h-65l65 150h105zM413 550h-65l65 150h105z" />
    <glyph glyph-name="OE" unicode="&#x152;" horiz-adv-x="1085" 
d="M35 350q0 153 100.5 256.5t249.5 103.5t250 -107v97h400v-95h-300v-180h230v-95h-230v-235h310v-95h-410v97q-99 -107 -250 -107q-149 0 -249.5 103.5t-100.5 256.5zM385 85q107 0 178.5 75.5t71.5 189.5q0 113 -71.5 189t-178.5 76t-178.5 -76t-71.5 -189
q0 -114 71.5 -189.5t178.5 -75.5z" />
    <glyph glyph-name="oe" unicode="&#x153;" horiz-adv-x="936" 
d="M890 215h-362q4 -60 47.5 -101t104.5 -41q77 0 135 64l62 -59q-29 -38 -80 -63t-118 -25q-62 0 -113 27t-83 74q-31 -47 -82 -74t-113 -27q-104 0 -173.5 70t-69.5 175t69.5 175t173.5 70q123 0 193 -98q64 98 184 98q98 0 162 -70t64 -175q0 -11 -1 -20zM140 235
q0 -65 42 -110t106 -45t106 45t42 110t-42 110t-106 45t-106 -45t-42 -110zM668 397q-46 0 -83 -28.5t-49 -73.5h256q-10 44 -45.5 73t-78.5 29z" />
    <glyph glyph-name="Racute" unicode="&#x154;" horiz-adv-x="640" 
d="M270 330h-80v-330h-100v700h245q86 0 136 -41q69 -56 69 -144t-69 -144q-35 -29 -82 -37l251 -334h-121zM190 425h140q58 0 84 26t26 64t-26 64t-84 26h-140v-180zM325 750h-65l65 150h105z" />
    <glyph glyph-name="racute" unicode="&#x155;" horiz-adv-x="370" 
d="M215 550h-65l65 150h105zM355 477l-11 -91q-15 4 -37 4q-36 0 -71.5 -22.5t-55.5 -56.5v-311h-95v470h92v-54q19 27 56 45.5t85 18.5q20 0 37 -3z" />
    <glyph glyph-name="Rcommaaccent" unicode="&#x156;" horiz-adv-x="640" 
d="M270 330h-80v-330h-100v700h245q86 0 136 -41q69 -56 69 -144t-69 -144q-35 -29 -82 -37l251 -334h-121zM190 425h140q58 0 84 26t26 64t-26 64t-84 26h-140v-180zM294 -200h-65l65 150h105z" />
    <glyph glyph-name="rcommaaccent" unicode="&#x157;" horiz-adv-x="370" 
d="M80 -200h-65l65 150h105zM355 477l-11 -91q-15 4 -37 4q-36 0 -71.5 -22.5t-55.5 -56.5v-311h-95v470h92v-54q19 27 56 45.5t85 18.5q20 0 37 -3z" />
    <glyph glyph-name="Rcaron" unicode="&#x158;" horiz-adv-x="640" 
d="M270 330h-80v-330h-100v700h245q86 0 136 -41q69 -56 69 -144t-69 -144q-35 -29 -82 -37l251 -334h-121zM190 425h140q58 0 84 26t26 64t-26 64t-84 26h-140v-180zM149 900h65l85 -94l85 94h65l-95 -150h-110z" />
    <glyph glyph-name="rcaron" unicode="&#x159;" horiz-adv-x="370" 
d="M80 700h65l85 -94l85 94h65l-95 -150h-110zM355 477l-11 -91q-15 4 -37 4q-36 0 -71.5 -22.5t-55.5 -56.5v-311h-95v470h92v-54q19 27 56 45.5t85 18.5q20 0 37 -3z" />
    <glyph glyph-name="Sacute" unicode="&#x15a;" horiz-adv-x="532" 
d="M30 107l69 68q74 -90 171 -90q50 0 86 29.5t36 75.5q0 48 -36.5 77t-106 56.5t-98.5 46.5q-89 59 -89 154q0 77 60.5 131.5t151.5 54.5q104 0 188 -70l-59 -73q-57 48 -125 48q-47 0 -81.5 -25.5t-34.5 -68.5q0 -40 37 -66.5t104.5 -54t97.5 -47.5q91 -60 91 -160
q0 -91 -62 -147t-155 -56q-148 0 -245 117zM285 750h-65l65 150h105z" />
    <glyph glyph-name="sacute" unicode="&#x15b;" horiz-adv-x="455" 
d="M40 55l49 70q67 -52 139 -52q33 0 57.5 16.5t24.5 42.5q0 15 -8 26.5t-24.5 19t-32 12t-41 11t-41.5 11.5q-108 36 -108 121q0 71 52 109t122 38q92 0 156 -52l-49 -68q-49 37 -101 37q-36 0 -60.5 -16t-24.5 -43q0 -22 20.5 -33t63.5 -22q34 -9 59 -18.5t53 -26.5
t43.5 -43.5t15.5 -60.5q0 -64 -51.5 -104t-123.5 -40q-110 0 -190 65zM250 550h-65l65 150h105z" />
    <glyph glyph-name="Scircumflex" unicode="&#x15c;" horiz-adv-x="532" 
d="M30 107l69 68q74 -90 171 -90q50 0 86 29.5t36 75.5q0 48 -36.5 77t-106 56.5t-98.5 46.5q-89 59 -89 154q0 77 60.5 131.5t151.5 54.5q104 0 188 -70l-59 -73q-57 48 -125 48q-47 0 -81.5 -25.5t-34.5 -68.5q0 -40 37 -66.5t104.5 -54t97.5 -47.5q91 -60 91 -160
q0 -91 -62 -147t-155 -56q-148 0 -245 117zM189 750h-65l95 150h110l95 -150h-65l-85 94z" />
    <glyph glyph-name="scircumflex" unicode="&#x15d;" horiz-adv-x="455" 
d="M40 55l49 70q67 -52 139 -52q33 0 57.5 16.5t24.5 42.5q0 15 -8 26.5t-24.5 19t-32 12t-41 11t-41.5 11.5q-108 36 -108 121q0 71 52 109t122 38q92 0 156 -52l-49 -68q-49 37 -101 37q-36 0 -60.5 -16t-24.5 -43q0 -22 20.5 -33t63.5 -22q34 -9 59 -18.5t53 -26.5
t43.5 -43.5t15.5 -60.5q0 -64 -51.5 -104t-123.5 -40q-110 0 -190 65zM147 550h-65l95 150h110l95 -150h-65l-85 94z" />
    <glyph glyph-name="Scedilla" unicode="&#x15e;" horiz-adv-x="532" 
d="M30 107l69 68q74 -90 171 -90q50 0 86 29.5t36 75.5q0 48 -36.5 77t-106 56.5t-98.5 46.5q-89 59 -89 154q0 77 60.5 131.5t151.5 54.5q104 0 188 -70l-59 -73q-57 48 -125 48q-47 0 -81.5 -25.5t-34.5 -68.5q0 -40 37 -66.5t104.5 -54t97.5 -47.5q91 -60 91 -160
q0 -80 -49 -134t-127 -66l-26 -133h-105l61 132q-130 11 -216 115z" />
    <glyph glyph-name="scedilla" unicode="&#x15f;" horiz-adv-x="455" 
d="M40 55l49 70q67 -52 139 -52q33 0 57.5 16.5t24.5 42.5q0 15 -8 26.5t-24.5 19t-32 12t-41 11t-41.5 11.5q-108 36 -108 121q0 71 52 109t122 38q92 0 156 -52l-49 -68q-49 37 -101 37q-36 0 -60.5 -16t-24.5 -43q0 -22 20.5 -33t63.5 -22q34 -9 59 -18.5t53 -26.5
t43.5 -43.5t15.5 -60.5q0 -54 -37.5 -91.5t-95.5 -48.5l-27 -134h-105l61 131q-92 7 -161 64z" />
    <glyph glyph-name="Scaron" unicode="&#x160;" horiz-adv-x="532" 
d="M134 900h65l85 -94l85 94h65l-95 -150h-110zM30 107l69 68q74 -90 171 -90q50 0 86 29.5t36 75.5q0 48 -36.5 77t-106 56.5t-98.5 46.5q-89 59 -89 154q0 77 60.5 131.5t151.5 54.5q104 0 188 -70l-59 -73q-57 48 -125 48q-47 0 -81.5 -25.5t-34.5 -68.5q0 -40 37 -66.5
t104.5 -54t97.5 -47.5q91 -60 91 -160q0 -91 -62 -147t-155 -56q-148 0 -245 117z" />
    <glyph glyph-name="scaron" unicode="&#x161;" horiz-adv-x="455" 
d="M40 55l49 70q67 -52 139 -52q33 0 57.5 16.5t24.5 42.5q0 15 -8 26.5t-24.5 19t-32 12t-41 11t-41.5 11.5q-108 36 -108 121q0 71 52 109t122 38q92 0 156 -52l-49 -68q-49 37 -101 37q-36 0 -60.5 -16t-24.5 -43q0 -22 20.5 -33t63.5 -22q34 -9 59 -18.5t53 -26.5
t43.5 -43.5t15.5 -60.5q0 -64 -51.5 -104t-123.5 -40q-110 0 -190 65zM82 700h65l85 -94l85 94h65l-95 -150h-110z" />
    <glyph glyph-name="Tcommaaccent" unicode="&#x162;" horiz-adv-x="510" 
d="M15 605v95h480v-95h-190v-605h-100v605h-190zM203 -200h-65l65 150h105z" />
    <glyph glyph-name="tcommaaccent" unicode="&#x163;" horiz-adv-x="420" 
d="M228 -200h-65l65 150h105zM356 86l19 -86q-30 -10 -74 -10q-84 0 -133 55q-38 42 -38 125v215h-120v85h120v130h95v-130h150v-85h-150v-220q0 -44 14 -60q20 -25 65 -25q31 0 52 6z" />
    <glyph glyph-name="Tcaron" unicode="&#x164;" horiz-adv-x="510" 
d="M15 605v95h480v-95h-190v-605h-100v605h-190zM105 900h65l85 -94l85 94h65l-95 -150h-110z" />
    <glyph glyph-name="tcaron" unicode="&#x165;" horiz-adv-x="420" 
d="M320 550h-65l65 150h105zM356 86l19 -86q-30 -10 -74 -10q-84 0 -133 55q-38 42 -38 125v215h-120v85h120v130h95v-130h150v-85h-150v-220q0 -44 14 -60q20 -25 65 -25q31 0 52 6z" />
    <glyph glyph-name="Tbar" unicode="&#x166;" horiz-adv-x="510" 
d="M55 425h150v180h-190v95h480v-95h-190v-180h150v-95h-150v-330h-100v330h-150v95z" />
    <glyph glyph-name="tbar" unicode="&#x167;" horiz-adv-x="420" 
d="M356 86l19 -86q-30 -10 -74 -10q-84 0 -133 55q-38 42 -38 125v30h-120v85h120v100h-120v85h120v130h95v-130h150v-85h-150v-100h150v-85h-150v-35q0 -44 14 -60q20 -25 65 -25q31 0 52 6z" />
    <glyph glyph-name="Utilde" unicode="&#x168;" horiz-adv-x="740" 
d="M370 -10q-131 0 -217 92q-73 79 -73 208v410h100v-415q0 -89 44 -138q56 -62 146 -62t146 62q44 49 44 138v415h100v-410q0 -129 -73 -208q-86 -92 -217 -92zM265 760l-65 21q2 46 29.5 77.5t71.5 31.5q27 0 72 -22.5t64 -22.5q30 0 38 45l65 -21q-2 -46 -29.5 -77.5
t-71.5 -31.5q-27 0 -72 22.5t-64 22.5q-30 0 -38 -45z" />
    <glyph glyph-name="utilde" unicode="&#x169;" horiz-adv-x="600" 
d="M285 -10q-104 0 -167 79q-43 53 -43 161v240h95v-255q0 -62 27 -94q34 -41 91 -41q75 0 132 67v323h95v-470h-92v44q-21 -20 -58 -37t-80 -17zM191 560l-65 21q2 46 29.5 77.5t71.5 31.5q27 0 72 -22.5t64 -22.5q30 0 38 45l65 -21q-2 -46 -29.5 -77.5t-71.5 -31.5
q-27 0 -72 22.5t-64 22.5q-30 0 -38 -45z" />
    <glyph glyph-name="Umacron" unicode="&#x16a;" horiz-adv-x="740" 
d="M370 -10q-131 0 -217 92q-73 79 -73 208v410h100v-415q0 -89 44 -138q56 -62 146 -62t146 62q44 49 44 138v415h100v-410q0 -129 -73 -208q-86 -92 -217 -92zM220 860h300v-85h-300v85z" />
    <glyph glyph-name="umacron" unicode="&#x16b;" horiz-adv-x="600" 
d="M146 660h300v-85h-300v85zM285 -10q-104 0 -167 79q-43 53 -43 161v240h95v-255q0 -62 27 -94q34 -41 91 -41q75 0 132 67v323h95v-470h-92v43q-20 -20 -57 -36.5t-81 -16.5z" />
    <glyph glyph-name="Ubreve" unicode="&#x16c;" horiz-adv-x="740" 
d="M370 -10q-131 0 -217 92q-73 79 -73 208v410h100v-415q0 -89 44 -138q56 -62 146 -62t146 62q44 49 44 138v415h100v-410q0 -129 -73 -208q-86 -92 -217 -92zM430 900h80q0 -58 -41 -99t-99 -41t-99 41t-41 99h80q0 -25 17.5 -42.5t42.5 -17.5t42.5 17.5t17.5 42.5z" />
    <glyph glyph-name="ubreve" unicode="&#x16d;" horiz-adv-x="600" 
d="M355 700h80q0 -58 -41 -99t-99 -41t-99 41t-41 99h80q0 -25 17.5 -42.5t42.5 -17.5t42.5 17.5t17.5 42.5zM285 -10q-104 0 -167 79q-43 53 -43 161v240h95v-255q0 -62 27 -94q34 -41 91 -41q75 0 132 67v323h95v-470h-92v43q-20 -20 -57 -36.5t-81 -16.5z" />
    <glyph glyph-name="Uring" unicode="&#x16e;" horiz-adv-x="740" 
d="M370 -10q-131 0 -217 92q-73 79 -73 208v410h100v-415q0 -89 44 -138q56 -62 146 -62t146 62q44 49 44 138v415h100v-410q0 -129 -73 -208q-86 -92 -217 -92zM270 830q0 41 29.5 70.5t70.5 29.5t70.5 -29.5t29.5 -70.5t-29.5 -70.5t-70.5 -29.5t-70.5 29.5t-29.5 70.5z
M330 830q0 -16 12 -28t28 -12t28 12t12 28t-12 28t-28 12t-28 -12t-12 -28z" />
    <glyph glyph-name="uring" unicode="&#x16f;" horiz-adv-x="600" 
d="M195 630q0 41 29.5 70.5t70.5 29.5t70.5 -29.5t29.5 -70.5t-29.5 -70.5t-70.5 -29.5t-70.5 29.5t-29.5 70.5zM255 630q0 -16 11.5 -28t28.5 -12t28.5 12t11.5 28t-11.5 28t-28.5 12t-28.5 -12t-11.5 -28zM285 -10q-104 0 -167 79q-43 53 -43 161v240h95v-255
q0 -62 27 -94q34 -41 91 -41q75 0 132 67v323h95v-470h-92v43q-20 -20 -57 -36.5t-81 -16.5z" />
    <glyph glyph-name="Uhungarumlaut" unicode="&#x170;" horiz-adv-x="740" 
d="M370 -10q-131 0 -217 92q-73 79 -73 208v410h100v-415q0 -89 44 -138q56 -62 146 -62t146 62q44 49 44 138v415h100v-410q0 -129 -73 -208q-86 -92 -217 -92zM310 750h-65l65 150h105zM495 750h-65l65 150h105z" />
    <glyph glyph-name="uhungarumlaut" unicode="&#x171;" horiz-adv-x="600" 
d="M235 550h-65l65 150h105zM420 550h-65l65 150h105zM285 -10q-104 0 -167 79q-43 53 -43 161v240h95v-255q0 -62 27 -94q34 -41 91 -41q75 0 132 67v323h95v-470h-92v43q-20 -20 -57 -36.5t-81 -16.5z" />
    <glyph glyph-name="Uogonek" unicode="&#x172;" horiz-adv-x="740" 
d="M587 82q-62 -67 -153 -85q-29 -46 -29 -83q0 -21 13 -32.5t34 -11.5q13 0 23 4l15 -85q-21 -9 -55 -9q-54 0 -89.5 34.5t-35.5 85.5q0 52 25 92q-111 12 -182 90q-73 79 -73 208v410h100v-415q0 -89 44 -138q56 -62 146 -62t146 62q44 49 44 138v415h100v-410
q0 -129 -73 -208z" />
    <glyph glyph-name="uogonek" unicode="&#x173;" horiz-adv-x="600" 
d="M285 -10q-104 0 -167 79q-43 53 -43 161v240h95v-255q0 -62 27 -94q34 -41 91 -41q75 0 132 67v323h95v-470h-7q-31 -46 -31 -86q0 -21 13 -32.5t34 -11.5q13 0 23 4l15 -85q-21 -9 -55 -9q-54 0 -89.5 34.5t-35.5 85.5q0 34 13 66t28 48v29q-20 -20 -57 -36.5t-81 -16.5
z" />
    <glyph glyph-name="Wcircumflex" unicode="&#x174;" horiz-adv-x="950" 
d="M475 518l-175 -518h-70l-220 700h102l157 -507l171 507h70l171 -507l157 507h102l-220 -700h-70zM390 750h-65l95 150h110l95 -150h-65l-85 94z" />
    <glyph glyph-name="wcircumflex" unicode="&#x175;" horiz-adv-x="798" 
d="M366 470h66l129 -321l129 321h98l-191 -470h-66l-132 330l-132 -330h-66l-191 470h98l129 -321zM314 550h-65l95 150h110l95 -150h-65l-85 94z" />
    <glyph glyph-name="Ycircumflex" unicode="&#x176;" horiz-adv-x="600" 
d="M590 700l-240 -380v-320h-100v320l-240 380h112l178 -281l178 281h112zM215 750h-65l95 150h110l95 -150h-65l-85 94z" />
    <glyph glyph-name="ycircumflex" unicode="&#x177;" horiz-adv-x="509" 
d="M185 -240h-101l127 289l-201 421h102l147 -310l135 310h100zM168 550h-65l95 150h110l95 -150h-65l-85 94z" />
    <glyph glyph-name="Ydieresis" unicode="&#x178;" horiz-adv-x="600" 
d="M590 700l-240 -380v-320h-100v320l-240 380h112l178 -281l178 281h112zM145 817q0 26 18 44.5t44 18.5t44.5 -18.5t18.5 -44.5t-18.5 -44t-44.5 -18t-44 18t-18 44zM330 817q0 26 18 44.5t44 18.5t44.5 -18.5t18.5 -44.5t-18.5 -44t-44.5 -18t-44 18t-18 44z" />
    <glyph glyph-name="Zacute" unicode="&#x179;" 
d="M330 750h-65l65 150h105zM70 605v95h470v-65l-364 -540h384v-95h-520v65l366 540h-336z" />
    <glyph glyph-name="zacute" unicode="&#x17a;" horiz-adv-x="470" 
d="M272 550h-65l65 150h105zM40 60l258 325h-243v85h375v-60l-259 -325h279v-85h-410v60z" />
    <glyph glyph-name="Zdotaccent" unicode="&#x17b;" 
d="M243 837q0 26 18 44.5t44 18.5t44.5 -18.5t18.5 -44.5t-18.5 -44t-44.5 -18t-44 18t-18 44zM70 605v95h470v-65l-364 -540h384v-95h-520v65l366 540h-336z" />
    <glyph glyph-name="zdotaccent" unicode="&#x17c;" horiz-adv-x="470" 
d="M180 637q0 26 18 44.5t44 18.5t44.5 -18.5t18.5 -44.5t-18.5 -44t-44.5 -18t-44 18t-18 44zM40 60l258 325h-243v85h375v-60l-259 -325h279v-85h-410v60z" />
    <glyph glyph-name="Zcaron" unicode="&#x17d;" 
d="M70 605v95h470v-65l-364 -540h384v-95h-520v65l366 540h-336zM150 900h65l85 -94l85 94h65l-95 -150h-110z" />
    <glyph glyph-name="zcaron" unicode="&#x17e;" horiz-adv-x="470" 
d="M105 700h65l85 -94l85 94h65l-95 -150h-110zM40 60l258 325h-243v85h375v-60l-259 -325h279v-85h-410v60z" />
    <glyph glyph-name="longs" unicode="&#x17f;" horiz-adv-x="365" 
d="M180 513v-513h-95v510q0 89 30 132q54 78 154 78q53 0 96 -20l-35 -83q-30 13 -60 13q-47 0 -72 -33q-18 -24 -18 -84z" />
    <glyph glyph-name="uni018F" unicode="&#x18f;" horiz-adv-x="722" 
d="M580 279h-441q14 -87 74.5 -140.5t143.5 -53.5q84 0 143 54t80 140zM125 516l-71 64q47 55 119.5 92.5t167.5 37.5q156 0 251 -103.5t95 -256.5q0 -151 -93 -255.5t-237 -104.5q-138 0 -230 97t-92 241q0 18 4 46h547q-9 105 -72 173t-173 68q-128 0 -216 -99z" />
    <glyph glyph-name="florin" unicode="&#x192;" horiz-adv-x="526" 
d="M157 -44q8 27 14.5 72.5t9.5 81.5l8.5 105.5t8.5 99.5h-152v85h160q9 77 20 119q21 83 61 127q58 64 154 64q40 0 75 -14l-26 -83q-25 7 -49 7q-52 0 -83 -35q-25 -30 -39 -81q-11 -36 -19 -104h152v-85h-161l-7.5 -97.5l-8.5 -108.5t-10 -86.5t-15 -81.5
q-21 -83 -61 -127q-58 -64 -154 -64q-40 0 -75 14l26 83q24 -7 49 -7q52 0 83 35q25 30 39 81z" />
    <glyph glyph-name="uni01B5" unicode="&#x1b5;" 
d="M110 425h174l122 180h-336v95h470v-65l-142 -210h112v-95h-176l-158 -235h384v-95h-520v65l179 265h-109v95z" />
    <glyph glyph-name="uni01B6" unicode="&#x1b6;" horiz-adv-x="470" 
d="M85 285h133l80 100h-243v85h375v-60l-99 -125h74v-85h-142l-92 -115h279v-85h-410v60l110 140h-65v85z" />
    <glyph glyph-name="Aringacute" unicode="&#x1fa;" horiz-adv-x="660" 
d="M230 830q0 41 29.5 70.5t70.5 29.5t70.5 -29.5t29.5 -70.5t-29.5 -70.5t-70.5 -29.5t-70.5 29.5t-29.5 70.5zM290 830q0 -16 12 -28t28 -12t28 12t12 28t-12 28t-28 12t-28 -12t-12 -28zM365 960h-65l65 150h105zM551 0l-74 180h-295l-73 -180h-104l290 700h70l290 -700
h-104zM330 535l-108 -260h216z" />
    <glyph glyph-name="aringacute" unicode="&#x1fb;" horiz-adv-x="605" 
d="M197 630q0 41 29.5 70.5t70.5 29.5t70.5 -29.5t29.5 -70.5t-29.5 -70.5t-70.5 -29.5t-70.5 29.5t-29.5 70.5zM257 630q0 -16 11.5 -28t28.5 -12t28.5 12t11.5 28t-11.5 28t-28.5 12t-28.5 -12t-11.5 -28zM317 760h-65l65 150h105zM428 0v43q-59 -53 -145 -53
q-66 0 -118 31q-55 32 -87.5 88.5t-32.5 125.5t33 126t88 89q51 30 115 30q85 0 147 -53v43h92v-470h-92zM425 147v176q-51 67 -134 67q-66 0 -108.5 -45.5t-42.5 -109.5t44.5 -109.5t111.5 -45.5q79 0 129 67z" />
    <glyph glyph-name="AEacute" unicode="&#x1fc;" horiz-adv-x="910" 
d="M560 750h-65l65 150h105zM870 0h-410v180h-258l-108 -180h-114l418 700h462v-95h-300v-180h230v-95h-230v-235h310v-95zM460 615l-202 -340h202v340z" />
    <glyph glyph-name="aeacute" unicode="&#x1fd;" horiz-adv-x="929" 
d="M503 550h-65l65 150h105zM428 0v43q-59 -53 -145 -53q-66 0 -118 31q-55 32 -87.5 88.5t-32.5 125.5t33 126t88 89q51 30 115 30q85 0 147 -53v43h84v-43q59 53 141 53q96 0 163.5 -71t67.5 -174q0 -11 -1 -20h-367q5 -60 50.5 -101t109.5 -41q75 0 132 64l62 -59
q-70 -88 -192 -88q-97 0 -166 64v-54h-84zM425 147v176q-51 67 -134 67q-66 0 -108.5 -45.5t-42.5 -109.5t44.5 -109.5t111.5 -45.5q79 0 129 67zM657 397q-47 0 -85 -28t-51 -74h264q-11 45 -47.5 73.5t-80.5 28.5z" />
    <glyph glyph-name="Oslashacute" unicode="&#x1fe;" horiz-adv-x="770" 
d="M415 750h-65l65 150h105zM35 350q0 153 100.5 256.5t249.5 103.5q108 0 194 -58l49 58h119l-99 -119q87 -102 87 -241q0 -153 -100.5 -256.5t-249.5 -103.5q-107 0 -194 57l-49 -57h-120l100 118q-87 100 -87 242zM135 350q0 -95 51 -165l331 392q-60 38 -132 38
q-107 0 -178.5 -76t-71.5 -189zM635 350q0 94 -52 165l-330 -393q59 -37 132 -37q107 0 178.5 75.5t71.5 189.5z" />
    <glyph glyph-name="oslashacute" unicode="&#x1ff;" horiz-adv-x="576" 
d="M318 550h-65l65 150h105zM45 235q0 105 69.5 175t173.5 70q65 0 123 -32l28 32h111l-74 -87q55 -68 55 -158q0 -105 -69.5 -175t-173.5 -70q-69 0 -123 31l-26 -31h-112l72 86q-54 67 -54 159zM140 235q0 -46 22 -84l189 225q-30 14 -63 14q-64 0 -106 -45t-42 -110z
M436 235q0 45 -22 83l-189 -225q29 -13 63 -13q64 0 106 45t42 110z" />
    <glyph glyph-name="Scommaaccent" unicode="&#x218;" horiz-adv-x="532" 
d="M30 107l69 68q74 -90 171 -90q50 0 86 29.5t36 75.5q0 48 -36.5 77t-106 56.5t-98.5 46.5q-89 59 -89 154q0 77 60.5 131.5t151.5 54.5q104 0 188 -70l-59 -73q-57 48 -125 48q-47 0 -81.5 -25.5t-34.5 -68.5q0 -40 37 -66.5t104.5 -54t97.5 -47.5q91 -60 91 -160
q0 -91 -62 -147t-155 -56q-148 0 -245 117zM233 -200h-65l65 150h105z" />
    <glyph glyph-name="scommaaccent" unicode="&#x219;" horiz-adv-x="455" 
d="M40 55l49 70q67 -52 139 -52q33 0 57.5 16.5t24.5 42.5q0 15 -8 26.5t-24.5 19t-32 12t-41 11t-41.5 11.5q-108 36 -108 121q0 71 52 109t122 38q92 0 156 -52l-49 -68q-49 37 -101 37q-36 0 -60.5 -16t-24.5 -43q0 -22 20.5 -33t63.5 -22q34 -9 59 -18.5t53 -26.5
t43.5 -43.5t15.5 -60.5q0 -64 -51.5 -104t-123.5 -40q-110 0 -190 65zM183 -200h-65l65 150h105z" />
    <glyph glyph-name="uni0237" unicode="&#x237;" horiz-adv-x="285" 
d="M105 -43v513h95v-510q0 -89 -30 -132q-54 -78 -154 -78q-33 0 -56 7l20 87q14 -4 35 -4q47 0 72 33q18 24 18 84z" />
    <glyph glyph-name="uni0259" unicode="&#x259;" horiz-adv-x="545" 
d="M46 255h362q-7 63 -49.5 102.5t-102.5 39.5q-48 0 -78.5 -17.5t-56.5 -46.5l-62 59q29 38 80 63t118 25q103 0 173 -70t70 -175q0 -106 -64.5 -175.5t-164.5 -69.5q-98 0 -162 70t-64 175q0 11 1 20zM268 73q46 0 83 28.5t49 73.5h-256q10 -44 45.5 -73t78.5 -29z" />
    <glyph glyph-name="circumflex" unicode="&#x2c6;" horiz-adv-x="440" 
d="M135 550h-65l95 150h110l95 -150h-65l-85 94z" />
    <glyph glyph-name="caron" unicode="&#x2c7;" horiz-adv-x="440" 
d="M70 700h65l85 -94l85 94h65l-95 -150h-110z" />
    <glyph glyph-name="breve" unicode="&#x2d8;" horiz-adv-x="420" 
d="M270 700h80q0 -58 -41 -99t-99 -41t-99 41t-41 99h80q0 -25 17.5 -42.5t42.5 -17.5t42.5 17.5t17.5 42.5z" />
    <glyph glyph-name="dotaccent" unicode="&#x2d9;" horiz-adv-x="265" 
d="M70 637q0 26 18 44.5t44 18.5t44.5 -18.5t18.5 -44.5t-18.5 -44t-44.5 -18t-44 18t-18 44z" />
    <glyph glyph-name="ring" unicode="&#x2da;" horiz-adv-x="340" 
d="M70 630q0 41 29.5 70.5t70.5 29.5t70.5 -29.5t29.5 -70.5t-29.5 -70.5t-70.5 -29.5t-70.5 29.5t-29.5 70.5zM130 630q0 -16 12 -28t28 -12t28 12t12 28t-12 28t-28 12t-28 -12t-12 -28z" />
    <glyph glyph-name="ogonek" unicode="&#x2db;" horiz-adv-x="320" 
d="M108 10h95q-38 -52 -38 -96q0 -21 13 -32.5t34 -11.5q13 0 23 4l15 -85q-21 -9 -55 -9q-54 0 -89.5 34.5t-35.5 85.5q0 64 38 110z" />
    <glyph glyph-name="tilde" unicode="&#x2dc;" horiz-adv-x="480" 
d="M135 560l-65 21q2 46 29.5 77.5t71.5 31.5q27 0 72 -22.5t64 -22.5q30 0 38 45l65 -21q-2 -46 -29.5 -77.5t-71.5 -31.5q-27 0 -72 22.5t-64 22.5q-30 0 -38 -45z" />
    <glyph glyph-name="hungarumlaut" unicode="&#x2dd;" horiz-adv-x="515" 
d="M155 550h-65l65 150h105zM340 550h-65l65 150h105z" />
    <glyph glyph-name="pi" unicode="&#x3c0;" horiz-adv-x="575" 
d="M487 68l-54 -78q-44 22 -58.5 61.5t-14.5 98.5v230h-100v-380h-95v374q-16 -3 -28 -9q-29 -14 -55 -51l-77 46q33 63 102 92q44 18 107 18h341v-90h-100v-227q0 -25 1 -37t8.5 -25.5t22.5 -22.5z" />
    <glyph glyph-name="Wgrave" unicode="&#x1e80;" horiz-adv-x="950" 
d="M510 750h-65l-105 150h105zM475 518l-175 -518h-70l-220 700h102l157 -507l171 507h70l171 -507l157 507h102l-220 -700h-70z" />
    <glyph glyph-name="wgrave" unicode="&#x1e81;" horiz-adv-x="798" 
d="M432 550h-65l-105 150h105zM366 470h66l129 -321l129 321h98l-191 -470h-66l-132 330l-132 -330h-66l-191 470h98l129 -321z" />
    <glyph glyph-name="Wacute" unicode="&#x1e82;" horiz-adv-x="950" 
d="M475 518l-175 -518h-70l-220 700h102l157 -507l171 507h70l171 -507l157 507h102l-220 -700h-70zM505 750h-65l65 150h105z" />
    <glyph glyph-name="wacute" unicode="&#x1e83;" horiz-adv-x="798" 
d="M366 470h66l129 -321l129 321h98l-191 -470h-66l-132 330l-132 -330h-66l-191 470h98l129 -321zM431 550h-65l65 150h105z" />
    <glyph glyph-name="Wdieresis" unicode="&#x1e84;" horiz-adv-x="950" 
d="M475 518l-175 -518h-70l-220 700h102l157 -507l171 507h70l171 -507l157 507h102l-220 -700h-70zM320 817q0 26 18 44.5t44 18.5t44.5 -18.5t18.5 -44.5t-18.5 -44t-44.5 -18t-44 18t-18 44zM505 817q0 26 18 44.5t44 18.5t44.5 -18.5t18.5 -44.5t-18.5 -44t-44.5 -18
t-44 18t-18 44z" />
    <glyph glyph-name="wdieresis" unicode="&#x1e85;" horiz-adv-x="798" 
d="M366 470h66l129 -321l129 321h98l-191 -470h-66l-132 330l-132 -330h-66l-191 470h98l129 -321zM244 617q0 26 18 44.5t44 18.5t44.5 -18.5t18.5 -44.5t-18.5 -44t-44.5 -18t-44 18t-18 44zM429 617q0 26 18 44.5t44 18.5t44.5 -18.5t18.5 -44.5t-18.5 -44t-44.5 -18
t-44 18t-18 44z" />
    <glyph glyph-name="uni1E8A" unicode="&#x1e8a;" horiz-adv-x="659" 
d="M267 837q0 26 18 44.5t44 18.5t44.5 -18.5t18.5 -44.5t-18.5 -44t-44.5 -18t-44 18t-18 44zM133 0h-118l249 383l-209 317h123l151 -233l152 233h123l-210 -317l250 -383h-118l-197 299z" />
    <glyph glyph-name="uni1E8B" unicode="&#x1e8b;" horiz-adv-x="510" 
d="M382 0l-127 176l-127 -176h-113l178 247l-161 223h112l111 -152l111 152h112l-161 -223l178 -247h-113zM193 637q0 26 18 44.5t44 18.5t44.5 -18.5t18.5 -44.5t-18.5 -44t-44.5 -18t-44 18t-18 44z" />
    <glyph glyph-name="Ygrave" unicode="&#x1ef2;" horiz-adv-x="600" 
d="M590 700l-240 -380v-320h-100v320l-240 380h112l178 -281l178 281h112zM330 750h-65l-105 150h105z" />
    <glyph glyph-name="ygrave" unicode="&#x1ef3;" horiz-adv-x="509" 
d="M185 -240h-101l127 289l-201 421h102l147 -310l135 310h100zM297 550h-65l-105 150h105z" />
    <glyph glyph-name="endash" unicode="&#x2013;" horiz-adv-x="490" 
d="M20 295h450v-80h-450v80z" />
    <glyph glyph-name="emdash" unicode="&#x2014;" horiz-adv-x="790" 
d="M20 295h750v-80h-750v80z" />
    <glyph glyph-name="quoteleft" unicode="&#x2018;" horiz-adv-x="285" 
d="M160 450h-110l120 260h65z" />
    <glyph glyph-name="quoteright" unicode="&#x2019;" horiz-adv-x="285" 
d="M125 710h110l-120 -260h-65z" />
    <glyph glyph-name="quotesinglbase" unicode="&#x201a;" horiz-adv-x="285" 
d="M125 120h110l-120 -260h-65z" />
    <glyph glyph-name="quotedblleft" unicode="&#x201c;" horiz-adv-x="495" 
d="M370 450h-110l120 260h65zM160 450h-110l120 260h65z" />
    <glyph glyph-name="quotedblright" unicode="&#x201d;" horiz-adv-x="495" 
d="M125 710h110l-120 -260h-65zM335 710h110l-120 -260h-65z" />
    <glyph glyph-name="quotedblbase" unicode="&#x201e;" horiz-adv-x="495" 
d="M125 120h110l-120 -260h-65zM335 120h110l-120 -260h-65z" />
    <glyph glyph-name="dagger" unicode="&#x2020;" horiz-adv-x="525" 
d="M50 460h165v240h95v-240h165v-90h-165v-570h-95v570h-165v90z" />
    <glyph glyph-name="daggerdbl" unicode="&#x2021;" horiz-adv-x="525" 
d="M50 460h165v240h95v-240h165v-90h-165v-150h165v-90h-165v-330h-95v330h-165v90h165v150h-165v90z" />
    <glyph glyph-name="bullet" unicode="&#x2022;" horiz-adv-x="560" 
d="M80 235q0 83 59 141.5t141 58.5t141 -58.5t59 -141.5t-59 -141.5t-141 -58.5t-141 58.5t-59 141.5z" />
    <glyph glyph-name="ellipsis" unicode="&#x2026;" horiz-adv-x="930" 
d="M110 60q0 29 20.5 49.5t49.5 20.5t49.5 -20.5t20.5 -49.5t-20.5 -49.5t-49.5 -20.5t-49.5 20.5t-20.5 49.5zM405 60q0 29 20.5 49.5t49.5 20.5t49.5 -20.5t20.5 -49.5t-20.5 -49.5t-49.5 -20.5t-49.5 20.5t-20.5 49.5zM700 60q0 29 20.5 49.5t49.5 20.5t49.5 -20.5
t20.5 -49.5t-20.5 -49.5t-49.5 -20.5t-49.5 20.5t-20.5 49.5z" />
    <glyph glyph-name="perthousand" unicode="&#x2030;" horiz-adv-x="1215" 
d="M1155 175q0 -77 -51.5 -131t-128.5 -54q-84 0 -135 61q-53 -61 -135 -61q-77 0 -128.5 54t-51.5 131t51.5 131t128.5 54q81 0 135 -61q53 61 135 61q77 0 128.5 -54t51.5 -131zM420 525q0 -77 -51.5 -131t-128.5 -54t-128.5 54t-51.5 131t51.5 131t128.5 54t128.5 -54
t51.5 -131zM316 0h-96l409 700h96zM150 525q0 -42 25 -71t65 -29t65 29t25 71t-25 71t-65 29t-65 -29t-25 -71zM705 75q40 0 65 29t25 71t-25 71t-65 29t-65 -29t-25 -71t25 -71t65 -29zM975 75q40 0 65 29t25 71t-25 71t-65 29t-65 -29t-25 -71t25 -71t65 -29z" />
    <glyph glyph-name="guilsinglleft" unicode="&#x2039;" horiz-adv-x="370" 
d="M176 240l154 -190h-116l-134 165v50l134 165h116z" />
    <glyph glyph-name="guilsinglright" unicode="&#x203a;" horiz-adv-x="370" 
d="M40 50l154 190l-154 190h116l134 -165v-50l-134 -165h-116z" />
    <glyph glyph-name="fraction" unicode="&#x2044;" horiz-adv-x="505" 
d="M91 0h-86l409 700h86z" />
    <glyph glyph-name="uni2070" unicode="&#x2070;" horiz-adv-x="326" 
d="M221 520q0 120 -60 120q-56 0 -56 -120t56 -120q60 0 60 120zM296 520q0 -89 -35 -139.5t-99 -50.5q-63 0 -97.5 50.5t-34.5 139.5t34.5 139.5t97.5 50.5q64 0 99 -50.5t35 -139.5z" />
    <glyph glyph-name="uni2074" unicode="&#x2074;" horiz-adv-x="337" 
d="M216 700h45v-213h61v-70h-61v-77h-75v77h-161v40zM136 487h50v66z" />
    <glyph glyph-name="uni2075" unicode="&#x2075;" horiz-adv-x="295" 
d="M88 495l-47 7l28 198h190v-70h-124l-7 -50q10 1 16 1q54 0 90 -36.5t36 -87.5q0 -54 -38 -90.5t-94 -36.5q-75 0 -113 58l58 40q21 -28 55 -28q24 0 40.5 16t16.5 41q0 24 -16 41t-43 17q-25 0 -48 -20z" />
    <glyph glyph-name="uni2076" unicode="&#x2076;" horiz-adv-x="309" 
d="M238 700l-75 -119q56 -2 91 -38.5t35 -87.5q0 -53 -38.5 -89t-92.5 -36q-57 0 -95 36.5t-38 88.5q0 41 26 81l104 164h83zM157 512q-21 0 -38 -10q-19 -23 -19 -47t16.5 -40.5t41.5 -16.5q24 0 40 16.5t16 40.5t-16 40.5t-41 16.5z" />
    <glyph glyph-name="uni2077" unicode="&#x2077;" horiz-adv-x="267" 
d="M10 630v70h247v-40l-145 -320h-79l133 290h-156z" />
    <glyph glyph-name="uni2078" unicode="&#x2078;" horiz-adv-x="308" 
d="M213 454q0 23 -16 39t-42 16q-27 0 -43.5 -16t-16.5 -39q0 -24 16.5 -39t43.5 -15t42.5 15t15.5 39zM119 604q0 -15 9.5 -25.5t25.5 -10.5q17 0 26 10t9 26q0 36 -35 36q-16 0 -25.5 -10t-9.5 -26zM44 608q0 43 31.5 72.5t79.5 29.5q46 0 77.5 -29.5t31.5 -72.5
q0 -36 -26 -65q50 -37 50 -93q0 -50 -38.5 -85t-94.5 -35q-57 0 -96 35t-39 85q0 55 50 93q-26 29 -26 65z" />
    <glyph glyph-name="uni2079" unicode="&#x2079;" horiz-adv-x="309" 
d="M71 340l75 119q-56 2 -91 38.5t-35 87.5q0 53 38.5 89t92.5 36q57 0 95 -36.5t38 -88.5q0 -41 -26 -81l-104 -164h-83zM152 526q21 0 38 10q19 23 19 47t-16.5 40.5t-41.5 16.5q-24 0 -40 -16.5t-16 -40.5t16 -40.5t41 -16.5z" />
    <glyph glyph-name="uni2080" unicode="&#x2080;" horiz-adv-x="326" 
d="M221 180q0 120 -60 120q-56 0 -56 -120t56 -120q60 0 60 120zM296 180q0 -89 -35 -139.5t-99 -50.5q-63 0 -97.5 50.5t-34.5 139.5t34.5 139.5t97.5 50.5q64 0 99 -50.5t35 -139.5z" />
    <glyph glyph-name="uni2081" unicode="&#x2081;" horiz-adv-x="235" 
d="M30 229v75l110 56h45v-360h-75v266z" />
    <glyph glyph-name="uni2082" unicode="&#x2082;" horiz-adv-x="311" 
d="M101 255l-70 21q11 43 43.5 68.5t77.5 25.5q50 0 86 -33t36 -84q0 -47 -43 -95l-79 -88h124v-70h-246v40l136 152q33 35 33 61q0 19 -13 33t-34 14q-38 0 -51 -45z" />
    <glyph glyph-name="uni2083" unicode="&#x2083;" horiz-adv-x="303" 
d="M20 54l60 38q20 -34 58 -34q26 0 43 17.5t17 42.5t-17 43.5t-44 18.5q-22 0 -49 -11v40l61 81h-115v70h223v-40l-64 -88q35 -12 57.5 -44t22.5 -70q0 -54 -39 -91t-96 -37q-77 0 -118 64z" />
    <glyph glyph-name="uni2084" unicode="&#x2084;" horiz-adv-x="337" 
d="M216 360h45v-213h61v-70h-61v-77h-75v77h-161v40zM136 147h50v66z" />
    <glyph glyph-name="uni2085" unicode="&#x2085;" horiz-adv-x="295" 
d="M88 155l-47 7l28 198h190v-70h-124l-7 -50q10 1 16 1q54 0 90 -36.5t36 -87.5q0 -54 -38 -90.5t-94 -36.5q-75 0 -113 58l58 40q21 -28 55 -28q24 0 40.5 16t16.5 41q0 24 -16 41t-43 17q-25 0 -48 -20z" />
    <glyph glyph-name="uni2086" unicode="&#x2086;" horiz-adv-x="309" 
d="M238 360l-75 -119q56 -2 91 -38.5t35 -87.5q0 -53 -38.5 -89t-92.5 -36q-57 0 -95 36.5t-38 88.5q0 41 26 81l104 164h83zM157 174q-21 0 -38 -10q-19 -23 -19 -47t16.5 -40.5t41.5 -16.5q24 0 40 16.5t16 40.5t-16 40.5t-41 16.5z" />
    <glyph glyph-name="uni2087" unicode="&#x2087;" horiz-adv-x="267" 
d="M10 290v70h247v-40l-145 -320h-79l133 290h-156z" />
    <glyph glyph-name="uni2088" unicode="&#x2088;" horiz-adv-x="308" 
d="M213 114q0 23 -16 39t-42 16q-27 0 -43.5 -16t-16.5 -39q0 -24 16.5 -39t43.5 -15t42.5 15t15.5 39zM119 264q0 -15 9.5 -25.5t25.5 -10.5q17 0 26 10t9 26q0 36 -35 36q-16 0 -25.5 -10t-9.5 -26zM44 268q0 43 31.5 72.5t79.5 29.5q46 0 77.5 -29.5t31.5 -72.5
q0 -36 -26 -65q50 -37 50 -93q0 -50 -38.5 -85t-94.5 -35q-57 0 -96 35t-39 85q0 55 50 93q-26 29 -26 65z" />
    <glyph glyph-name="uni2089" unicode="&#x2089;" horiz-adv-x="309" 
d="M71 0l75 119q-56 2 -91 38.5t-35 87.5q0 53 38.5 89t92.5 36q57 0 95 -36.5t38 -88.5q0 -41 -26 -81l-104 -164h-83zM152 186q21 0 38 10q19 23 19 47t-16.5 40.5t-41.5 16.5q-24 0 -40 -16.5t-16 -40.5t16 -40.5t41 -16.5z" />
    <glyph glyph-name="Euro" unicode="&#x20ac;" horiz-adv-x="580" 
d="M159 350q0 -24 1 -35h267v-85h-250q23 -67 70 -106t116 -39q94 0 149 73l78 -51q-84 -117 -227 -117q-112 0 -187.5 66t-103.5 174h-82v85h68q-1 11 -1 35q0 23 1 35h-68v85h82q27 108 101.5 174t184.5 66q138 0 222 -117l-78 -51q-55 73 -144 73q-67 0 -113 -39
t-68 -106h250v-85h-267q-1 -12 -1 -35z" />
    <glyph glyph-name="trademark" unicode="&#x2122;" horiz-adv-x="845" 
d="M397 700h46l143 -216l144 216h45v-383h-72v222l-95 -141h-44l-94 141v-222h-73v383zM70 700h272v-68h-100v-315h-72v315h-100v68z" />
    <glyph glyph-name="Omega" unicode="&#x2126;" horiz-adv-x="760" 
d="M380 620q-107 0 -181 -75.5t-74 -182.5q0 -55 16 -106t38 -85t44.5 -60.5t38.5 -38.5l16 -12v-60h-248v90h92q-4 5 -10 13.5t-22 36t-28 57.5t-22 75t-10 90q0 147 102 247.5t248 100.5t248 -100.5t102 -247.5q0 -71 -23 -139t-46 -101l-23 -32h92v-90h-248v60
q6 4 16.5 12.5t37 37.5t46.5 61.5t36.5 84t16.5 106.5q0 107 -74 182.5t-181 75.5z" />
    <glyph glyph-name="arrowleft" unicode="&#x2190;" horiz-adv-x="719" 
d="M374 29h-113l-201 201v50l201 201h113l-188 -186h473v-80h-473z" />
    <glyph glyph-name="arrowright" unicode="&#x2192;" horiz-adv-x="719" 
d="M458 29h-113l188 186h-473v80h473l-188 186h113l201 -201v-50z" />
    <glyph glyph-name="uni2196" unicode="&#x2196;" horiz-adv-x="589" 
d="M140 70l-80 80v284l35 36h285l80 -80h-265l334 -333l-56 -57l-333 334v-264z" />
    <glyph glyph-name="uni2197" unicode="&#x2197;" horiz-adv-x="589" 
d="M529 150l-80 -80v264l-333 -334l-56 57l334 333h-265l80 80h285l35 -36v-284z" />
    <glyph glyph-name="uni2198" unicode="&#x2198;" horiz-adv-x="589" 
d="M449 400l80 -80v-284l-35 -36h-285l-80 80h265l-334 333l56 57l333 -334v264z" />
    <glyph glyph-name="uni2199" unicode="&#x2199;" horiz-adv-x="589" 
d="M60 320l80 80v-264l333 334l56 -57l-334 -333h265l-80 -80h-285l-35 36v284z" />
    <glyph glyph-name="partialdiff" unicode="&#x2202;" horiz-adv-x="576" 
d="M158 710h111l191 -289q71 -108 71 -186q0 -102 -70 -173.5t-173 -71.5q-104 0 -173.5 71t-69.5 174t69 174t174 71q7 0 23 -2zM288 390q-64 0 -106 -45t-42 -110t42 -110t106 -45t106 45t42 110q0 70 -52 132q-44 23 -96 23z" />
    <glyph glyph-name="Delta" unicode="&#x2206;" horiz-adv-x="570" 
d="M252 700h66l247 -640v-60h-560v60zM113 90h344l-172 446z" />
    <glyph glyph-name="product" unicode="&#x220f;" horiz-adv-x="570" 
d="M205 0h-95v610h-100v90h550v-90h-100v-610h-95v610h-160v-610z" />
    <glyph glyph-name="summation" unicode="&#x2211;" horiz-adv-x="560" 
d="M430 500v110h-267l211 -220v-60l-224 -240h290v110h90v-200h-530v60l280 300l-270 280v60h510v-200h-90z" />
    <glyph glyph-name="minus" unicode="&#x2212;" horiz-adv-x="540" 
d="M50 305h440v-90h-440v90z" />
    <glyph glyph-name="uni2215" unicode="&#x2215;" horiz-adv-x="505" 
d="M91 0h-86l409 700h86z" />
    <glyph glyph-name="radical" unicode="&#x221a;" horiz-adv-x="580" 
d="M494 700h96l-249 -700h-66l-156 380h-109v90h170l125 -304z" />
    <glyph glyph-name="infinity" unicode="&#x221e;" horiz-adv-x="770" 
d="M740 277q0 -87 -52 -142t-135 -55q-105 0 -168 107q-63 -107 -168 -107q-83 0 -135 55t-52 142t52 142t135 55q103 0 168 -107q30 50 69.5 78.5t98.5 28.5q83 0 135 -55t52 -142zM645 277q0 47 -24.5 77t-67.5 30q-41 0 -67.5 -27t-53.5 -80q27 -53 53.5 -80t67.5 -27
q43 0 67.5 30t24.5 77zM217 384q-43 0 -67.5 -30t-24.5 -77t24.5 -77t67.5 -30q40 0 67 27.5t54 79.5q-27 52 -54 79.5t-67 27.5z" />
    <glyph glyph-name="integral" unicode="&#x222b;" horiz-adv-x="526" 
d="M157 -44q18 61 34.5 276.5t34.5 286.5q21 83 61 127q58 64 154 64q40 0 75 -14l-26 -83q-25 7 -49 7q-52 0 -83 -35q-25 -30 -39 -81q-18 -61 -34.5 -276.5t-34.5 -286.5q-21 -83 -61 -127q-58 -64 -154 -64q-40 0 -75 14l26 83q24 -7 49 -7q52 0 83 35q25 30 39 81z" />
    <glyph glyph-name="approxequal" unicode="&#x2248;" horiz-adv-x="580" 
d="M468 428l77 -39q-51 -128 -152 -128q-40 0 -78.5 22t-69.5 44t-54 22q-45 0 -79 -77l-77 39q51 128 152 128q40 0 78.5 -22t69.5 -44t54 -22q45 0 79 77zM468 248l77 -39q-51 -128 -152 -128q-40 0 -78.5 22t-69.5 44t-54 22q-45 0 -79 -77l-77 39q51 128 152 128
q40 0 78.5 -22t69.5 -44t54 -22q45 0 79 77z" />
    <glyph glyph-name="notequal" unicode="&#x2260;" horiz-adv-x="540" 
d="M50 395h245l61 105h104l-61 -105h91v-90h-142l-52 -90h194v-90h-246l-60 -105h-104l60 105h-90v90h142l52 90h-194v90z" />
    <glyph glyph-name="lessequal" unicode="&#x2264;" horiz-adv-x="545" 
d="M50 110h440v-90h-440v90zM244 320l246 -83v-95l-440 148v60l440 148v-95z" />
    <glyph glyph-name="greaterequal" unicode="&#x2265;" horiz-adv-x="545" 
d="M55 110h440v-90h-440v90zM55 237l246 83l-246 83v95l440 -148v-60l-440 -148v95z" />
    <glyph glyph-name="lozenge" unicode="&#x25ca;" horiz-adv-x="550" 
d="M242 0l-207 320v60l207 320h66l207 -320v-60l-207 -320h-66zM275 587l-152 -237l152 -237l152 237z" />
    <glyph glyph-name="asciitilde.tf" 
d="M473 338l77 -39q-51 -128 -152 -128q-40 0 -78.5 22t-69.5 44t-54 22q-45 0 -79 -77l-77 39q51 128 152 128q40 0 78.5 -22t69.5 -44t54 -22q45 0 79 77z" />
    <glyph glyph-name="approxequal.tf" 
d="M473 428l77 -39q-51 -128 -152 -128q-40 0 -78.5 22t-69.5 44t-54 22q-45 0 -79 -77l-77 39q51 128 152 128q40 0 78.5 -22t69.5 -44t54 -22q45 0 79 77zM473 248l77 -39q-51 -128 -152 -128q-40 0 -78.5 22t-69.5 44t-54 22q-45 0 -79 -77l-77 39q51 128 152 128
q40 0 78.5 -22t69.5 -44t54 -22q45 0 79 77z" />
    <glyph glyph-name="parenleft.ss03" horiz-adv-x="445" 
d="M245 350q0 -162 80 -319l-86 -41q-89 175 -89 360t89 360l86 -41q-80 -157 -80 -319z" />
    <glyph glyph-name="parenright.ss03" horiz-adv-x="445" 
d="M200 350q0 162 -80 319l86 41q89 -175 89 -360t-89 -360l-86 41q80 157 80 319z" />
    <glyph glyph-name="bracketleft.ss03" horiz-adv-x="445" 
d="M150 0v700h245v-90h-150v-520h150v-90h-245z" />
    <glyph glyph-name="bracketright.ss03" horiz-adv-x="445" 
d="M295 700v-700h-245v90h150v520h-150v90h245z" />
    <glyph glyph-name="braceleft.ss03" horiz-adv-x="445" 
d="M192 350q53 -27 53 -97q0 -22 -2.5 -51.5t-2.5 -41.5q0 -38 18 -54t58 -16h29v-90h-45q-84 0 -119.5 37t-35.5 113q0 18 2.5 54t2.5 46q0 38 -18.5 54t-61.5 16v60q43 0 61.5 16t18.5 54q0 10 -2.5 46t-2.5 54q0 76 35.5 113t119.5 37h45v-90h-29q-40 0 -58 -16t-18 -54
q0 -12 2.5 -41.5t2.5 -51.5q0 -70 -53 -97z" />
    <glyph glyph-name="braceright.ss03" horiz-adv-x="445" 
d="M253 350q-53 27 -53 97q0 22 2.5 51.5t2.5 41.5q0 38 -18 54t-58 16h-29v90h45q84 0 119.5 -37t35.5 -113q0 -18 -2.5 -54t-2.5 -46q0 -38 18.5 -54t61.5 -16v-60q-43 0 -61.5 -16t-18.5 -54q0 -10 2.5 -46t2.5 -54q0 -76 -35.5 -113t-119.5 -37h-45v90h29q40 0 58 16
t18 54q0 12 -2.5 41.5t-2.5 51.5q0 70 53 97z" />
    <glyph glyph-name="bar.ss03" horiz-adv-x="215" 
d="M60 0v700h95v-700h-95z" />
    <glyph glyph-name="zero.tf" 
d="M435 350q0 265 -140 265t-140 -265t140 -265t140 265zM55 350q0 77 13 140.5t41 113.5t75 78t111 28t111 -28t75 -78t41 -113.5t13 -140.5t-13 -140.5t-41 -113.5t-75 -78t-111 -28t-111 28t-75 78t-41 113.5t-13 140.5z" />
    <glyph glyph-name="one.tf" 
d="M75 0v95h190v480l-155 -80v99l185 106h70v-605h160v-95h-450z" />
    <glyph glyph-name="two.tf" 
d="M165 522l-89 29q13 47 39 80.5t57.5 49.5t58.5 22.5t54 6.5q89 0 149.5 -62.5t60.5 -148.5q0 -98 -81 -192l-186 -212h267v-95h-420v65l239 273q45 51 63 85t18 76q0 47 -31.5 81.5t-79.5 34.5q-88 0 -119 -93z" />
    <glyph glyph-name="three.tf" 
d="M45 110l83 48q17 -33 53 -53t79 -20q60 0 102.5 41.5t42.5 103.5q0 63 -42.5 104t-108.5 41q-41 0 -81 -11v65l149 176h-242v95h390v-65l-154 -177q80 -12 134.5 -76.5t54.5 -151.5q0 -102 -70 -171t-169 -69q-73 0 -132 31t-89 89z" />
    <glyph glyph-name="four.tf" 
d="M40 170v65l360 465h70v-435h110v-95h-110v-170h-100v170h-330zM182 265h188v236z" />
    <glyph glyph-name="five.tf" 
d="M486 605h-246l-20 -147q36 12 66 12q102 0 170.5 -70.5t68.5 -169.5t-69 -169.5t-171 -70.5q-64 0 -118 27t-87 73l76 59q49 -64 130 -64q62 0 100.5 42t38.5 103t-39.5 103t-102.5 42t-106 -40l-69 10l50 355h328v-95z" />
    <glyph glyph-name="six.tf" 
d="M189 338q-35 -54 -35 -108q0 -62 41 -103.5t102 -41.5q62 0 102.5 41.5t40.5 101.5t-40.5 103.5t-100.5 43.5q-71 0 -110 -37zM423 700l-153 -235q13 2 38 2q97 0 164.5 -68t67.5 -169t-69.5 -170.5t-173.5 -69.5q-105 0 -173.5 69t-68.5 168q0 55 23 107q19 44 66 114
l166 252h113z" />
    <glyph glyph-name="seven.tf" 
d="M202 0h-107l300 605h-320v95h440v-65z" />
    <glyph glyph-name="eight.tf" 
d="M295 -10q-101 0 -170.5 64.5t-69.5 157.5q0 59 31 108t80 75q-29 20 -47.5 56t-18.5 74q0 77 56 131t139 54t139 -54t56 -131q0 -38 -18.5 -74t-47.5 -56q49 -26 80 -75t31 -108q0 -93 -69.5 -157.5t-170.5 -64.5zM295 340q-60 0 -100 -37t-40 -91t40 -90.5t100 -36.5
t100 36.5t40 90.5t-40 91t-100 37zM295 615q-41 0 -68 -26t-27 -64t27 -64t68 -26t68 26t27 64t-27 64t-68 26z" />
    <glyph glyph-name="nine.tf" 
d="M401 362q35 54 35 108q0 62 -41 103.5t-102 41.5q-62 0 -102.5 -41.5t-40.5 -101.5t40.5 -103.5t100.5 -43.5q71 0 110 37zM167 0l153 235q-13 -2 -38 -2q-97 0 -164.5 68t-67.5 169t69.5 170.5t173.5 69.5q105 0 173.5 -69t68.5 -168q0 -55 -23 -107q-19 -44 -66 -114
l-166 -252h-113z" />
    <glyph glyph-name="parenleft.case" horiz-adv-x="445" 
d="M245 350q0 -224 130 -407l-77 -53q-148 207 -148 460t148 460l77 -53q-130 -183 -130 -407z" />
    <glyph glyph-name="parenright.case" horiz-adv-x="445" 
d="M200 350q0 224 -130 407l77 53q148 -207 148 -460t-148 -460l-77 53q130 183 130 407z" />
    <glyph glyph-name="bracketleft.case" horiz-adv-x="445" 
d="M150 -100v900h245v-90h-150v-720h150v-90h-245z" />
    <glyph glyph-name="bracketright.case" horiz-adv-x="445" 
d="M295 800v-900h-245v90h150v720h-150v90h245z" />
    <glyph glyph-name="braceleft.case" horiz-adv-x="445" 
d="M192 350q53 -27 53 -103q0 -32 -5 -89.5t-5 -84.5q0 -43 17 -63q18 -20 59 -20h34v-90h-30q-84 0 -123 32q-52 41 -52 135q0 35 5 96.5t5 86.5q0 38 -18.5 54t-61.5 16v60q43 0 61.5 16t18.5 54q0 25 -5 86.5t-5 96.5q0 94 52 135q39 32 123 32h30v-90h-34q-41 0 -59 -20
q-17 -20 -17 -63q0 -27 5 -84.5t5 -89.5q0 -76 -53 -103z" />
    <glyph glyph-name="braceright.case" horiz-adv-x="445" 
d="M253 350q-53 27 -53 103q0 32 5 89.5t5 84.5q0 43 -17 63q-18 20 -59 20h-34v90h30q84 0 123 -32q52 -41 52 -135q0 -35 -5 -96.5t-5 -86.5q0 -38 18.5 -54t61.5 -16v-60q-43 0 -61.5 -16t-18.5 -54q0 -25 5 -86.5t5 -96.5q0 -94 -52 -135q-39 -32 -123 -32h-30v90h34
q41 0 59 20q17 20 17 63q0 27 -5 84.5t-5 89.5q0 76 53 103z" />
    <glyph glyph-name="a.ss01" horiz-adv-x="540" 
d="M370 142v63q-37 19 -85 19t-89 -19t-41 -62q0 -29 26 -48.5t63 -19.5q72 0 126 67zM131 351l-46 77q72 52 176 52q50 0 94.5 -21.5t73.5 -58.5q36 -48 36 -140v-260h-92v43q-49 -53 -138 -53q-74 0 -124.5 44t-50.5 111q0 75 56 119t138 44q57 0 115 -20q0 37 -20 62
q-30 40 -92 40q-63 0 -126 -39z" />
    <glyph glyph-name="zero.tf.zero" 
d="M55 350q0 77 13 140.5t41 113.5t75 78t111 28t111 -28t75 -78t41 -113.5t13 -140.5t-13 -140.5t-41 -113.5t-75 -78t-111 -28t-111 28t-75 78t-41 113.5t-13 140.5zM435 350q0 78 -12 130l-209 -362q31 -33 81 -33q140 0 140 265zM295 615q-140 0 -140 -265
q0 -74 11 -128l209 360q-31 33 -80 33z" />
    <glyph glyph-name="endash.ss04" horiz-adv-x="1090" 
d="M20 295h1050v-80h-1050v80z" />
    <glyph glyph-name="periodcentered.case" horiz-adv-x="340" 
d="M100 350q0 29 20.5 49.5t49.5 20.5t49.5 -20.5t20.5 -49.5t-20.5 -49.5t-49.5 -20.5t-49.5 20.5t-20.5 49.5z" />
    <glyph glyph-name="bullet.case" horiz-adv-x="560" 
d="M80 350q0 82 59 141t141 59t141 -59t59 -141t-59 -141t-141 -59t-141 59t-59 141z" />
    <glyph glyph-name="asterisk.ss05" horiz-adv-x="500" 
d="M48 420l122 70l-122 70l40 70l122 -71v141h80v-141l122 71l40 -70l-121 -70l121 -70l-40 -70l-122 70v-140h-80v140l-122 -70z" />
    <glyph glyph-name="zero.zero" 
d="M55 350q0 77 13 140.5t41 113.5t75 78t111 28t111 -28t75 -78t41 -113.5t13 -140.5t-13 -140.5t-41 -113.5t-75 -78t-111 -28t-111 28t-75 78t-41 113.5t-13 140.5zM435 350q0 78 -12 130l-209 -362q31 -33 81 -33q140 0 140 265zM295 615q-140 0 -140 -265
q0 -74 11 -128l209 360q-31 33 -80 33z" />
    <glyph glyph-name="uni2070.zero" horiz-adv-x="326" 
d="M296 520q0 -89 -35 -139.5t-99 -50.5q-63 0 -97.5 50.5t-34.5 139.5t34.5 139.5t97.5 50.5q64 0 99 -50.5t35 -139.5zM221 520q0 13 -2 35l-85 -145q10 -10 27 -10q60 0 60 120zM161 640q-56 0 -56 -120q0 -22 1 -32l83 143q-12 9 -28 9z" />
    <glyph glyph-name="uni2080.zero" horiz-adv-x="326" 
d="M296 180q0 -89 -35 -139.5t-99 -50.5q-63 0 -97.5 50.5t-34.5 139.5t34.5 139.5t97.5 50.5q64 0 99 -50.5t35 -139.5zM221 180q0 13 -2 35l-85 -145q10 -10 27 -10q60 0 60 120zM161 300q-56 0 -56 -120q0 -22 1 -32l83 143q-12 9 -28 9z" />
    <glyph glyph-name="emdash.ss04" horiz-adv-x="1390" 
d="M20 295h1350v-80h-1350v80z" />
    <glyph glyph-name="hyphen.case" horiz-adv-x="460" 
d="M80 420h300v-80h-300v80z" />
    <glyph glyph-name="endash.case" horiz-adv-x="490" 
d="M20 420h450v-80h-450v80z" />
    <glyph glyph-name="emdash.case" horiz-adv-x="790" 
d="M20 420h750v-80h-750v80z" />
    <glyph glyph-name="endash.case.ss04" horiz-adv-x="1090" 
d="M20 420h1050v-80h-1050v80z" />
    <glyph glyph-name="emdash.case.ss04" horiz-adv-x="1390" 
d="M20 420h1350v-80h-1350v80z" />
    <glyph glyph-name="guillemotleft.case" horiz-adv-x="600" 
d="M176 335l154 -190h-116l-134 165v50l134 165h116zM406 335l154 -190h-116l-134 165v50l134 165h116z" />
    <glyph glyph-name="guillemotright.case" horiz-adv-x="600" 
d="M270 145l154 190l-154 190h116l134 -165v-50l-134 -165h-116zM40 145l154 190l-154 190h116l134 -165v-50l-134 -165h-116z" />
    <glyph glyph-name="guilsinglleft.case" horiz-adv-x="370" 
d="M176 335l154 -190h-116l-134 165v50l134 165h116z" />
    <glyph glyph-name="guilsinglright.case" horiz-adv-x="370" 
d="M40 145l154 190l-154 190h116l134 -165v-50l-134 -165h-116z" />
    <glyph glyph-name="bar.case" horiz-adv-x="215" 
d="M60 -100v900h95v-900h-95z" />
    <glyph glyph-name="aacute.ss01" horiz-adv-x="540" 
d="M302 550h-65l65 150h105zM370 142v63q-37 19 -85 19t-89 -19t-41 -62q0 -29 26 -48.5t63 -19.5q72 0 126 67zM131 351l-46 77q72 52 176 52q50 0 94.5 -21.5t73.5 -58.5q36 -48 36 -140v-260h-92v43q-49 -53 -138 -53q-74 0 -124.5 44t-50.5 111q0 75 56 119t138 44
q57 0 115 -20q0 37 -20 62q-30 40 -92 40q-63 0 -126 -39z" />
    <glyph glyph-name="agrave.ss01" horiz-adv-x="540" 
d="M338 550h-65l-105 150h105zM370 142v63q-37 19 -85 19t-89 -19t-41 -62q0 -29 26 -48.5t63 -19.5q72 0 126 67zM131 351l-46 77q72 52 176 52q50 0 94.5 -21.5t73.5 -58.5q36 -48 36 -140v-260h-92v43q-49 -53 -138 -53q-74 0 -124.5 44t-50.5 111q0 75 56 119t138 44
q57 0 115 -20q0 37 -20 62q-30 40 -92 40q-63 0 -126 -39z" />
    <glyph glyph-name="acircumflex.ss01" horiz-adv-x="540" 
d="M186 550h-65l95 150h110l95 -150h-65l-85 94zM370 142v63q-37 19 -85 19t-89 -19t-41 -62q0 -29 26 -48.5t63 -19.5q72 0 126 67zM131 351l-46 77q72 52 176 52q50 0 94.5 -21.5t73.5 -58.5q36 -48 36 -140v-260h-92v43q-49 -53 -138 -53q-74 0 -124.5 44t-50.5 111
q0 75 56 119t138 44q57 0 115 -20q0 37 -20 62q-30 40 -92 40q-63 0 -126 -39z" />
    <glyph glyph-name="adieresis.ss01" horiz-adv-x="540" 
d="M127 617q0 26 18 44.5t44 18.5t44.5 -18.5t18.5 -44.5t-18.5 -44t-44.5 -18t-44 18t-18 44zM312 617q0 26 18 44.5t44 18.5t44.5 -18.5t18.5 -44.5t-18.5 -44t-44.5 -18t-44 18t-18 44zM370 142v63q-37 19 -85 19t-89 -19t-41 -62q0 -29 26 -48.5t63 -19.5q72 0 126 67z
M131 351l-46 77q72 52 176 52q50 0 94.5 -21.5t73.5 -58.5q36 -48 36 -140v-260h-92v43q-49 -53 -138 -53q-74 0 -124.5 44t-50.5 111q0 75 56 119t138 44q57 0 115 -20q0 37 -20 62q-30 40 -92 40q-63 0 -126 -39z" />
    <glyph glyph-name="atilde.ss01" horiz-adv-x="540" 
d="M370 690l69 -21q-2 -46 -29.5 -77.5t-71.5 -31.5q-27 0 -71.5 22.5t-64.5 22.5q-30 0 -38 -45l-67 21q2 46 28.5 77.5t70.5 31.5q27 0 71.5 -22.5t64.5 -22.5q30 0 38 45zM370 142v63q-37 19 -85 19t-89 -19t-41 -62q0 -29 26 -48.5t63 -19.5q72 0 126 67zM131 351
l-46 77q72 52 176 52q50 0 94.5 -21.5t73.5 -58.5q36 -48 36 -140v-260h-92v43q-49 -53 -138 -53q-74 0 -124.5 44t-50.5 111q0 75 56 119t138 44q57 0 115 -20q0 37 -20 62q-30 40 -92 40q-63 0 -126 -39z" />
    <glyph glyph-name="aring.ss01" horiz-adv-x="540" 
d="M182 630q0 41 29.5 70.5t70.5 29.5t70.5 -29.5t29.5 -70.5t-29.5 -70.5t-70.5 -29.5t-70.5 29.5t-29.5 70.5zM242 630q0 -16 12 -28t28 -12t28 12t12 28t-12 28t-28 12t-28 -12t-12 -28zM370 142v63q-37 19 -85 19t-89 -19t-41 -62q0 -29 26 -48.5t63 -19.5q72 0 126 67z
M131 351l-46 77q72 52 176 52q50 0 94.5 -21.5t73.5 -58.5q36 -48 36 -140v-260h-92v43q-49 -53 -138 -53q-74 0 -124.5 44t-50.5 111q0 75 56 119t138 44q57 0 115 -20q0 37 -20 62q-30 40 -92 40q-63 0 -126 -39z" />
    <glyph glyph-name="ae.ss01" horiz-adv-x="867" 
d="M599 397q-46 0 -83 -28.5t-49 -73.5h256q-10 44 -45.5 73t-78.5 29zM244 75q72 0 126 67v63q-37 19 -85 19t-89 -19t-41 -62q0 -29 26 -48.5t63 -19.5zM465 0h-92v43q-49 -53 -138 -53q-74 0 -124.5 44t-50.5 111q0 75 56 119t138 44q62 0 115 -18q-3 38 -20 60
q-30 40 -92 40q-63 0 -126 -39l-46 77q72 52 176 52q51 0 96.5 -21.5t73.5 -60.5q55 82 165 82q98 0 162 -70t64 -175q0 -11 -1 -20h-362q7 -63 49.5 -102.5t102.5 -39.5q33 0 61.5 10.5t42 21t33.5 29.5l60 -56q-29 -37 -80 -62.5t-115 -25.5q-87 0 -148 55v-45z" />
    <glyph glyph-name="zero.dnom" horiz-adv-x="326" 
d="M221 180q0 120 -60 120q-56 0 -56 -120t56 -120q60 0 60 120zM296 180q0 -89 -35 -139.5t-99 -50.5q-63 0 -97.5 50.5t-34.5 139.5t34.5 139.5t97.5 50.5q64 0 99 -50.5t35 -139.5z" />
    <glyph glyph-name="one.dnom" horiz-adv-x="235" 
d="M30 229v75l110 56h45v-360h-75v266z" />
    <glyph glyph-name="two.dnom" horiz-adv-x="311" 
d="M101 255l-70 21q11 43 43.5 68.5t77.5 25.5q50 0 86 -33t36 -84q0 -47 -43 -95l-79 -88h124v-70h-246v40l136 152q33 35 33 61q0 19 -13 33t-34 14q-38 0 -51 -45z" />
    <glyph glyph-name="three.dnom" horiz-adv-x="303" 
d="M20 54l60 38q20 -34 58 -34q26 0 43 17.5t17 42.5t-17 43.5t-44 18.5q-22 0 -49 -11v40l61 81h-115v70h223v-40l-64 -88q35 -12 57.5 -44t22.5 -70q0 -54 -39 -91t-96 -37q-77 0 -118 64z" />
    <glyph glyph-name="four.dnom" horiz-adv-x="337" 
d="M216 360h45v-213h61v-70h-61v-77h-75v77h-161v40zM136 147h50v66z" />
    <glyph glyph-name="five.dnom" horiz-adv-x="295" 
d="M88 155l-47 7l28 198h190v-70h-124l-7 -50q10 1 16 1q54 0 90 -36.5t36 -87.5q0 -54 -38 -90.5t-94 -36.5q-75 0 -113 58l58 40q21 -28 55 -28q24 0 40.5 16t16.5 41q0 24 -16 41t-43 17q-25 0 -48 -20z" />
    <glyph glyph-name="six.dnom" horiz-adv-x="309" 
d="M238 360l-75 -119q56 -2 91 -38.5t35 -87.5q0 -53 -38.5 -89t-92.5 -36q-57 0 -95 36.5t-38 88.5q0 41 26 81l104 164h83zM157 172q-21 0 -38 -10q-19 -23 -19 -47t16.5 -40.5t41.5 -16.5q24 0 40 16.5t16 40.5t-16 40.5t-41 16.5z" />
    <glyph glyph-name="seven.dnom" horiz-adv-x="267" 
d="M10 290v70h247v-40l-145 -320h-79l133 290h-156z" />
    <glyph glyph-name="eight.dnom" horiz-adv-x="308" 
d="M213 114q0 23 -16 39t-42 16q-27 0 -43.5 -16t-16.5 -39q0 -24 16.5 -39t43.5 -15t42.5 15t15.5 39zM119 264q0 -15 9.5 -25.5t25.5 -10.5q17 0 26 10t9 26q0 36 -35 36q-16 0 -25.5 -10t-9.5 -26zM44 268q0 43 31.5 72.5t79.5 29.5q46 0 77.5 -29.5t31.5 -72.5
q0 -36 -26 -65q50 -37 50 -93q0 -50 -38.5 -85t-94.5 -35q-57 0 -96 35t-39 85q0 55 50 93q-26 29 -26 65z" />
    <glyph glyph-name="nine.dnom" horiz-adv-x="309" 
d="M71 0l75 119q-56 2 -91 38.5t-35 87.5q0 53 38.5 89t92.5 36q57 0 95 -36.5t38 -88.5q0 -41 -26 -81l-104 -164h-83zM152 188q21 0 38 10q19 23 19 47t-16.5 40.5t-41.5 16.5q-24 0 -40 -16.5t-16 -40.5t16 -40.5t41 -16.5z" />
    <glyph glyph-name="zero.numr" horiz-adv-x="326" 
d="M221 520q0 120 -60 120q-56 0 -56 -120t56 -120q60 0 60 120zM296 520q0 -89 -35 -139.5t-99 -50.5q-63 0 -97.5 50.5t-34.5 139.5t34.5 139.5t97.5 50.5q64 0 99 -50.5t35 -139.5z" />
    <glyph glyph-name="one.numr" horiz-adv-x="235" 
d="M30 569v75l110 56h45v-360h-75v266z" />
    <glyph glyph-name="two.numr" horiz-adv-x="311" 
d="M101 595l-70 21q11 43 43.5 68.5t77.5 25.5q50 0 86 -33t36 -84q0 -47 -43 -95l-79 -88h124v-70h-246v40l136 152q33 35 33 61q0 19 -13 33t-34 14q-38 0 -51 -45z" />
    <glyph glyph-name="three.numr" horiz-adv-x="303" 
d="M20 394l60 38q20 -34 58 -34q26 0 43 17.5t17 42.5t-17 43.5t-44 18.5q-22 0 -49 -11v40l61 81h-115v70h223v-40l-64 -88q35 -12 57.5 -44t22.5 -70q0 -54 -39 -91t-96 -37q-77 0 -118 64z" />
    <glyph glyph-name="four.numr" horiz-adv-x="337" 
d="M216 700h45v-213h61v-70h-61v-77h-75v77h-161v40zM136 487h50v66z" />
    <glyph glyph-name="five.numr" horiz-adv-x="295" 
d="M88 495l-47 7l28 198h190v-70h-124l-7 -50q10 1 16 1q54 0 90 -36.5t36 -87.5q0 -54 -38 -90.5t-94 -36.5q-75 0 -113 58l58 40q21 -28 55 -28q24 0 40.5 16t16.5 41q0 24 -16 41t-43 17q-25 0 -48 -20z" />
    <glyph glyph-name="six.numr" horiz-adv-x="309" 
d="M238 700l-75 -119q56 -2 91 -38.5t35 -87.5q0 -53 -38.5 -89t-92.5 -36q-57 0 -95 36.5t-38 88.5q0 41 26 81l104 164h83zM157 512q-21 0 -38 -10q-19 -23 -19 -47t16.5 -40.5t41.5 -16.5q24 0 40 16.5t16 40.5t-16 40.5t-41 16.5z" />
    <glyph glyph-name="seven.numr" horiz-adv-x="267" 
d="M10 630v70h247v-40l-145 -320h-79l133 290h-156z" />
    <glyph glyph-name="eight.numr" horiz-adv-x="308" 
d="M213 454q0 23 -16 39t-42 16q-27 0 -43.5 -16t-16.5 -39q0 -24 16.5 -39t43.5 -15t42.5 15t15.5 39zM119 604q0 -15 9.5 -25.5t25.5 -10.5q17 0 26 10t9 26q0 36 -35 36q-16 0 -25.5 -10t-9.5 -26zM44 608q0 43 31.5 72.5t79.5 29.5q46 0 77.5 -29.5t31.5 -72.5
q0 -36 -26 -65q50 -37 50 -93q0 -50 -38.5 -85t-94.5 -35q-57 0 -96 35t-39 85q0 55 50 93q-26 29 -26 65z" />
    <glyph glyph-name="nine.numr" horiz-adv-x="309" 
d="M71 340l75 119q-56 2 -91 38.5t-35 87.5q0 53 38.5 89t92.5 36q57 0 95 -36.5t38 -88.5q0 -41 -26 -81l-104 -164h-83zM152 526q21 0 38 10q19 23 19 47t-16.5 40.5t-41.5 16.5q-24 0 -40 -16.5t-16 -40.5t16 -40.5t41 -16.5z" />
    <glyph glyph-name="zero.dnom.zero" horiz-adv-x="326" 
d="M296 180q0 -89 -35 -139.5t-99 -50.5q-63 0 -97.5 50.5t-34.5 139.5t34.5 139.5t97.5 50.5q64 0 99 -50.5t35 -139.5zM221 180q0 13 -2 35l-85 -145q10 -10 27 -10q60 0 60 120zM161 300q-56 0 -56 -120q0 -22 1 -32l83 143q-12 9 -28 9z" />
    <glyph glyph-name="zero.numr.zero" horiz-adv-x="326" 
d="M296 520q0 -89 -35 -139.5t-99 -50.5q-63 0 -97.5 50.5t-34.5 139.5t34.5 139.5t97.5 50.5q64 0 99 -50.5t35 -139.5zM221 520q0 13 -2 35l-85 -145q10 -10 27 -10q60 0 60 120zM161 640q-56 0 -56 -120q0 -22 1 -32l83 143q-12 9 -28 9z" />
    <glyph glyph-name="minus.tf" 
d="M75 305h440v-90h-440v90z" />
    <glyph glyph-name="multiply.tf" 
d="M150 469l145 -145l145 145l64 -64l-145 -145l145 -145l-64 -64l-145 145l-145 -145l-64 64l145 145l-145 145z" />
    <glyph glyph-name="numbersign.tf" 
d="M542 195h-127l-53 -195h-93l53 195h-137l-53 -195h-93l53 195h-102v90h126l34 130h-103v90h127l53 195h93l-53 -195h137l53 195h93l-53 -195h103v-90h-127l-34 -130h103v-90zM243 415l-34 -130h137l34 130h-137z" />
    <glyph glyph-name="dollar.tf" 
d="M298 85q50 0 86 29.5t36 75.5q0 48 -36.5 77t-106 56.5t-98.5 46.5q-89 59 -89 154q0 66 46 117t119 64v110h95v-109q77 -13 140 -66l-59 -73q-57 48 -125 48q-47 0 -81.5 -25.5t-34.5 -68.5q0 -40 37 -66.5t104.5 -54t97.5 -47.5q91 -60 91 -160q0 -78 -47.5 -131.5
t-122.5 -67.5v-109h-95v109q-119 17 -197 113l69 68q74 -90 171 -90z" />
    <glyph glyph-name="plus.tf" 
d="M75 305h175v175h90v-175h175v-90h-175v-175h-90v175h-175v90z" />
    <glyph glyph-name="less.tf" 
d="M234 260l281 -120v-98l-440 188v60l440 188v-98z" />
    <glyph glyph-name="equal.tf" 
d="M75 395h440v-90h-440v90zM75 215h440v-90h-440v90z" />
    <glyph glyph-name="greater.tf" 
d="M75 140l281 120l-281 120v98l440 -188v-60l-440 -188v98z" />
    <glyph glyph-name="cent.tf" 
d="M262 -115v111q-88 17 -142.5 82.5t-54.5 156.5t55 157.5t142 82.5v110h95v-110q95 -18 153 -97l-70 -59q-51 71 -130 71q-64 0 -107 -44t-43 -111q0 -69 44 -112t112 -43q81 0 136 73l73 -53q-25 -41 -70 -69.5t-98 -36.5v-109h-95z" />
    <glyph glyph-name="sterling.tf" 
d="M267 400h148v-85h-120q6 -29 6 -60q0 -98 -58 -165h292v-90h-465v60q63 24 99.5 81.5t36.5 113.5q0 26 -9 60h-107v85h76q-30 73 -30 124q0 80 57.5 133t135.5 53q108 0 174 -94l-75 -54q-37 58 -99 58q-38 0 -68 -27t-30 -71q0 -11 1.5 -22.5t6.5 -26t7.5 -22.5
t10.5 -27z" />
    <glyph glyph-name="section.tf" 
d="M97 524q0 77 60.5 131.5t151.5 54.5q104 0 188 -70l-59 -73q-57 48 -125 48q-47 0 -81.5 -23t-34.5 -65q0 -34 34 -56t102.5 -46.5t101.5 -42.5q105 -57 105 -160q0 -46 -25 -90t-64 -73q42 -44 42 -103q0 -77 -60.5 -131.5t-151.5 -54.5q-104 0 -188 70l59 73
q57 -48 125 -48q47 0 81.5 23t34.5 65q0 34 -34 56t-102.5 46.5t-101.5 42.5q-105 57 -105 160q0 46 25 89.5t64 73.5q-42 40 -42 103zM150 262q0 -25 12 -44t37 -33.5t48 -24.5t60.5 -24t58.5 -23q29 14 51.5 43.5t22.5 61.5q0 25 -12 44t-37 33.5t-48 24.5t-60.5 23.5
t-59.5 23.5q-29 -15 -51 -44t-22 -61z" />
    <glyph glyph-name="notequal.tf" 
d="M75 395h245l61 105h104l-61 -105h91v-90h-142l-52 -90h194v-90h-246l-60 -105h-104l60 105h-90v90h142l52 90h-194v90z" />
    <glyph glyph-name="plusminus.tf" 
d="M75 365h175v135h90v-135h175v-90h-175v-135h-90v135h-175v90zM75 110h440v-90h-440v90z" />
    <glyph glyph-name="lessequal.tf" 
d="M75 110h440v-90h-440v90zM269 320l246 -83v-95l-440 148v60l440 148v-95z" />
    <glyph glyph-name="greaterequal.tf" 
d="M75 110h440v-90h-440v90zM75 237l246 83l-246 83v95l440 -148v-60l-440 -148v95z" />
    <glyph glyph-name="yen.tf" 
d="M345 315h190v-85h-190v-230h-100v230h-190v85h190l-44 70h-146v85h93l-143 230h114l176 -286l176 286h114l-144 -230h94v-85h-147z" />
    <glyph glyph-name="mu.tf" 
d="M285 -10q-35 0 -66.5 14t-48.5 31v-275h-95v710h95v-255q0 -62 27 -94q34 -41 88 -41q74 0 135 67v323h95v-470h-92v43q-20 -20 -57 -36.5t-81 -16.5z" />
    <glyph glyph-name="partialdiff.tf" 
d="M165 710h111l191 -289q71 -108 71 -186q0 -102 -70 -173.5t-173 -71.5q-104 0 -173.5 71t-69.5 174t69 174t174 71q7 0 23 -2zM295 390q-64 0 -106 -45t-42 -110t42 -110t106 -45t106 45t42 110q0 70 -52 132q-44 23 -96 23z" />
    <glyph glyph-name="summation.tf" 
d="M460 500v110h-267l211 -220v-60l-224 -240h290v110h90v-200h-530v60l280 300l-270 280v60h510v-200h-90z" />
    <glyph glyph-name="product.tf" 
d="M215 0h-95v610h-100v90h550v-90h-100v-610h-95v610h-160v-610z" />
    <glyph glyph-name="pi.tf" 
d="M502 68l-54 -78q-44 22 -58.5 61.5t-14.5 98.5v230h-100v-380h-95v374q-16 -3 -28 -9q-29 -14 -55 -51l-77 46q33 63 102 92q44 18 107 18h341v-90h-100v-227q0 -25 1 -37t8.5 -25.5t22.5 -22.5z" />
    <glyph glyph-name="integral.tf" 
d="M177 -44q18 61 34.5 276.5t34.5 286.5q21 83 61 127q58 64 154 64q40 0 75 -14l-26 -83q-24 7 -49 7q-52 0 -83 -35q-25 -30 -39 -81q-18 -61 -34.5 -276.5t-34.5 -286.5q-21 -83 -61 -127q-58 -64 -154 -64q-40 0 -75 14l26 83q24 -7 49 -7q52 0 83 35q25 30 39 81z" />
    <glyph glyph-name="logicalnot.tf" 
d="M515 395v-270h-90v180h-350v90h440z" />
    <glyph glyph-name="radical.tf" 
d="M464 700h96l-249 -700h-66l-156 380h-109v90h170l125 -304z" />
    <glyph glyph-name="florin.tf" 
d="M177 -44q8 27 14.5 72.5t9.5 81.5l8.5 105.5t8.5 99.5h-152v85h160q9 77 20 119q21 83 61 127q58 64 154 64q40 0 75 -14l-26 -83q-24 7 -49 7q-52 0 -83 -35q-25 -30 -39 -81q-11 -36 -19 -104h152v-85h-161l-7.5 -97.5l-8.5 -108.5t-10 -86.5t-15 -81.5
q-21 -83 -61 -127q-58 -64 -154 -64q-40 0 -75 14l26 83q24 -7 49 -7q52 0 83 35q25 30 39 81z" />
    <glyph glyph-name="asciicircum.tf" 
d="M185 350h-100l177 350h66l177 -350h-100l-110 217z" />
    <glyph glyph-name="Delta.tf" 
d="M262 700h66l247 -640v-60h-560v60zM123 90h344l-172 446z" />
    <glyph glyph-name="Euro.tf" 
d="M159 350q0 -24 1 -35h267v-85h-250q23 -67 70 -106t116 -39q94 0 149 73l78 -51q-84 -117 -227 -117q-112 0 -187.5 66t-103.5 174h-82v85h68q-1 11 -1 35q0 23 1 35h-68v85h82q27 108 101.5 174t184.5 66q138 0 222 -117l-78 -51q-55 73 -144 73q-67 0 -113 -39
t-68 -106h250v-85h-267q-1 -12 -1 -35z" />
    <glyph glyph-name="currency.tf" 
d="M89 351q0 60 32 111l-76 76l63 63l76 -76q51 32 111 32t111 -32l76 76l63 -63l-76 -76q32 -49 32 -111t-32 -111l76 -76l-63 -63l-76 76q-49 -32 -111 -32t-111 32l-76 -76l-63 63l76 76q-32 51 -32 111zM184 351q0 -46 32.5 -78.5t78.5 -32.5t78.5 32.5t32.5 78.5
t-32.5 78.5t-78.5 32.5t-78.5 -32.5t-32.5 -78.5z" />
    <glyph glyph-name="lozenge.tf" 
d="M262 0l-207 320v60l207 320h66l207 -320v-60l-207 -320h-66zM295 587l-152 -237l152 -237l152 237z" />
    <glyph glyph-name="divide.tf" 
d="M75 305h440v-90h-440v90zM225 100q0 29 20.5 49.5t49.5 20.5t49.5 -20.5t20.5 -49.5t-20.5 -49.5t-49.5 -20.5t-49.5 20.5t-20.5 49.5zM225 420q0 29 20.5 49.5t49.5 20.5t49.5 -20.5t20.5 -49.5t-20.5 -49.5t-49.5 -20.5t-49.5 20.5t-20.5 49.5z" />
    <glyph glyph-name="quotedbl.tf" 
d="M160 450l-15 250h95l-15 -250h-65zM365 450l-15 250h95l-15 -250h-65z" />
    <glyph glyph-name="quotesingle.tf" 
d="M263 450l-15 250h95l-15 -250h-65z" />
    <glyph glyph-name="at.case" horiz-adv-x="1000" 
d="M591 270v165q-41 45 -103 45q-49 0 -85 -34t-36 -96q0 -63 36.5 -96.5t86.5 -33.5q51 0 101 50zM713 64l47 -70q-109 -84 -253 -84q-181 0 -309 129t-128 311t128 311t309 129q117 0 213 -49.5t153 -142t57 -208.5q0 -109 -49.5 -182t-142.5 -73q-83 0 -124 59
q-47 -59 -138 -59q-79 0 -139 58t-60 157t60.5 157t141.5 58q70 0 117 -44v34h85v-243q0 -44 10 -62q18 -30 54 -30q46 0 71.5 46.5t25.5 125.5q0 136 -95.5 224.5t-239.5 88.5t-245.5 -104t-101.5 -251t101.5 -251t245.5 -104q113 0 206 69z" />
    <glyph glyph-name="amacron.ss01" horiz-adv-x="540" 
d="M130 660h300v-85h-300v85zM370 142v63q-37 19 -85 19t-89 -19t-41 -62q0 -29 26 -48.5t63 -19.5q72 0 126 67zM131 351l-46 77q72 52 176 52q50 0 94.5 -21.5t73.5 -58.5q36 -48 36 -140v-260h-92v43q-49 -53 -138 -53q-74 0 -124.5 44t-50.5 111q0 75 56 119t138 44
q57 0 115 -20q0 37 -20 62q-30 40 -92 40q-63 0 -126 -39z" />
    <glyph glyph-name="abreve.ss01" horiz-adv-x="540" 
d="M325 700h80q0 -58 -41 -99t-99 -41t-99 41t-41 99h80q0 -25 17.5 -42.5t42.5 -17.5t42.5 17.5t17.5 42.5zM370 142v63q-37 19 -85 19t-89 -19t-41 -62q0 -29 26 -48.5t63 -19.5q72 0 126 67zM131 351l-46 77q72 52 176 52q50 0 94.5 -21.5t73.5 -58.5q36 -48 36 -140
v-260h-92v43q-49 -53 -138 -53q-74 0 -124.5 44t-50.5 111q0 75 56 119t138 44q57 0 115 -20q0 37 -20 62q-30 40 -92 40q-63 0 -126 -39z" />
    <glyph glyph-name="aogonek.ss01" horiz-adv-x="540" 
d="M370 142v63q-37 19 -85 19t-89 -19t-41 -62q0 -29 26 -48.5t63 -19.5q72 0 126 67zM373 14v29q-49 -53 -138 -53q-74 0 -124.5 44t-50.5 111q0 75 56 119t138 44q57 0 115 -20q0 37 -20 62q-30 40 -92 40q-63 0 -126 -39l-46 77q72 52 176 52q50 0 94.5 -21.5t73.5 -58.5
q36 -48 36 -140v-260h-7q-31 -46 -31 -86q0 -21 13 -32.5t34 -11.5q13 0 23 4l15 -85q-21 -9 -55 -9q-54 0 -89.5 34.5t-35.5 85.5q0 34 13 66t28 48z" />
    <glyph glyph-name="aringacute.ss01" horiz-adv-x="540" 
d="M302 760h-65l65 150h105zM182 630q0 41 29.5 70.5t70.5 29.5t70.5 -29.5t29.5 -70.5t-29.5 -70.5t-70.5 -29.5t-70.5 29.5t-29.5 70.5zM242 630q0 -16 12 -28t28 -12t28 12t12 28t-12 28t-28 12t-28 -12t-12 -28zM370 142v63q-37 19 -85 19t-89 -19t-41 -62
q0 -29 26 -48.5t63 -19.5q72 0 126 67zM131 351l-46 77q72 52 176 52q50 0 94.5 -21.5t73.5 -58.5q36 -48 36 -140v-260h-92v43q-49 -53 -138 -53q-74 0 -124.5 44t-50.5 111q0 75 56 119t138 44q57 0 115 -20q0 37 -20 62q-30 40 -92 40q-63 0 -126 -39z" />
    <glyph glyph-name="aeacute.ss01" horiz-adv-x="867" 
d="M485 550h-65l65 150h105zM599 397q-46 0 -83 -28.5t-49 -73.5h256q-10 44 -45.5 73t-78.5 29zM244 75q72 0 126 67v63q-37 19 -85 19t-89 -19t-41 -62q0 -29 26 -48.5t63 -19.5zM465 0h-92v43q-49 -53 -138 -53q-74 0 -124.5 44t-50.5 111q0 75 56 119t138 44
q62 0 115 -18q-3 38 -20 60q-30 40 -92 40q-63 0 -126 -39l-46 77q72 52 176 52q51 0 96.5 -21.5t73.5 -60.5q55 82 165 82q98 0 162 -70t64 -175q0 -11 -1 -20h-362q7 -63 49.5 -102.5t102.5 -39.5q33 0 61.5 10.5t42 21t33.5 29.5l60 -56q-29 -37 -80 -62.5t-115 -25.5
q-87 0 -148 55v-45z" />
    <glyph glyph-name="asterisk.ss06" horiz-adv-x="500" 
d="M64 387l-24 75l146 47l-90 125l64 46l90 -125l91 125l64 -47l-91 -124l147 -48l-25 -76l-146 48v-153h-80v154z" />
    <glyph glyph-name="asterisk.ss07" horiz-adv-x="500" 
d="M180 692l70 -122l70 122l70 -40l-71 -122h141v-80h-141l71 -122l-70 -40l-70 121l-70 -121l-70 40l70 122h-140v80h140l-70 122z" />
    <glyph glyph-name="asterisk.ss08" horiz-adv-x="500" 
d="M180 692l70 -122l-70 -40v-80l70 -41l-70 -121l-70 40l70 122h-140v80h140l-70 122zM390 652l-71 -122h141v-80h-141v80l-69 40l70 122zM319 450l71 -122l-70 -40l-70 121z" />
    <glyph glyph-name="asterisk.ss09" horiz-adv-x="500" 
d="M436 359l-56 -56l-80 80l56 57zM200 596l-56 -56l-80 80l56 57zM381 676l56 -56l-80 -80l-57 56zM144 440l56 -56l-80 -80l-57 56zM460 530v-80h-170v80h170zM210 530v-80h-170v80h170zM210 700h80v-170h-80v170zM210 450h80v-170h-80v170z" />
    <glyph glyph-name="f.ss02" horiz-adv-x="435" 
d="M415 700l-35 -83q-30 13 -60 13q-47 0 -72 -33q-18 -24 -18 -84v-43h175v-85h-175v-385h-95v385h-110v85h110v40q0 89 30 132q54 78 154 78q53 0 96 -20z" />
    <glyph glyph-name="j.ss02" horiz-adv-x="285" 
d="M200 470v-510q0 -88 -30 -133q-24 -37 -63.5 -57t-86.5 -20q-64 0 -105 25l40 78q24 -13 58 -13q49 0 73 32q19 25 19 85v513h95zM90 637q0 26 18 44.5t44 18.5t44.5 -18.5t18.5 -44.5t-18.5 -44t-44.5 -18t-44 18t-18 44z" />
    <glyph glyph-name="t.ss02" horiz-adv-x="465" 
d="M378 98l37 -77q-42 -31 -112 -31q-83 0 -132 55q-41 45 -41 125v215h-120v85h120v130h95v-130h200v-85h-200v-220q0 -39 18 -60q20 -25 63 -25q41 0 72 18z" />
    <glyph glyph-name="fi.ss02" horiz-adv-x="665" 
d="M470 647q0 26 18 44.5t44 18.5t44.5 -18.5t18.5 -44.5t-18.5 -44t-44.5 -18t-44 18t-18 44zM135 470v40q0 89 30 132q54 78 154 78q53 0 96 -20l-35 -83q-30 13 -60 13q-47 0 -72 -33q-18 -24 -18 -84v-43h350v-470h-95v385h-255v-385h-95v385h-110v85h110z" />
    <glyph glyph-name="fl.ss02" horiz-adv-x="665" 
d="M135 470v40q0 89 30 132q54 78 154 78q53 0 96 -20l-35 -83q-30 13 -60 13q-47 0 -72 -33q-18 -24 -18 -84v-43h255v240h95v-710h-95v385h-255v-385h-95v385h-110v85h110z" />
    <glyph glyph-name="uniFB00.ss02" horiz-adv-x="785" 
d="M765 700l-35 -83q-30 13 -60 13q-47 0 -72 -33q-18 -24 -18 -84v-43h175v-85h-175v-385h-95v385h-255v-385h-95v385h-110v85h110v40q0 89 30 132q54 78 154 78q53 0 96 -20l-35 -83q-30 13 -60 13q-47 0 -72 -33q-18 -24 -18 -84v-43h255v40q0 89 30 132q54 78 154 78
q53 0 96 -20z" />
    <glyph glyph-name="uniFB03.ss02" horiz-adv-x="1015" 
d="M930 470v-470h-95v385h-255v-385h-95v385h-255v-385h-95v385h-110v85h110v40q0 89 30 132q54 78 154 78q53 0 96 -20l-35 -83q-30 13 -60 13q-47 0 -72 -33q-18 -24 -18 -84v-43h255v40q0 89 30 132q54 78 154 78q53 0 96 -20l-35 -83q-30 13 -60 13q-47 0 -72 -33
q-18 -24 -18 -84v-43h350zM820 647q0 26 18 44.5t44 18.5t44.5 -18.5t18.5 -44.5t-18.5 -44t-44.5 -18t-44 18t-18 44z" />
    <glyph glyph-name="uniFB04.ss02" horiz-adv-x="1015" 
d="M835 0v385h-255v-385h-95v385h-255v-385h-95v385h-110v85h110v40q0 89 30 132q54 78 154 78q53 0 96 -20l-35 -83q-30 13 -60 13q-47 0 -72 -33q-18 -24 -18 -84v-43h255v40q0 89 30 132q54 78 154 78q53 0 96 -20l-35 -83q-30 13 -60 13q-47 0 -72 -33q-18 -24 -18 -84
v-43h255v240h95v-710h-95z" />
    <glyph glyph-name="tbar.ss02" horiz-adv-x="465" 
d="M130 285v100h-120v85h120v130h95v-130h200v-85h-200v-100h200v-85h-200v-35q0 -39 18 -60q20 -25 63 -25q41 0 72 18l37 -77q-42 -31 -112 -31q-83 0 -132 55q-41 45 -41 125v30h-120v85h120z" />
    <glyph glyph-name="ij.ss02" horiz-adv-x="535" 
d="M85 0v470h95v-470h-95zM70 637q0 26 18 44.5t44 18.5t44.5 -18.5t18.5 -44.5t-18.5 -44t-44.5 -18t-44 18t-18 44zM450 470v-510q0 -88 -30 -133q-24 -37 -63.5 -57t-86.5 -20q-64 0 -105 25l40 78q24 -13 58 -13q49 0 73 32q19 25 19 85v513h95zM340 637q0 26 18 44.5
t44 18.5t44.5 -18.5t18.5 -44.5t-18.5 -44t-44.5 -18t-44 18t-18 44z" />
    <glyph glyph-name="tcommaaccent.ss02" horiz-adv-x="465" 
d="M228 -200h-65l65 150h105zM378 98l37 -77q-42 -31 -112 -31q-83 0 -132 55q-41 45 -41 125v215h-120v85h120v130h95v-130h200v-85h-200v-220q0 -39 18 -60q20 -25 63 -25q41 0 72 18z" />
    <glyph glyph-name="tcaron.ss02" horiz-adv-x="465" 
d="M320 550h-65l65 150h105zM378 98l37 -77q-42 -31 -112 -31q-83 0 -132 55q-41 45 -41 125v215h-120v85h120v130h95v-130h200v-85h-200v-220q0 -39 18 -60q20 -25 63 -25q41 0 72 18z" />
    <glyph glyph-name="jcircumflex.ss02" horiz-adv-x="295" 
d="M200 470v-510q0 -88 -30 -133q-24 -37 -63.5 -57t-86.5 -20q-64 0 -105 25l40 78q24 -13 58 -13q49 0 73 32q19 25 19 85v513h95zM47 550h-65l95 150h110l95 -150h-65l-85 94z" />
    <glyph glyph-name="uni0237.ss02" horiz-adv-x="275" 
d="M190 470v-510q0 -88 -30 -133q-24 -37 -63.5 -57t-86.5 -20q-64 0 -105 25l40 78q24 -13 58 -13q49 0 73 32q19 25 19 85v513h95z" />
    <glyph glyph-name="r.ss02" horiz-adv-x="400" 
d="M385 469l-22 -91q-24 12 -56 12q-36 0 -71.5 -22t-55.5 -57v-311h-95v470h92v-54q46 64 141 64q36 0 67 -11z" />
    <glyph glyph-name="racute.ss02" horiz-adv-x="400" 
d="M215 550h-65l65 150h105zM385 469l-22 -91q-24 12 -56 12q-36 0 -71.5 -22t-55.5 -57v-311h-95v470h92v-54q46 64 141 64q36 0 67 -11z" />
    <glyph glyph-name="rcaron.ss02" horiz-adv-x="400" 
d="M80 700h65l85 -94l85 94h65l-95 -150h-110zM385 469l-22 -91q-24 12 -56 12q-36 0 -71.5 -22t-55.5 -57v-311h-95v470h92v-54q46 64 141 64q36 0 67 -11z" />
    <glyph glyph-name="rcommaaccent.ss02" horiz-adv-x="400" 
d="M80 -200h-65l65 150h105zM385 469l-22 -91q-24 12 -56 12q-36 0 -71.5 -22t-55.5 -57v-311h-95v470h92v-54q46 64 141 64q36 0 67 -11z" />
    </font>
</defs>
</svg>
