<svg id="Layer_1" data-name="Layer 1" xmlns="http://www.w3.org/2000/svg" viewBox="0 0 137.59 143.87"><defs><style>.cls-1{fill:none;}.cls-2{fill:#2e53af;}.cls-3{fill:#3bf;}</style></defs><path class="cls-1" d="M97.88,12.19h-2.1c-4.37,0-8.41,1.7-12.63,2.84S50.56-5.28,23.92,11.17c-18,11.13-21.19,35.27-6.8,51.12A24.29,24.29,0,0,1,23.2,81.91c-2,14.93,6.73,26.31,20.14,26.31A44.72,44.72,0,0,0,60.9,105a5.91,5.91,0,0,0,3.52-4.39v0A7.57,7.57,0,0,0,62,93.28C49.83,83,45.83,70.21,50.7,57.26A21.84,21.84,0,0,1,59.57,46,10.38,10.38,0,0,1,65,44.39a12,12,0,0,1,10.13,6.29A25,25,0,0,1,78,69.1a65,65,0,0,1-4.19,12.74c-1.83,4,.72,5.6,3.61,6.25a16.11,16.11,0,0,0,8.87-.75c10.61-3.71,22.94-1,26.91,18.5,1.59,9.26-.42,18.92-9.67,22.15,0,0-18,6.32-14.41-24.15a9.93,9.93,0,0,0,.07-1.21,1,1,0,0,0-1.74-.57c-1.9,1.62-4.33,1.54-5.9,1.5a2.39,2.39,0,0,0-2.36,2,13.29,13.29,0,0,1-4.55,7.66l-1.26,1.08a2.46,2.46,0,0,0-.84,2.14c4.68,38,34.18,32,34.18,32,16.68-1.06,38.91-19.92,38.91-88.48C145.66,36.34,124.27,12.19,97.88,12.19Zm23.4,57.87a5.65,5.65,0,1,1,5.65-5.65A5.65,5.65,0,0,1,121.28,70.06Z" transform="translate(-8.08 -4.94)"/><path class="cls-2" d="M97.88,12.19h-2.1c-4.37,0-8.41,1.7-12.63,2.84S50.56-5.28,23.92,11.17c-18,11.13-21.19,35.27-6.8,51.12A24.29,24.29,0,0,1,23.2,81.91c-2,14.93,6.73,26.31,20.14,26.31A44.72,44.72,0,0,0,60.9,105a5.91,5.91,0,0,0,3.52-4.39v0A7.57,7.57,0,0,0,62,93.28C49.83,83,45.83,70.21,50.7,57.26A21.84,21.84,0,0,1,59.57,46,10.38,10.38,0,0,1,65,44.39a12,12,0,0,1,10.13,6.29A25,25,0,0,1,78,69.1a65,65,0,0,1-4.19,12.74c-1.83,4,.72,5.6,3.61,6.25a16.11,16.11,0,0,0,8.87-.75c10.61-3.71,22.94-1,26.91,18.5,1.59,9.26-.42,18.92-9.67,22.15,0,0-18,6.32-14.41-24.15a9.93,9.93,0,0,0,.07-1.21,1,1,0,0,0-1.74-.57c-1.9,1.62-4.33,1.54-5.9,1.5a2.39,2.39,0,0,0-2.36,2,13.29,13.29,0,0,1-4.55,7.66l-1.26,1.08a2.46,2.46,0,0,0-.84,2.14c4.68,38,34.18,32,34.18,32,16.68-1.06,38.91-19.92,38.91-88.48C145.66,36.34,124.27,12.19,97.88,12.19Zm23.4,57.87a5.65,5.65,0,1,1,5.65-5.65A5.65,5.65,0,0,1,121.28,70.06Z" transform="translate(-8.08 -4.94)"/><path class="cls-3" d="M87.3,97s-2.53-5.36-10-4.82A7.74,7.74,0,0,1,69,85.66c-.75-5.08,1.48-3.48,4.86-17.51a20.91,20.91,0,0,0-2.44-15.42c-2.15-3.68-6.31-5.55-9.94-3.31a17.83,17.83,0,0,0-7.2,9.27C48.87,73.12,57.06,84,64.39,90.18a11.66,11.66,0,0,1,3.83,11.16c-.64,3.36,1.19,6,3.6,8.8,4.05-3.49,4.12-8.17,2-12.79.45-.37,0,0,.45-.38C78.32,99.92,83.25,100.49,87.3,97ZM65.67,60.38a2.57,2.57,0,1,1,.93-3.52A2.57,2.57,0,0,1,65.67,60.38Z" transform="translate(-8.08 -4.94)"/></svg>