<svg xmlns="http://www.w3.org/2000/svg" viewBox="0 0 61.2 63.99"><style>.a{fill:#3bf}.b{fill:#1453bf}@media(prefers-color-scheme:dark){.b{fill:#fff}}</style><path class="b" d="M39.9 3.24h-.92a21.27 21.27 0 0 0-5.62 1.27C31.53 5 18.9-4.53 7.04 2.75a14.76 14.76 0 0 0-3 22.71 10.82 10.82 0 0 1 2.7 8.72c-.88 6.64 3 11.7 9 11.7a19.75 19.75 0 0 0 7.8-1.44 2.63 2.63 0 0 0 1.58-2 3.37 3.37 0 0 0-1.21-3.16c-5.4-4.58-7.18-10.26-5-16a9.75 9.75 0 0 1 3.94-5 4.68 4.68 0 0 1 2.42-.7 5.36 5.36 0 0 1 4.5 2.8 11.09 11.09 0 0 1 1.29 8.19 29.06 29.06 0 0 1-1.87 5.65c-.81 1.8.33 2.5 1.6 2.78a7.09 7.09 0 0 0 3.95-.34c4.72-1.65 10.2-.44 12 8.22.7 4.12-.2 8.42-4.3 9.85 0 0-8 2.81-6.4-10.73a4.9 4.9 0 0 0 0-.54.46.46 0 0 0-.77-.25 3.7 3.7 0 0 1-2.63.66 1.07 1.07 0 0 0-1 .9 5.82 5.82 0 0 1-2 3.4l-.56.48a1.09 1.09 0 0 0-.37.95C30.79 66.5 43.9 63.83 43.9 63.83c7.4-.47 17.3-8.86 17.3-39.33-.05-10.53-9.56-21.27-21.3-21.27Zm10.4 25.72a2.51 2.51 0 1 1 2.52-2.51 2.51 2.51 0 0 1-2.51 2.5Z"/><path class="a" d="M35.2 40.93a4.44 4.44 0 0 0-4.46-2.19 3.44 3.44 0 0 1-3.66-2.89c-.33-2.26.66-1.55 2.16-7.79a9.28 9.28 0 0 0-1.08-6.85c-1-1.64-2.81-2.47-4.42-1.47a8 8 0 0 0-3.2 4.12c-2.41 6.41 1.23 11.24 4.49 14a5.18 5.18 0 0 1 1.7 5c-.3 1.5.53 2.67 1.6 3.92 1.8-1.55 1.83-3.63.88-5.69l.2-.17a4.46 4.46 0 0 0 5.8.01Zm-9.6-16.27a1.14 1.14 0 1 1 .4-1.56 1.13 1.13 0 0 1-.4 1.55Z"/></svg>