<svg xmlns="http://www.w3.org/2000/svg" height="64" viewBox="0 0 240.4 64"><style>.a{fill:#3bf}.b{fill:#1453bf}@media(prefers-color-scheme:dark){.b{fill:#fff}}</style><path d="M76.55 10.02h8.51a8.34 8.34 0 0 1 5.3 1.57 5.07 5.07 0 0 1 2 4.17 4.63 4.63 0 0 1-.72 2.58 4.93 4.93 0 0 1-2.08 1.77 5.8 5.8 0 0 1 2.87 2 5.32 5.32 0 0 1 1 3.24 5.4 5.4 0 0 1-1 3.29 6.27 6.27 0 0 1-2.82 2.13 11.33 11.33 0 0 1-4.2.73h-8.86Zm5.59 4.1v4.53h2.11c1.55 0 2.33-.73 2.33-2.2a2.49 2.49 0 0 0-.55-1.72 2.06 2.06 0 0 0-1.59-.59Zm0 8.41v4.9h2.88a2.8 2.8 0 0 0 1.9-.57 2.4 2.4 0 0 0 .62-1.82c0-1.67-.94-2.51-2.82-2.51Zm27.58 9-1.18-4.16h-6.62l-1.11 4.16h-6.29l7.57-21.51h6.61l7.57 21.51Zm-6.64-8.38h4.35l-2.21-8Zm15.55-13.13h8.5a8.34 8.34 0 0 1 5.3 1.57 5 5 0 0 1 2 4.17 4.63 4.63 0 0 1-.72 2.58 4.9 4.9 0 0 1-2.07 1.77 5.89 5.89 0 0 1 2.87 2 5.38 5.38 0 0 1 1 3.24 5.4 5.4 0 0 1-1 3.29 6.27 6.27 0 0 1-2.82 2.13 11.33 11.33 0 0 1-4.2.73h-8.81Zm5.58 4.1v4.53h2.11c1.55 0 2.33-.73 2.33-2.2a2.44 2.44 0 0 0-.55-1.74 2.06 2.06 0 0 0-1.59-.59Zm0 8.41v4.9h2.89a2.77 2.77 0 0 0 1.92-.57 2.4 2.4 0 0 0 .62-1.82c0-1.67-.94-2.51-2.82-2.51Zm14.61 9V10.02h15v4.54h-9.15v3.75h7.44v4.53h-7.44V27h9.25v4.53Zm18.4 0V10.02h6v16.71h9v4.8Zm17.41 0V10.02h14.42v4.6h-8.43v4.5h6.82v4.61h-6.82v7.8Zm17.4 0V10.02h6v21.51Zm15.27-8.69a9.43 9.43 0 0 1-4.25-2.58 6.09 6.09 0 0 1-1.31-4.06 5.88 5.88 0 0 1 1.12-3.57 7.1 7.1 0 0 1 3.06-2.33 11.62 11.62 0 0 1 4.45-.8 17.18 17.18 0 0 1 6.17 1.11v4.35a20.61 20.61 0 0 0-5.67-.84c-2.14 0-3.2.56-3.2 1.68a1.3 1.3 0 0 0 .56 1.05 7.3 7.3 0 0 0 2.05.93l1.86.62a10.75 10.75 0 0 1 4.54 2.53 5.58 5.58 0 0 1 1.35 3.93 6.33 6.33 0 0 1-2.43 5.3 11 11 0 0 1-6.84 1.89 20 20 0 0 1-3.67-.32 12.89 12.89 0 0 1-3-.89v-4.4a29.77 29.77 0 0 0 3.36.67 24.8 24.8 0 0 0 3.37.26 5.24 5.24 0 0 0 2.39-.42 1.41 1.41 0 0 0 .77-1.32 1.43 1.43 0 0 0-.2-.81 2 2 0 0 0-.77-.6 16.48 16.48 0 0 0-1.91-.76Zm27.11 8.69v-8.6h-7v8.6h-6V10.02h6v8.26h7v-8.26h6v21.51Z" class="a"/><path fill="#fff" d="M80.83 38.82a7.48 7.48 0 0 1 2.67.45V42a11.36 11.36 0 0 0-1.37-.09 2.3 2.3 0 0 0-1.4.32 1.45 1.45 0 0 0-.39 1.18v.77h3v2.87h-3v8.68h-4.22v-8.68h-1.68v-2.38l1.68-.38v-.56q0-4.91 4.71-4.91Zm9.36 17.25a5.89 5.89 0 0 1-4.4-1.62 6.14 6.14 0 0 1-1.59-4.51 6.1 6.1 0 0 1 1.59-4.48 6.77 6.77 0 0 1 8.79 0 6.1 6.1 0 0 1 1.6 4.48 6.15 6.15 0 0 1-1.6 4.51 5.88 5.88 0 0 1-4.39 1.62Zm0-3c1.15 0 1.72-1.06 1.72-3.17s-.57-3.14-1.72-3.14-1.73 1-1.73 3.14.57 3.21 1.73 3.21Zm16.53-5.21a9 9 0 0 0-1.48-.12 7.91 7.91 0 0 0-2.56.39v7.6h-4.22V44.18h3.46l.52 1.75a4.5 4.5 0 0 1 3.41-1.89 6.56 6.56 0 0 1 .9.07Zm11.42 2.87v5h-4.22V40.19h6.37a6.07 6.07 0 0 1 4.23 1.4 4.89 4.89 0 0 1 1.56 3.84 4.91 4.91 0 0 1-1.56 3.85 6.07 6.07 0 0 1-4.23 1.4Zm0-3.14h1.57a2.14 2.14 0 0 0 1.59-.56 2.41 2.41 0 0 0 0-3.09 2.14 2.14 0 0 0-1.59-.56h-1.57Zm15.27 8.48a5.9 5.9 0 0 1-4.4-1.62 6.14 6.14 0 0 1-1.59-4.51 6.1 6.1 0 0 1 1.59-4.48 6.79 6.79 0 0 1 8.8 0 6.1 6.1 0 0 1 1.59 4.48 6.14 6.14 0 0 1-1.59 4.51 5.89 5.89 0 0 1-4.4 1.62Zm0-3c1.15 0 1.73-1.06 1.73-3.17s-.58-3.14-1.73-3.14-1.73 1-1.73 3.14.58 3.21 1.73 3.21Zm12.88-.59a.57.57 0 0 0-.21-.48 3.25 3.25 0 0 0-.82-.42l-1.67-.65a4.63 4.63 0 0 1-2-1.38 3.48 3.48 0 0 1-.62-2.14 3.07 3.07 0 0 1 .61-1.91 3.79 3.79 0 0 1 1.71-1.23 6.72 6.72 0 0 1 2.52-.43 8.06 8.06 0 0 1 3.77.88v2.55a11.88 11.88 0 0 0-3.41-.56 3 3 0 0 0-1.08.14.48.48 0 0 0-.31.49.56.56 0 0 0 .23.45 3.88 3.88 0 0 0 .8.4l1.66.65a5.13 5.13 0 0 1 2.13 1.35 3.2 3.2 0 0 1 .59 2 3.42 3.42 0 0 1-1.32 2.82 5.58 5.58 0 0 1-3.55 1 8.48 8.48 0 0 1-4.31-1v-2.6a23.12 23.12 0 0 0 2.28.53 12.32 12.32 0 0 0 1.83.14 1.79 1.79 0 0 0 .91-.17.55.55 0 0 0 .26-.43Zm13.16 2.96a8.58 8.58 0 0 1-3 .49 4.38 4.38 0 0 1-3.14-1 4.08 4.08 0 0 1-1-3.08v-4.8h-1.6v-2.38l1.71-.4.67-3.1h3.43v3h2.92v2.87h-2.92v4.53a1.15 1.15 0 0 0 .34.94 1.85 1.85 0 0 0 1.14.27 9.47 9.47 0 0 0 1.48-.13Zm8.57-.99a4.19 4.19 0 0 1-2.73 1 4.14 4.14 0 0 1-2.44-.73 4.65 4.65 0 0 1-1.59-2 7.63 7.63 0 0 1-.55-3 7.33 7.33 0 0 1 .61-3.1 4.56 4.56 0 0 1 1.66-2 4.15 4.15 0 0 1 2.37-.7 4.68 4.68 0 0 1 1.74.32 3.57 3.57 0 0 1 1.36.92l.27-.9h3.43v10.47a5.81 5.81 0 0 1-1.6 4.35 6.06 6.06 0 0 1-4.43 1.57 10.63 10.63 0 0 1-2.28-.22 9.93 9.93 0 0 1-2.14-.77v-2.67a12.69 12.69 0 0 0 3.79.67 2.85 2.85 0 0 0 1.94-.54 2.28 2.28 0 0 0 .59-1.77Zm-1.34-1.93a3.21 3.21 0 0 0 1.34-.33v-5.12a3.83 3.83 0 0 0-1.52-.31 1.3 1.3 0 0 0-1.22.69 4.34 4.34 0 0 0-.4 2.11 4.6 4.6 0 0 0 .42 2.28 1.46 1.46 0 0 0 1.38.68Zm16.6-4.66a9 9 0 0 0-1.48-.12 7.91 7.91 0 0 0-2.56.39v7.6h-4.22V44.18h3.44l.51 1.75a4.5 4.5 0 0 1 3.41-1.89 6.44 6.44 0 0 1 .9.07Zm4.71 3.16a2.08 2.08 0 0 0 .86 1.63 4.14 4.14 0 0 0 2.26.5 13.26 13.26 0 0 0 3.5-.58v2.58a8.42 8.42 0 0 1-2 .67 12 12 0 0 1-2.36.25q-6.06 0-6.06-6.1a6.26 6.26 0 0 1 1.55-4.5 5.65 5.65 0 0 1 4.31-1.63 5 5 0 0 1 3.61 1.25 4.73 4.73 0 0 1 1.26 3.55 11.79 11.79 0 0 1-.08 1.22c-.05.48-.11.86-.17 1.16Zm1.93-4.37a1.74 1.74 0 0 0-1.31.5 2.39 2.39 0 0 0-.6 1.45h3.36v-.27c-.02-1.12-.45-1.68-1.45-1.68Zm10.77 2.8a6.82 6.82 0 0 1-3.08-1.86 4.41 4.41 0 0 1-.94-2.94 4.22 4.22 0 0 1 .81-2.58 5.1 5.1 0 0 1 2.21-1.68 8.29 8.29 0 0 1 3.22-.59 12.34 12.34 0 0 1 4.46.81v3.12a15.12 15.12 0 0 0-4.1-.6c-1.55 0-2.32.4-2.32 1.21a.94.94 0 0 0 .41.76 5.38 5.38 0 0 0 1.48.67l1.35.45a7.77 7.77 0 0 1 3.28 1.83 4.05 4.05 0 0 1 1 2.84 4.58 4.58 0 0 1-1.78 3.84 7.88 7.88 0 0 1-5 1.37 15.37 15.37 0 0 1-2.65-.23 9.51 9.51 0 0 1-2.17-.64v-3.18a18.66 18.66 0 0 0 2.43.48 16.91 16.91 0 0 0 2.44.19 3.78 3.78 0 0 0 1.72-.3 1 1 0 0 0 .56-.95 1.17 1.17 0 0 0-.14-.59 1.59 1.59 0 0 0-.56-.43 12.07 12.07 0 0 0-1.38-.55Zm24.92 10.43a12.92 12.92 0 0 1-4.23-1.28 13.55 13.55 0 0 1-3.62-2.51 7.49 7.49 0 0 1-5.51-2.29 8.32 8.32 0 0 1-2-5.88 9.14 9.14 0 0 1 1-4.36 6.6 6.6 0 0 1 2.67-2.83 8.53 8.53 0 0 1 4.14-1 8.42 8.42 0 0 1 4.22 1 6.75 6.75 0 0 1 2.7 2.85 9.5 9.5 0 0 1 .93 4.33 9 9 0 0 1-1.17 4.82 6.61 6.61 0 0 1-3.37 2.8 7.1 7.1 0 0 0 1.78.65 13 13 0 0 0 2.46.27Zm-7.54-7.15a3 3 0 0 0 2.57-1.19 6 6 0 0 0 .86-3.5 6 6 0 0 0-.87-3.55 3 3 0 0 0-2.56-1.2 2.91 2.91 0 0 0-2.54 1.19 5.85 5.85 0 0 0-.87 3.49 6.06 6.06 0 0 0 .87 3.55 2.9 2.9 0 0 0 2.54 1.21Zm10.72 3V40.19h4.33v12h6.49v3.54ZM39.92 3.22h-.93a21.27 21.27 0 0 0-5.62 1.27c-1.83.5-14.45-9.03-26.32-1.76a14.76 14.76 0 0 0-3 22.72 10.82 10.82 0 0 1 2.71 8.72c-.89 6.63 3 11.69 9 11.69a19.75 19.75 0 0 0 7.8-1.43 2.63 2.63 0 0 0 1.57-2 3.37 3.37 0 0 0-1.21-3.17c-5.4-4.57-7.18-10.25-5-16a9.75 9.75 0 0 1 3.94-5 4.68 4.68 0 0 1 2.42-.7 5.36 5.36 0 0 1 4.5 2.8 11.09 11.09 0 0 1 1.29 8.19 29.06 29.06 0 0 1-1.87 5.66c-.81 1.79.33 2.49 1.61 2.78a7.09 7.09 0 0 0 3.94-.34c4.72-1.65 10.2-.44 12 8.22.71 4.12-.19 8.42-4.3 9.85 0 0-8 2.81-6.4-10.73a4.89 4.89 0 0 0 0-.54.46.46 0 0 0-.77-.25 3.7 3.7 0 0 1-2.63.66 1.07 1.07 0 0 0-1 .89 5.82 5.82 0 0 1-2 3.4l-.56.49a1.09 1.09 0 0 0-.37.95c2.08 16.89 15.19 14.23 15.19 14.23 7.41-.47 17.3-8.86 17.3-39.33-.05-10.53-9.56-21.27-21.29-21.27Zm10.4 25.72a2.51 2.51 0 1 1 2.51-2.51 2.51 2.51 0 0 1-2.51 2.51Z"/><path d="M35.22 40.92a4.44 4.44 0 0 0-4.47-2.19 3.44 3.44 0 0 1-3.66-2.89c-.33-2.26.66-1.55 2.16-7.79a9.28 9.28 0 0 0-1.08-6.85c-1-1.64-2.81-2.47-4.42-1.47a8 8 0 0 0-3.2 4.12c-2.41 6.41 1.23 11.24 4.49 14a5.18 5.18 0 0 1 1.7 5c-.29 1.5.53 2.67 1.6 3.92 1.8-1.55 1.83-3.63.88-5.69l.2-.17a4.46 4.46 0 0 0 5.8.01ZM25.6 24.64a1.13 1.13 0 0 1-1.56-.41 1.14 1.14 0 1 1 1.56.41Z" class="a"/></svg>