<svg id="Layer_1" data-name="Layer 1" xmlns="http://www.w3.org/2000/svg" viewBox="0 0 281.74 74.94"><defs><style>.cls-1{fill:#fff;}</style></defs><path class="cls-1" d="M96.19,64.28h10a9.71,9.71,0,0,1,6.21,1.84A5.91,5.91,0,0,1,114.7,71a5.49,5.49,0,0,1-.84,3,5.72,5.72,0,0,1-2.43,2.07,6.86,6.86,0,0,1,3.36,2.38,6.27,6.27,0,0,1,1.15,3.8,6.43,6.43,0,0,1-1.19,3.86,7.31,7.31,0,0,1-3.3,2.49,13.16,13.16,0,0,1-4.93.85H96.19Zm6.55,4.8v5.31h2.47q2.73,0,2.73-2.58a2.93,2.93,0,0,0-.64-2,2.42,2.42,0,0,0-1.87-.69Zm0,9.86v5.74h3.38a3.2,3.2,0,0,0,2.25-.67,2.76,2.76,0,0,0,.73-2.13q0-2.94-3.31-2.94Z" transform="translate(-6.48 -52.53)"/><path class="cls-1" d="M135.06,89.48l-1.38-4.87H126l-1.31,4.87h-7.41l8.87-25.2h7.74l8.88,25.2Zm-7.78-9.82h5.09l-2.58-9.34Z" transform="translate(-6.48 -52.53)"/><path class="cls-1" d="M145.5,64.28h10a9.72,9.72,0,0,1,6.22,1.84A5.91,5.91,0,0,1,164,71a5.49,5.49,0,0,1-.84,3,5.75,5.75,0,0,1-2.44,2.07,6.94,6.94,0,0,1,3.37,2.38,6.33,6.33,0,0,1,1.14,3.8,6.43,6.43,0,0,1-1.18,3.86,7.34,7.34,0,0,1-3.31,2.49,13.12,13.12,0,0,1-4.93.85H145.5Zm6.54,4.8v5.31h2.48c1.81,0,2.72-.86,2.72-2.58a2.93,2.93,0,0,0-.63-2,2.44,2.44,0,0,0-1.88-.69Zm0,9.86v5.74h3.39a3.22,3.22,0,0,0,2.25-.67,2.8,2.8,0,0,0,.73-2.13c0-2-1.11-2.94-3.31-2.94Z" transform="translate(-6.48 -52.53)"/><path class="cls-1" d="M169.17,89.48V64.28h17.56v5.31H176V74h8.73V79.3H176v4.87h10.8v5.31Z" transform="translate(-6.48 -52.53)"/><path class="cls-1" d="M190.73,89.48V64.28h7V83.81h10.51v5.67Z" transform="translate(-6.48 -52.53)"/><path class="cls-1" d="M211.13,89.48V64.28H228v5.38h-9.89v5.28h8v5.38h-8v9.16Z" transform="translate(-6.48 -52.53)"/><path class="cls-1" d="M231.53,89.48V64.28h7v25.2Z" transform="translate(-6.48 -52.53)"/><path class="cls-1" d="M249.42,79.3a11.2,11.2,0,0,1-5-3,7.14,7.14,0,0,1-1.53-4.76,6.87,6.87,0,0,1,1.31-4.18,8.26,8.26,0,0,1,3.58-2.73,13.54,13.54,0,0,1,5.22-1A20.12,20.12,0,0,1,260.26,65v5.09a24.58,24.58,0,0,0-6.66-1c-2.5,0-3.74.66-3.74,2a1.5,1.5,0,0,0,.65,1.23,8.59,8.59,0,0,0,2.4,1.09l2.18.73a12.51,12.51,0,0,1,5.33,3,6.57,6.57,0,0,1,1.58,4.6,7.43,7.43,0,0,1-2.85,6.22q-2.86,2.22-8,2.22a24,24,0,0,1-4.29-.38,15.62,15.62,0,0,1-3.53-1V83.52a36.35,36.35,0,0,0,3.95.78,27.41,27.41,0,0,0,3.94.31,6.24,6.24,0,0,0,2.8-.49,1.63,1.63,0,0,0,.91-1.55,1.68,1.68,0,0,0-.24-.94,2.29,2.29,0,0,0-.91-.71,18.25,18.25,0,0,0-2.23-.89Z" transform="translate(-6.48 -52.53)"/><path class="cls-1" d="M281.2,89.48V79.41H273V89.48h-7V64.28h7V74h8.18V64.28h7v25.2Z" transform="translate(-6.48 -52.53)"/><path class="cls-1" d="M101.2,98a8.82,8.82,0,0,1,3.13.53v3.21a13.45,13.45,0,0,0-1.6-.11,2.72,2.72,0,0,0-1.64.37,1.71,1.71,0,0,0-.46,1.39v.9h3.55v3.36h-3.55v10.18H95.68V107.67h-2v-2.78l2-.45v-.68C95.68,99.94,97.52,98,101.2,98Z" transform="translate(-6.48 -52.53)"/><path class="cls-1" d="M112.17,118.24a6.94,6.94,0,0,1-5.16-1.89,8.4,8.4,0,0,1,0-10.54,7.94,7.94,0,0,1,10.31,0,8.36,8.36,0,0,1,0,10.54A6.9,6.9,0,0,1,112.17,118.24Zm0-3.47c1.35,0,2-1.23,2-3.71s-.67-3.68-2-3.68-2,1.23-2,3.68S110.82,114.77,112.17,114.77Z" transform="translate(-6.48 -52.53)"/><path class="cls-1" d="M131.54,108.62a10.92,10.92,0,0,0-1.73-.13,9.36,9.36,0,0,0-3,.45v8.91h-4.94V104.31h4l.61,2a5.27,5.27,0,0,1,4-2.21,7,7,0,0,1,1,.08Z" transform="translate(-6.48 -52.53)"/><path class="cls-1" d="M144.92,111.93v5.92H140V99.63h7.47a7.17,7.17,0,0,1,5,1.64,6.5,6.5,0,0,1,0,9,7.12,7.12,0,0,1-5,1.64Zm0-3.68h1.84a2.52,2.52,0,0,0,1.87-.66,2.81,2.81,0,0,0,0-3.62,2.52,2.52,0,0,0-1.87-.66h-1.84Z" transform="translate(-6.48 -52.53)"/><path class="cls-1" d="M162.83,118.24a6.94,6.94,0,0,1-5.16-1.89,8.4,8.4,0,0,1,0-10.54,7.94,7.94,0,0,1,10.31,0,8.36,8.36,0,0,1,0,10.54A6.9,6.9,0,0,1,162.83,118.24Zm0-3.47c1.35,0,2-1.23,2-3.71s-.67-3.68-2-3.68-2,1.23-2,3.68S161.48,114.77,162.83,114.77Z" transform="translate(-6.48 -52.53)"/><path class="cls-1" d="M177.92,114a.69.69,0,0,0-.24-.57,4.35,4.35,0,0,0-1-.49l-2-.76a5.43,5.43,0,0,1-2.39-1.62,4,4,0,0,1-.74-2.51,3.54,3.54,0,0,1,.73-2.23,4.55,4.55,0,0,1,2-1.45,8.16,8.16,0,0,1,3-.5,9.59,9.59,0,0,1,4.42,1v3a13.74,13.74,0,0,0-4-.66,3.44,3.44,0,0,0-1.26.16.58.58,0,0,0-.37.57.65.65,0,0,0,.28.53,4.24,4.24,0,0,0,.93.48l1.95.76a6,6,0,0,1,2.5,1.57,3.83,3.83,0,0,1,.68,2.4,4,4,0,0,1-1.54,3.3,6.53,6.53,0,0,1-4.17,1.22,9.94,9.94,0,0,1-5-1.16v-3a23.81,23.81,0,0,0,2.66.62,14.16,14.16,0,0,0,2.15.17,2.09,2.09,0,0,0,1.07-.2A.65.65,0,0,0,177.92,114Z" transform="translate(-6.48 -52.53)"/><path class="cls-1" d="M193.35,117.51a10.25,10.25,0,0,1-3.55.57,5.14,5.14,0,0,1-3.68-1.17,4.81,4.81,0,0,1-1.18-3.61v-5.63h-1.87v-2.78l2-.48.79-3.62h4v3.52h3.42v3.36h-3.42V113a1.36,1.36,0,0,0,.39,1.11,2.2,2.2,0,0,0,1.34.31,12,12,0,0,0,1.74-.15Z" transform="translate(-6.48 -52.53)"/><path class="cls-1" d="M203.39,116.35a4.93,4.93,0,0,1-3.21,1.16,4.87,4.87,0,0,1-2.85-.86,5.31,5.31,0,0,1-1.86-2.38,9,9,0,0,1-.65-3.52,8.79,8.79,0,0,1,.71-3.64,5.4,5.4,0,0,1,1.95-2.38,5,5,0,0,1,2.78-.82,5.61,5.61,0,0,1,2,.37,4.4,4.4,0,0,1,1.59,1.08l.32-1h4v12.33a6.83,6.83,0,0,1-1.88,5.1,7.08,7.08,0,0,1-5.19,1.84,12.86,12.86,0,0,1-2.67-.26,11.93,11.93,0,0,1-2.51-.9v-3.1a14.78,14.78,0,0,0,4.44.79,3.38,3.38,0,0,0,2.28-.63,2.71,2.71,0,0,0,.69-2.08Zm-1.57-2.26a3.61,3.61,0,0,0,1.57-.4v-6a4.61,4.61,0,0,0-1.78-.37,1.54,1.54,0,0,0-1.44.82,5.23,5.23,0,0,0-.46,2.47,5.37,5.37,0,0,0,.49,2.67A1.74,1.74,0,0,0,201.82,114.09Z" transform="translate(-6.48 -52.53)"/><path class="cls-1" d="M221.27,108.62a11,11,0,0,0-1.74-.13,9.34,9.34,0,0,0-3,.45v8.91H211.6V104.31h4l.6,2a5.3,5.3,0,0,1,4-2.21,7,7,0,0,1,1.05.08Z" transform="translate(-6.48 -52.53)"/><path class="cls-1" d="M226.79,112.33a2.43,2.43,0,0,0,1,1.9,4.74,4.74,0,0,0,2.64.59,15.39,15.39,0,0,0,4.11-.68v3a9.52,9.52,0,0,1-2.4.79,13.08,13.08,0,0,1-2.76.29q-7.09,0-7.1-7.15a7.34,7.34,0,0,1,1.82-5.27,6.64,6.64,0,0,1,5-1.91,5.83,5.83,0,0,1,4.23,1.46,5.57,5.57,0,0,1,1.5,4.17,13.48,13.48,0,0,1-.09,1.43c-.07.56-.13,1-.2,1.36ZM229,107.2a2,2,0,0,0-1.53.59,2.83,2.83,0,0,0-.71,1.7h3.94v-.32C230.73,107.86,230.16,107.2,229,107.2Z" transform="translate(-6.48 -52.53)"/><path class="cls-1" d="M241.67,110.49a8.18,8.18,0,0,1-3.6-2.18,5.18,5.18,0,0,1-1.11-3.45,5,5,0,0,1,.95-3,6,6,0,0,1,2.59-2,9.68,9.68,0,0,1,3.77-.69,14.49,14.49,0,0,1,5.23.95v3.68a17.63,17.63,0,0,0-4.81-.71c-1.8,0-2.7.47-2.7,1.42a1.07,1.07,0,0,0,.47.89,6,6,0,0,0,1.74.79l1.57.53a9,9,0,0,1,3.85,2.14,4.7,4.7,0,0,1,1.15,3.33,5.36,5.36,0,0,1-2.07,4.49,9.21,9.21,0,0,1-5.79,1.61,17.55,17.55,0,0,1-3.11-.28,11.94,11.94,0,0,1-2.55-.75v-3.73a26.88,26.88,0,0,0,2.86.56,20,20,0,0,0,2.85.22,4.38,4.38,0,0,0,2-.35,1.19,1.19,0,0,0,.66-1.12,1.24,1.24,0,0,0-.17-.68,1.54,1.54,0,0,0-.66-.51,12.53,12.53,0,0,0-1.61-.65Z" transform="translate(-6.48 -52.53)"/><path class="cls-1" d="M270.88,122.71a15.26,15.26,0,0,1-5-1.5,15.68,15.68,0,0,1-4.24-2.94,8.77,8.77,0,0,1-6.46-2.68,9.81,9.81,0,0,1-2.35-6.89,10.83,10.83,0,0,1,1.13-5.11,7.79,7.79,0,0,1,3.2-3.28,11,11,0,0,1,9.79,0,7.92,7.92,0,0,1,3.17,3.34,11.22,11.22,0,0,1,1.09,5.08,10.58,10.58,0,0,1-1.38,5.57,7.75,7.75,0,0,1-4,3.29,8.5,8.5,0,0,0,2.09.76,16,16,0,0,0,2.88.32Zm-8.83-8.44a3.48,3.48,0,0,0,3-1.39,8.89,8.89,0,0,0,0-8.27,3.88,3.88,0,0,0-6,0,7,7,0,0,0-1,4.1,7.14,7.14,0,0,0,1,4.15A3.43,3.43,0,0,0,262.05,114.27Z" transform="translate(-6.48 -52.53)"/><path class="cls-1" d="M274.61,117.85V99.63h5.08v14.12h7.59v4.1Z" transform="translate(-6.48 -52.53)"/><path class="cls-1" d="M53.25,56.31H52.16c-2.27,0-4.38.88-6.57,1.48s-17-10.58-30.86-2A17.29,17.29,0,0,0,11.19,82.4a12.72,12.72,0,0,1,3.17,10.23c-1,7.77,3.5,13.7,10.49,13.7A23.29,23.29,0,0,0,34,104.65a3.08,3.08,0,0,0,1.84-2.28v0a3.93,3.93,0,0,0-1.28-3.8c-6.32-5.36-8.41-12-5.87-18.77A11.44,11.44,0,0,1,33.3,73.9a5.47,5.47,0,0,1,2.84-.82,6.28,6.28,0,0,1,5.27,3.28A13,13,0,0,1,42.92,86a33.91,33.91,0,0,1-2.19,6.64c-.95,2.1.38,2.91,1.88,3.26a8.34,8.34,0,0,0,4.63-.4c5.52-1.93,11.94-.51,14,9.64.83,4.83-.22,9.86-5,11.54,0,0-9.4,3.29-7.51-12.58a4.44,4.44,0,0,0,0-.63.55.55,0,0,0-.91-.3,4.3,4.3,0,0,1-3.07.78,1.24,1.24,0,0,0-1.23,1,6.93,6.93,0,0,1-2.37,4l-.66.57a1.24,1.24,0,0,0-.43,1.11c2.43,19.8,17.8,16.68,17.8,16.68,8.68-.55,20.27-10.38,20.27-46.09C78.15,68.89,67,56.31,53.25,56.31Zm12.2,30.14a2.94,2.94,0,1,1,2.94-2.94A2.95,2.95,0,0,1,65.45,86.45Z" transform="translate(-6.48 -52.53)"/><path class="cls-1" d="M47.75,100.49A5.18,5.18,0,0,0,42.51,98a4.05,4.05,0,0,1-4.29-3.4c-.39-2.65.77-1.82,2.54-9.12a10.88,10.88,0,0,0-1.28-8c-1.11-1.92-3.28-2.9-5.17-1.73a9.29,9.29,0,0,0-3.75,4.83C27.73,88.05,32,93.7,35.81,96.93a6.09,6.09,0,0,1,2,5.82c-.33,1.75.62,3.12,1.87,4.58,2.11-1.82,2.15-4.25,1-6.66l.24-.2C43.07,102,45.64,102.3,47.75,100.49ZM36.48,81.41A1.34,1.34,0,1,1,37,79.58,1.33,1.33,0,0,1,36.48,81.41Z" transform="translate(-6.48 -52.53)"/></svg>