<svg id="Layer_1" data-name="Layer 1" xmlns="http://www.w3.org/2000/svg" viewBox="0 0 82.91 80.87"><defs><style>.cls-1{fill:#fff;fill-rule:evenodd;}</style></defs><path class="cls-1" d="M53.68,13.62A41.46,41.46,0,0,0,40.57,94.41c2.07.39,2.83-.9,2.83-2s0-4.26,0-7.72c-11.54,2.51-14-4.89-14-4.89-1.89-4.79-4.6-6.07-4.6-6.07-3.77-2.57.28-2.52.28-2.52,4.16.3,6.35,4.28,6.35,4.28,3.7,6.33,9.7,4.5,12.07,3.44a8.77,8.77,0,0,1,2.63-5.54c-9.21-1.05-18.89-4.6-18.89-20.49a16.06,16.06,0,0,1,4.27-11.13c-.43-1-1.85-5.26.41-11,0,0,3.48-1.11,11.4,4.25a39.45,39.45,0,0,1,20.76,0C72,29.7,75.45,30.81,75.45,30.81c2.26,5.71.84,9.93.41,11a16.06,16.06,0,0,1,4.26,11.13c0,15.92-9.7,19.43-18.93,20.46C62.68,74.65,64,77.17,64,81c0,5.55-.05,10-.05,11.38,0,1.1.74,2.4,2.84,2A41.46,41.46,0,0,0,53.68,13.62Z" transform="translate(-12.22 -13.62)"/></svg>