<svg id="Layer_1" data-name="Layer 1" xmlns="http://www.w3.org/2000/svg" viewBox="0 0 163.14 111.51"><defs><style>.cls-1{fill:#fff;}.cls-2{fill:#e6e6e6;}.cls-3{fill:#b3b3b3;}.cls-4{fill:#0c6;}.cls-5{fill:#aeefce;}.cls-6{fill:#66e0a3;}</style></defs><path class="cls-1" d="M23.77,52.55v50.68a4.66,4.66,0,0,0,4.66,4.65h84.16a4.66,4.66,0,0,0,4.66-4.65V52.55Z" transform="translate(-8.43 -34.24)"/><path class="cls-1" d="M72.51,86.43V137.1a4.66,4.66,0,0,0,4.65,4.66h84.17A4.66,4.66,0,0,0,166,137.1V86.43Z" transform="translate(-8.43 -34.24)"/><path class="cls-2" d="M70.51,111.92H28.43a8.68,8.68,0,0,1-8.66-8.66V48.88a8.67,8.67,0,0,1,8.66-8.65h84.16a8.67,8.67,0,0,1,8.66,8.65v30h-4v-30a4.66,4.66,0,0,0-4.66-4.65H28.43a4.66,4.66,0,0,0-4.66,4.65v54.38a4.66,4.66,0,0,0,4.66,4.66H70.51Z" transform="translate(-8.43 -34.24)"/><path class="cls-2" d="M21.77,52.58v-4.5a5.85,5.85,0,0,1,5.85-5.85H113.4a5.85,5.85,0,0,1,5.85,5.85v4.5" transform="translate(-8.43 -34.24)"/><path class="cls-2" d="M161.33,145.76H77.16a8.66,8.66,0,0,1-8.65-8.66V82.73a8.66,8.66,0,0,1,8.65-8.66h84.17A8.66,8.66,0,0,1,170,82.73V137.1A8.66,8.66,0,0,1,161.33,145.76ZM77.16,78.07a4.66,4.66,0,0,0-4.65,4.66V137.1a4.66,4.66,0,0,0,4.65,4.66h84.17A4.66,4.66,0,0,0,166,137.1V82.73a4.66,4.66,0,0,0-4.65-4.66Z" transform="translate(-8.43 -34.24)"/><path class="cls-2" d="M70.51,86.43V81.92a5.85,5.85,0,0,1,5.85-5.85h85.77A5.85,5.85,0,0,1,168,81.92v4.51" transform="translate(-8.43 -34.24)"/><polygon class="cls-3" points="110.03 99.33 101.75 88.33 110.03 77.33 113.23 79.73 106.75 88.33 113.23 96.92 110.03 99.33"/><polygon class="cls-3" points="139.37 99.33 136.18 96.92 142.65 88.33 136.18 79.73 139.37 77.33 147.66 88.33 139.37 99.33"/><rect class="cls-3" x="122.89" y="120.57" width="20.49" height="4" transform="translate(-31.33 179.99) rotate(-73.06)"/><circle class="cls-3" cx="152.79" cy="46.66" r="2.02"/><circle class="cls-3" cx="144.65" cy="46.66" r="2.02"/><circle class="cls-3" cx="136.51" cy="46.66" r="2.02"/><circle class="cls-3" cx="104.2" cy="12.6" r="2.02"/><circle class="cls-3" cx="96.05" cy="12.6" r="2.02"/><circle class="cls-3" cx="87.91" cy="12.6" r="2.02"/><path class="cls-4" d="M144.15,42.51h0a12.7,12.7,0,0,1-8.27-8.27h0a12.71,12.71,0,0,1-8.26,8.27h0a12.71,12.71,0,0,1,8.26,8.26h0A12.71,12.71,0,0,1,144.15,42.51Z" transform="translate(-8.43 -34.24)"/><path class="cls-5" d="M148.91,64h0a7.3,7.3,0,0,1-4.76-4.76h0A7.32,7.32,0,0,1,139.39,64h0a7.34,7.34,0,0,1,4.76,4.76h0A7.32,7.32,0,0,1,148.91,64Z" transform="translate(-8.43 -34.24)"/><path class="cls-6" d="M171.57,53.27h0a9.22,9.22,0,0,1-6-6h0a9.26,9.26,0,0,1-6,6h0a9.26,9.26,0,0,1,6,6h0A9.22,9.22,0,0,1,171.57,53.27Z" transform="translate(-8.43 -34.24)"/><path class="cls-4" d="M25,123.36h0a12.71,12.71,0,0,1-8.26-8.26h0a12.73,12.73,0,0,1-8.27,8.26h0a12.72,12.72,0,0,1,8.27,8.27h0A12.71,12.71,0,0,1,25,123.36Z" transform="translate(-8.43 -34.24)"/><path class="cls-6" d="M54.14,130h0a10.94,10.94,0,0,1-7.11-7.1h0a10.9,10.9,0,0,1-7.1,7.1h0a10.94,10.94,0,0,1,7.1,7.11h0A11,11,0,0,1,54.14,130Z" transform="translate(-8.43 -34.24)"/><path class="cls-5" d="M39.93,96.36h0a7.34,7.34,0,0,1-4.76-4.76h0a7.37,7.37,0,0,1-4.76,4.76h0a7.33,7.33,0,0,1,4.76,4.75h0A7.31,7.31,0,0,1,39.93,96.36Z" transform="translate(-8.43 -34.24)"/></svg>