<svg id="Layer_1" data-name="Layer 1" xmlns="http://www.w3.org/2000/svg" xmlns:xlink="http://www.w3.org/1999/xlink" viewBox="0 0 121.34 100.87"><defs><style>.cls-1{fill:none;}.cls-2{fill:#e6e6e6;}.cls-3{fill:#fff;}.cls-4{fill:#b3b3b3;}.cls-5{fill:gray;}.cls-6{fill:#ccc;}.cls-7{clip-path:url(#clip-path);}.cls-8{fill:#fefffe;}.cls-9{fill:#fdfffe;}.cls-10{fill:#fcfefd;}.cls-11{fill:#fbfefd;}.cls-12{fill:#fafefc;}.cls-13{fill:#f9fefb;}.cls-14{fill:#f8fefb;}.cls-15{fill:#f7fdfa;}.cls-16{fill:#f6fdfa;}.cls-17{fill:#f5fdf9;}.cls-18{fill:#f4fdf8;}.cls-19{fill:#f3fdf8;}.cls-20{fill:#f2fcf7;}.cls-21{fill:#f1fcf7;}.cls-22{fill:#f0fcf6;}.cls-23{fill:#effcf5;}.cls-24{fill:#eefcf5;}.cls-25{fill:#edfbf4;}.cls-26{fill:#ecfbf4;}.cls-27{fill:#ebfbf3;}.cls-28{fill:#eafbf2;}.cls-29{fill:#e9fbf2;}.cls-30{fill:#e8faf1;}.cls-31{fill:#e7faf1;}.cls-32{fill:#e6faf0;}.cls-33{fill:#e5faef;}.cls-34{fill:#e4faef;}.cls-35{fill:#e3f9ee;}.cls-36{fill:#e2f9ee;}.cls-37{fill:#e1f9ed;}.cls-38{fill:#e0f9ec;}.cls-39{fill:#dff9ec;}.cls-40{fill:#def8eb;}.cls-41{fill:#ddf8eb;}.cls-42{fill:#dcf8ea;}.cls-43{fill:#dbf8e9;}.cls-44{fill:#daf8e9;}.cls-45{fill:#d9f7e8;}.cls-46{fill:#d8f7e8;}.cls-47{fill:#d7f7e7;}.cls-48{fill:#d6f7e6;}.cls-49{fill:#d5f7e6;}.cls-50{fill:#d4f6e5;}.cls-51{fill:#d3f6e4;}.cls-52{fill:#d2f6e4;}.cls-53{fill:#d1f6e3;}.cls-54{fill:#d0f6e3;}.cls-55{fill:#cff5e2;}.cls-56{fill:#cef5e1;}.cls-57{fill:#cdf5e1;}.cls-58{fill:#ccf5e0;}.cls-59{fill:#cbf5e0;}.cls-60{fill:#caf4df;}.cls-61{fill:#c9f4de;}.cls-62{fill:#c8f4de;}.cls-63{fill:#c7f4dd;}.cls-64{fill:#c6f4dd;}.cls-65{fill:#c5f3dc;}.cls-66{fill:#c4f3db;}.cls-67{fill:#c3f3db;}.cls-68{fill:#c2f3da;}.cls-69{fill:#c1f3da;}.cls-70{fill:#c0f2d9;}.cls-71{fill:#bff2d8;}.cls-72{fill:#bef2d8;}.cls-73{fill:#bdf2d7;}.cls-74{fill:#bcf2d7;}.cls-75{fill:#bbf1d6;}.cls-76{fill:#baf1d5;}.cls-77{fill:#b9f1d5;}.cls-78{fill:#b8f1d4;}.cls-79{fill:#b7f1d4;}.cls-80{fill:#b6f0d3;}.cls-81{fill:#b5f0d2;}.cls-82{fill:#b4f0d2;}.cls-83{fill:#b3f0d1;}.cls-84{fill:#b2f0d1;}.cls-85{fill:#b1efd0;}.cls-86{fill:#b0efcf;}.cls-87{fill:#afefcf;}.cls-88{fill:#aeefce;}.cls-89{fill:#adefce;}.cls-90{fill:#aceecd;}.cls-91{fill:#abeecc;}.cls-92{fill:#aec;}.cls-93{fill:#a9eecb;}.cls-94{fill:#a8eecb;}.cls-95{fill:#a7edca;}.cls-96{fill:#a6edc9;}.cls-97{fill:#a5edc9;}.cls-98{fill:#a4edc8;}.cls-99{fill:#a3edc8;}.cls-100{fill:#a2ecc7;}.cls-101{fill:#a1ecc6;}.cls-102{fill:#a0ecc6;}.cls-103{fill:#9fecc5;}.cls-104{fill:#9eecc5;}.cls-105{fill:#9debc4;}.cls-106{fill:#9cebc3;}.cls-107{fill:#9bebc3;}.cls-108{fill:#9aebc2;}.cls-109{fill:#99ebc2;}.cls-110{fill:#98eac1;}.cls-111{fill:#97eac0;}.cls-112{fill:#96eac0;}.cls-113{fill:#95eabf;}.cls-114{fill:#94eabf;}.cls-115{fill:#93e9be;}.cls-116{fill:#92e9bd;}.cls-117{fill:#91e9bd;}.cls-118{fill:#90e9bc;}.cls-119{fill:#8fe9bc;}.cls-120{fill:#8ee8bb;}.cls-121{fill:#8de8ba;}.cls-122{fill:#8ce8ba;}.cls-123{fill:#8be8b9;}.cls-124{fill:#8ae8b9;}.cls-125{fill:#89e7b8;}.cls-126{fill:#88e7b7;}.cls-127{fill:#87e7b7;}.cls-128{fill:#86e7b6;}.cls-129{fill:#85e7b6;}.cls-130{fill:#84e6b5;}.cls-131{fill:#83e6b4;}.cls-132{fill:#82e6b4;}.cls-133{fill:#81e6b3;}.cls-134{fill:#80e6b3;}.cls-135{fill:#7ee5b2;}.cls-136{fill:#7de5b1;}.cls-137{fill:#7ce5b1;}.cls-138{fill:#7be5b0;}.cls-139{fill:#7ae4af;}.cls-140{fill:#79e4af;}.cls-141{fill:#78e4ae;}.cls-142{fill:#77e4ae;}.cls-143{fill:#76e4ad;}.cls-144{fill:#75e3ac;}.cls-145{fill:#74e3ac;}.cls-146{fill:#73e3ab;}.cls-147{fill:#72e3ab;}.cls-148{fill:#71e3aa;}.cls-149{fill:#70e2a9;}.cls-150{fill:#6fe2a9;}.cls-151{fill:#6ee2a8;}.cls-152{fill:#6de2a8;}.cls-153{fill:#6ce2a7;}.cls-154{fill:#6be1a6;}.cls-155{fill:#6ae1a6;}.cls-156{fill:#69e1a5;}.cls-157{fill:#68e1a5;}.cls-158{fill:#67e1a4;}.cls-159{fill:#66e0a3;}.cls-160{fill:#65e0a3;}.cls-161{fill:#64e0a2;}.cls-162{fill:#63e0a2;}.cls-163{fill:#62e0a1;}.cls-164{fill:#61dfa0;}.cls-165{fill:#60dfa0;}.cls-166{fill:#5fdf9f;}.cls-167{fill:#5edf9f;}.cls-168{fill:#5ddf9e;}.cls-169{fill:#5cde9d;}.cls-170{fill:#5bde9d;}.cls-171{fill:#5ade9c;}.cls-172{fill:#59de9c;}.cls-173{fill:#58de9b;}.cls-174{fill:#57dd9a;}.cls-175{fill:#56dd9a;}.cls-176{fill:#5d9;}.cls-177{fill:#54dd99;}.cls-178{fill:#53dd98;}.cls-179{fill:#52dc97;}.cls-180{fill:#51dc97;}.cls-181{fill:#50dc96;}.cls-182{fill:#4fdc96;}.cls-183{fill:#4edc95;}.cls-184{fill:#4ddb94;}.cls-185{fill:#4cdb94;}.cls-186{fill:#4bdb93;}.cls-187{fill:#4adb93;}.cls-188{fill:#49db92;}.cls-189{fill:#48da91;}.cls-190{fill:#47da91;}.cls-191{fill:#46da90;}.cls-192{fill:#45da90;}.cls-193{fill:#44da8f;}.cls-194{fill:#43d98e;}.cls-195{fill:#42d98e;}.cls-196{fill:#41d98d;}.cls-197{fill:#40d98d;}.cls-198{fill:#3fd98c;}.cls-199{fill:#3ed88b;}.cls-200{fill:#3dd88b;}.cls-201{fill:#3cd88a;}.cls-202{fill:#3bd88a;}.cls-203{fill:#3ad889;}.cls-204{fill:#39d788;}.cls-205{fill:#38d788;}.cls-206{fill:#37d787;}.cls-207{fill:#36d787;}.cls-208{fill:#35d786;}.cls-209{fill:#34d685;}.cls-210{fill:#33d685;}.cls-211{fill:#32d684;}.cls-212{fill:#31d684;}.cls-213{fill:#30d683;}.cls-214{fill:#2fd582;}.cls-215{fill:#2ed582;}.cls-216{fill:#2dd581;}.cls-217{fill:#2cd581;}.cls-218{fill:#2bd580;}.cls-219{fill:#2ad47f;}.cls-220{fill:#29d47f;}.cls-221{fill:#28d47e;}.cls-222{fill:#27d47d;}.cls-223{fill:#26d47d;}.cls-224{fill:#25d37c;}.cls-225{fill:#24d37c;}.cls-226{fill:#23d37b;}.cls-227{fill:#22d37a;}.cls-228{fill:#21d37a;}.cls-229{fill:#20d279;}.cls-230{fill:#1fd279;}.cls-231{fill:#1ed278;}.cls-232{fill:#1dd277;}.cls-233{fill:#1cd277;}.cls-234{fill:#1bd176;}.cls-235{fill:#1ad176;}.cls-236{fill:#19d175;}.cls-237{fill:#18d174;}.cls-238{fill:#17d174;}.cls-239{fill:#16d073;}.cls-240{fill:#15d073;}.cls-241{fill:#14d072;}.cls-242{fill:#13d071;}.cls-243{fill:#12d071;}.cls-244{fill:#11cf70;}.cls-245{fill:#10cf70;}.cls-246{fill:#0fcf6f;}.cls-247{fill:#0ecf6e;}.cls-248{fill:#0dcf6e;}.cls-249{fill:#0cce6d;}.cls-250{fill:#0bce6d;}.cls-251{fill:#0ace6c;}.cls-252{fill:#09ce6b;}.cls-253{fill:#08ce6b;}.cls-254{fill:#07cd6a;}.cls-255{fill:#06cd6a;}.cls-256{fill:#05cd69;}.cls-257{fill:#04cd68;}.cls-258{fill:#03cd68;}.cls-259{fill:#02cc67;}.cls-260{fill:#01cc67;}.cls-261{fill:#0c6;}</style><clipPath id="clip-path" transform="translate(-29.33 -39.56)"><path class="cls-1" d="M118,101.76a25.76,25.76,0,0,0,.55-5.82c0-.49,0-1,0-1.48L118.37,93a14.36,14.36,0,0,0-.16-1.47l-.29-1.46a29.17,29.17,0,0,0-4.8-11A30.12,30.12,0,0,0,92.26,66.71a31.34,31.34,0,0,0-12.79,1,31.91,31.91,0,0,0-11.55,6.19A33,33,0,0,0,56.13,97.66H54.92A35.25,35.25,0,0,1,57.2,83.37a36.2,36.2,0,0,1,8-12.4,37,37,0,0,1,12.49-8.36,37.52,37.52,0,0,1,15.08-2.7,38.4,38.4,0,0,1,27.87,13.16,39.52,39.52,0,0,1,7.94,14.11l.59,2a20.07,20.07,0,0,1,.45,2l.39,2c.13.68.16,1.37.23,2a37.23,37.23,0,0,1,.05,8.31Z"/></clipPath></defs><path class="cls-2" d="M135.43,140.44a60.67,60.67,0,1,0-90.86,0Z" transform="translate(-29.33 -39.56)"/><path class="cls-3" d="M131.43,136a55.33,55.33,0,1,0-82.86,0Z" transform="translate(-29.33 -39.56)"/><circle class="cls-4" cx="60.67" cy="62.74" r="7.11"/><rect class="cls-2" x="124.07" y="59.3" width="5.92" height="6" transform="translate(-36.18 68.52) rotate(-45.01)"/><rect class="cls-5" x="110.07" y="56.77" width="5.92" height="6"/><rect class="cls-2" x="57.67" y="4.44" width="6" height="5.92"/><rect class="cls-5" x="131.4" y="77.13" width="10.12" height="6" transform="matrix(0.92, -0.38, 0.38, 0.92, -49.59, 18.62)"/><rect class="cls-5" x="133.44" y="113.57" width="6" height="10.08" transform="translate(-54.76 159.57) rotate(-67.45)"/><rect class="cls-2" x="103.37" y="50.47" width="11.34" height="6" transform="translate(-11.49 94.11) rotate(-67.45)"/><rect class="cls-2" x="5.34" y="56.77" width="5.92" height="6"/><rect class="cls-2" x="49.97" y="59.34" width="6" height="5.92" transform="translate(-57.87 16.14) rotate(-45)"/><rect class="cls-2" x="41.14" y="74.62" width="6" height="11.34" transform="translate(-76.27 50.7) rotate(-67.45)"/><rect class="cls-2" x="68.04" y="47.77" width="6" height="11.37" transform="translate(-44.36 -8.38) rotate(-22.45)"/><rect class="cls-2" x="38.44" y="115.29" width="11.37" height="6" transform="matrix(0.92, -0.38, 0.38, 0.92, -71.16, -13.75)"/><rect class="cls-6" x="111.38" y="89.18" width="6" height="35.41" transform="translate(-41.1 160.02) rotate(-79.37)"/><g class="cls-7"><polygon class="cls-3" points="41.84 20.2 25.35 46.59 25.35 20.2 41.84 20.2"/><polygon class="cls-3" points="42.17 20.2 25.35 47.14 25.35 46.59 41.84 20.2 42.17 20.2"/><polygon class="cls-8" points="42.51 20.2 25.35 47.68 25.35 47.14 42.17 20.2 42.51 20.2"/><polygon class="cls-9" points="42.85 20.2 25.35 48.22 25.35 47.68 42.51 20.2 42.85 20.2"/><polygon class="cls-10" points="43.19 20.2 25.35 48.77 25.35 48.22 42.85 20.2 43.19 20.2"/><polygon class="cls-11" points="43.53 20.2 25.35 49.31 25.35 48.77 43.19 20.2 43.53 20.2"/><polygon class="cls-12" points="43.87 20.2 25.35 49.85 25.35 49.31 43.53 20.2 43.87 20.2"/><polygon class="cls-13" points="44.21 20.2 25.35 50.39 25.35 49.85 43.87 20.2 44.21 20.2"/><polygon class="cls-14" points="44.55 20.2 25.35 50.94 25.35 50.39 44.21 20.2 44.55 20.2"/><polygon class="cls-15" points="44.89 20.2 25.35 51.48 25.35 50.94 44.55 20.2 44.89 20.2"/><polygon class="cls-16" points="45.23 20.2 25.35 52.02 25.35 51.48 44.89 20.2 45.23 20.2"/><polygon class="cls-17" points="45.57 20.2 25.35 52.56 25.35 52.02 45.23 20.2 45.57 20.2"/><polygon class="cls-18" points="45.91 20.2 25.35 53.11 25.35 52.56 45.57 20.2 45.91 20.2"/><polygon class="cls-19" points="46.24 20.2 25.35 53.65 25.35 53.11 45.91 20.2 46.24 20.2"/><polygon class="cls-20" points="46.58 20.2 25.35 54.19 25.35 53.65 46.24 20.2 46.58 20.2"/><polygon class="cls-21" points="46.92 20.2 25.35 54.73 25.35 54.19 46.58 20.2 46.92 20.2"/><polygon class="cls-22" points="47.26 20.2 25.35 55.28 25.35 54.73 46.92 20.2 47.26 20.2"/><polygon class="cls-23" points="47.6 20.2 25.35 55.82 25.35 55.28 47.26 20.2 47.6 20.2"/><polygon class="cls-24" points="47.94 20.2 25.35 56.36 25.35 55.82 47.6 20.2 47.94 20.2"/><polygon class="cls-25" points="48.28 20.2 25.35 56.9 25.35 56.36 47.94 20.2 48.28 20.2"/><polygon class="cls-26" points="48.62 20.2 25.35 57.45 25.35 56.9 48.28 20.2 48.62 20.2"/><polygon class="cls-27" points="48.96 20.2 25.35 57.99 25.35 57.45 48.62 20.2 48.96 20.2"/><polygon class="cls-28" points="49.3 20.2 25.35 58.53 25.35 57.99 48.96 20.2 49.3 20.2"/><polygon class="cls-29" points="49.63 20.2 25.35 59.07 25.35 58.53 49.3 20.2 49.63 20.2"/><polygon class="cls-30" points="49.97 20.2 25.35 59.62 25.35 59.07 49.63 20.2 49.97 20.2"/><polygon class="cls-31" points="50.31 20.2 25.35 60.16 25.35 59.62 49.97 20.2 50.31 20.2"/><polygon class="cls-32" points="50.65 20.2 25.52 60.41 25.35 60.3 25.35 60.16 50.31 20.2 50.65 20.2"/><polygon class="cls-33" points="50.99 20.2 25.77 60.57 25.52 60.41 50.65 20.2 50.99 20.2"/><polygon class="cls-34" points="51.33 20.2 26.01 60.72 25.77 60.57 50.99 20.2 51.33 20.2"/><polygon class="cls-35" points="51.67 20.2 26.26 60.87 26.01 60.72 51.33 20.2 51.67 20.2"/><polygon class="cls-36" points="52.01 20.2 26.5 61.02 26.26 60.87 51.67 20.2 52.01 20.2"/><polygon class="cls-37" points="52.35 20.2 26.74 61.18 26.5 61.02 52.01 20.2 52.35 20.2"/><polygon class="cls-38" points="52.69 20.2 26.99 61.33 26.74 61.18 52.35 20.2 52.69 20.2"/><polygon class="cls-39" points="53.02 20.2 27.23 61.48 26.99 61.33 52.69 20.2 53.02 20.2"/><polygon class="cls-40" points="53.36 20.2 27.48 61.63 27.23 61.48 53.02 20.2 53.36 20.2"/><polygon class="cls-41" points="53.7 20.2 27.72 61.78 27.48 61.63 53.36 20.2 53.7 20.2"/><polygon class="cls-42" points="54.04 20.2 27.96 61.94 27.72 61.78 53.7 20.2 54.04 20.2"/><polygon class="cls-43" points="54.38 20.2 28.21 62.09 27.96 61.94 54.04 20.2 54.38 20.2"/><polygon class="cls-44" points="54.72 20.2 28.45 62.24 28.21 62.09 54.38 20.2 54.72 20.2"/><polygon class="cls-45" points="55.06 20.2 28.7 62.4 28.45 62.24 54.72 20.2 55.06 20.2"/><polygon class="cls-46" points="55.4 20.2 28.94 62.55 28.7 62.4 55.06 20.2 55.4 20.2"/><polygon class="cls-47" points="55.74 20.2 29.18 62.7 28.94 62.55 55.4 20.2 55.74 20.2"/><polygon class="cls-48" points="56.08 20.2 29.43 62.85 29.18 62.7 55.74 20.2 56.08 20.2"/><polygon class="cls-49" points="56.41 20.2 29.67 63 29.43 62.85 56.08 20.2 56.41 20.2"/><polygon class="cls-50" points="56.75 20.2 29.91 63.16 29.67 63 56.41 20.2 56.75 20.2"/><polygon class="cls-51" points="57.09 20.2 30.16 63.31 29.91 63.16 56.75 20.2 57.09 20.2"/><polygon class="cls-52" points="57.43 20.2 30.4 63.46 30.16 63.31 57.09 20.2 57.43 20.2"/><polygon class="cls-53" points="57.77 20.2 30.65 63.61 30.4 63.46 57.43 20.2 57.77 20.2"/><polygon class="cls-54" points="58.11 20.2 30.89 63.77 30.65 63.61 57.77 20.2 58.11 20.2"/><polygon class="cls-55" points="58.45 20.2 31.13 63.92 30.89 63.77 58.11 20.2 58.45 20.2"/><polygon class="cls-56" points="58.79 20.2 31.43 63.98 31.24 63.98 31.13 63.92 58.45 20.2 58.79 20.2"/><polygon class="cls-57" points="59.13 20.2 31.77 63.98 31.43 63.98 58.79 20.2 59.13 20.2"/><polygon class="cls-58" points="59.47 20.2 32.11 63.98 31.77 63.98 59.13 20.2 59.47 20.2"/><polygon class="cls-59" points="59.8 20.2 32.45 63.98 32.11 63.98 59.47 20.2 59.8 20.2"/><polygon class="cls-60" points="60.14 20.2 32.79 63.98 32.45 63.98 59.8 20.2 60.14 20.2"/><polygon class="cls-61" points="60.48 20.2 33.13 63.98 32.79 63.98 60.14 20.2 60.48 20.2"/><polygon class="cls-62" points="60.82 20.2 33.47 63.98 33.13 63.98 60.48 20.2 60.82 20.2"/><polygon class="cls-63" points="61.16 20.2 33.8 63.98 33.47 63.98 60.82 20.2 61.16 20.2"/><polygon class="cls-64" points="61.5 20.2 34.14 63.98 33.8 63.98 61.16 20.2 61.5 20.2"/><polygon class="cls-65" points="61.84 20.2 34.48 63.98 34.14 63.98 61.5 20.2 61.84 20.2"/><polygon class="cls-66" points="62.18 20.2 34.82 63.98 34.48 63.98 61.84 20.2 62.18 20.2"/><polygon class="cls-67" points="62.52 20.2 35.16 63.98 34.82 63.98 62.18 20.2 62.52 20.2"/><polygon class="cls-68" points="62.86 20.2 35.5 63.98 35.16 63.98 62.52 20.2 62.86 20.2"/><polygon class="cls-69" points="63.2 20.2 35.84 63.98 35.5 63.98 62.86 20.2 63.2 20.2"/><polygon class="cls-70" points="63.53 20.2 36.18 63.98 35.84 63.98 63.2 20.2 63.53 20.2"/><polygon class="cls-71" points="63.87 20.2 36.52 63.98 36.18 63.98 63.53 20.2 63.87 20.2"/><polygon class="cls-72" points="64.21 20.2 36.86 63.98 36.52 63.98 63.87 20.2 64.21 20.2"/><polygon class="cls-73" points="64.55 20.2 37.2 63.98 36.86 63.98 64.21 20.2 64.55 20.2"/><polygon class="cls-74" points="64.89 20.2 37.53 63.98 37.2 63.98 64.55 20.2 64.89 20.2"/><polygon class="cls-75" points="65.23 20.2 37.87 63.98 37.53 63.98 64.89 20.2 65.23 20.2"/><polygon class="cls-76" points="65.57 20.2 38.21 63.98 37.87 63.98 65.23 20.2 65.57 20.2"/><polygon class="cls-77" points="65.91 20.2 38.55 63.98 38.21 63.98 65.57 20.2 65.91 20.2"/><polygon class="cls-78" points="66.25 20.2 38.89 63.98 38.55 63.98 65.91 20.2 66.25 20.2"/><polygon class="cls-79" points="66.59 20.2 39.23 63.98 38.89 63.98 66.25 20.2 66.59 20.2"/><polygon class="cls-80" points="66.92 20.2 39.57 63.98 39.23 63.98 66.59 20.2 66.92 20.2"/><polygon class="cls-81" points="67.26 20.2 39.91 63.98 39.57 63.98 66.92 20.2 67.26 20.2"/><polygon class="cls-82" points="67.6 20.2 40.25 63.98 39.91 63.98 67.26 20.2 67.6 20.2"/><polygon class="cls-83" points="67.94 20.2 40.59 63.98 40.25 63.98 67.6 20.2 67.94 20.2"/><polygon class="cls-84" points="68.28 20.2 40.92 63.98 40.59 63.98 67.94 20.2 68.28 20.2"/><polygon class="cls-85" points="68.62 20.2 41.26 63.98 40.92 63.98 68.28 20.2 68.62 20.2"/><polygon class="cls-86" points="68.96 20.2 41.6 63.98 41.26 63.98 68.62 20.2 68.96 20.2"/><polygon class="cls-87" points="69.3 20.2 41.94 63.98 41.6 63.98 68.96 20.2 69.3 20.2"/><polygon class="cls-88" points="69.64 20.2 42.28 63.98 41.94 63.98 69.3 20.2 69.64 20.2"/><polygon class="cls-89" points="69.98 20.2 42.62 63.98 42.28 63.98 69.64 20.2 69.98 20.2"/><polygon class="cls-90" points="70.31 20.2 42.96 63.98 42.62 63.98 69.98 20.2 70.31 20.2"/><polygon class="cls-91" points="70.65 20.2 43.3 63.98 42.96 63.98 70.31 20.2 70.65 20.2"/><polygon class="cls-92" points="70.99 20.2 43.64 63.98 43.3 63.98 70.65 20.2 70.99 20.2"/><polygon class="cls-93" points="71.33 20.2 43.98 63.98 43.64 63.98 70.99 20.2 71.33 20.2"/><polygon class="cls-94" points="71.67 20.2 44.31 63.98 43.98 63.98 71.33 20.2 71.67 20.2"/><polygon class="cls-95" points="72.01 20.2 44.65 63.98 44.31 63.98 71.67 20.2 72.01 20.2"/><polygon class="cls-96" points="72.35 20.2 44.99 63.98 44.65 63.98 72.01 20.2 72.35 20.2"/><polygon class="cls-97" points="72.69 20.2 45.33 63.98 44.99 63.98 72.35 20.2 72.69 20.2"/><polygon class="cls-98" points="73.03 20.2 45.67 63.98 45.33 63.98 72.69 20.2 73.03 20.2"/><polygon class="cls-99" points="73.37 20.2 46.01 63.98 45.67 63.98 73.03 20.2 73.37 20.2"/><polygon class="cls-100" points="73.7 20.2 46.35 63.98 46.01 63.98 73.37 20.2 73.7 20.2"/><polygon class="cls-101" points="74.04 20.2 46.69 63.98 46.35 63.98 73.7 20.2 74.04 20.2"/><polygon class="cls-102" points="74.38 20.2 47.03 63.98 46.69 63.98 74.04 20.2 74.38 20.2"/><polygon class="cls-103" points="74.72 20.2 47.37 63.98 47.03 63.98 74.38 20.2 74.72 20.2"/><polygon class="cls-104" points="75.06 20.2 47.71 63.98 47.37 63.98 74.72 20.2 75.06 20.2"/><polygon class="cls-105" points="75.4 20.2 48.05 63.98 47.71 63.98 75.06 20.2 75.4 20.2"/><polygon class="cls-106" points="75.74 20.2 48.38 63.98 48.05 63.98 75.4 20.2 75.74 20.2"/><polygon class="cls-107" points="76.08 20.2 48.72 63.98 48.38 63.98 75.74 20.2 76.08 20.2"/><polygon class="cls-108" points="76.42 20.2 49.06 63.98 48.72 63.98 76.08 20.2 76.42 20.2"/><polygon class="cls-109" points="76.76 20.2 49.4 63.98 49.06 63.98 76.42 20.2 76.76 20.2"/><polygon class="cls-110" points="77.1 20.2 49.74 63.98 49.4 63.98 76.76 20.2 77.1 20.2"/><polygon class="cls-111" points="77.44 20.2 50.08 63.98 49.74 63.98 77.1 20.2 77.44 20.2"/><polygon class="cls-112" points="77.77 20.2 50.42 63.98 50.08 63.98 77.44 20.2 77.77 20.2"/><polygon class="cls-113" points="78.11 20.2 50.76 63.98 50.42 63.98 77.77 20.2 78.11 20.2"/><polygon class="cls-114" points="78.45 20.2 51.1 63.98 50.76 63.98 78.11 20.2 78.45 20.2"/><polygon class="cls-115" points="78.79 20.2 51.44 63.98 51.1 63.98 78.45 20.2 78.79 20.2"/><polygon class="cls-116" points="79.13 20.2 51.77 63.98 51.44 63.98 78.79 20.2 79.13 20.2"/><polygon class="cls-117" points="79.47 20.2 52.11 63.98 51.77 63.98 79.13 20.2 79.47 20.2"/><polygon class="cls-118" points="79.8 20.2 79.81 20.21 52.45 63.98 52.11 63.98 79.47 20.2 79.8 20.2"/><polygon class="cls-119" points="79.81 20.21 80.05 20.36 52.79 63.98 52.45 63.98 79.81 20.21"/><polygon class="cls-120" points="80.05 20.36 80.29 20.51 53.13 63.98 52.79 63.98 80.05 20.36"/><polygon class="cls-121" points="80.29 20.51 80.54 20.66 53.47 63.98 53.13 63.98 80.29 20.51"/><polygon class="cls-122" points="80.54 20.66 80.78 20.82 53.81 63.98 53.47 63.98 80.54 20.66"/><polygon class="cls-123" points="80.78 20.82 81.03 20.97 54.15 63.98 53.81 63.98 80.78 20.82"/><polygon class="cls-124" points="81.03 20.97 81.27 21.12 54.49 63.98 54.15 63.98 81.03 20.97"/><polygon class="cls-125" points="81.27 21.12 81.51 21.27 54.83 63.98 54.49 63.98 81.27 21.12"/><polygon class="cls-126" points="81.51 21.27 81.76 21.43 55.16 63.98 54.83 63.98 81.51 21.27"/><polygon class="cls-127" points="81.76 21.43 82 21.58 55.5 63.98 55.16 63.98 81.76 21.43"/><polygon class="cls-128" points="82 21.58 82.25 21.73 55.84 63.98 55.5 63.98 82 21.58"/><polygon class="cls-129" points="82.25 21.73 82.49 21.88 56.18 63.98 55.84 63.98 82.25 21.73"/><polygon class="cls-130" points="82.49 21.88 82.73 22.04 56.52 63.98 56.18 63.98 82.49 21.88"/><polygon class="cls-131" points="82.73 22.04 82.98 22.19 56.86 63.98 56.52 63.98 82.73 22.04"/><polygon class="cls-132" points="82.98 22.19 83.22 22.34 57.2 63.98 56.86 63.98 82.98 22.19"/><polygon class="cls-133" points="83.22 22.34 83.46 22.49 57.54 63.98 57.2 63.98 83.22 22.34"/><polygon class="cls-134" points="83.46 22.49 83.71 22.64 57.88 63.98 57.54 63.98 83.46 22.49"/><polygon class="cls-135" points="83.71 22.64 83.95 22.8 58.22 63.98 57.88 63.98 83.71 22.64"/><polygon class="cls-136" points="83.95 22.8 84.19 22.95 58.55 63.98 58.22 63.98 83.95 22.8"/><polygon class="cls-137" points="84.19 22.95 84.44 23.1 58.89 63.98 58.55 63.98 84.19 22.95"/><polygon class="cls-138" points="84.44 23.1 84.68 23.25 59.23 63.98 58.89 63.98 84.44 23.1"/><polygon class="cls-139" points="84.68 23.25 84.93 23.41 59.57 63.98 59.23 63.98 84.68 23.25"/><polygon class="cls-140" points="84.93 23.41 85.17 23.56 59.91 63.98 59.57 63.98 84.93 23.41"/><polygon class="cls-141" points="85.17 23.56 85.41 23.71 60.25 63.98 59.91 63.98 85.17 23.56"/><polygon class="cls-142" points="85.41 23.71 85.66 23.86 60.59 63.98 60.25 63.98 85.41 23.71"/><polygon class="cls-143" points="85.66 23.86 85.9 24.02 60.93 63.98 60.59 63.98 85.66 23.86"/><polygon class="cls-144" points="85.9 24.02 86.15 24.17 61.27 63.98 60.93 63.98 85.9 24.02"/><polygon class="cls-145" points="86.15 24.17 86.39 24.32 61.61 63.98 61.27 63.98 86.15 24.17"/><polygon class="cls-146" points="86.39 24.32 86.63 24.47 61.95 63.98 61.61 63.98 86.39 24.32"/><polygon class="cls-147" points="86.63 24.47 86.88 24.63 62.28 63.98 61.95 63.98 86.63 24.47"/><polygon class="cls-148" points="86.88 24.63 87.12 24.78 62.62 63.98 62.28 63.98 86.88 24.63"/><polygon class="cls-149" points="87.12 24.78 87.36 24.93 62.96 63.98 62.62 63.98 87.12 24.78"/><polygon class="cls-150" points="87.36 24.93 87.61 25.08 63.3 63.98 62.96 63.98 87.36 24.93"/><polygon class="cls-151" points="87.61 25.08 87.85 25.23 63.64 63.98 63.3 63.98 87.61 25.08"/><polygon class="cls-152" points="87.85 25.23 88.1 25.39 63.98 63.98 63.64 63.98 87.85 25.23"/><polygon class="cls-153" points="88.1 25.39 88.34 25.54 64.32 63.98 63.98 63.98 88.1 25.39"/><polygon class="cls-154" points="88.34 25.54 88.58 25.69 64.66 63.98 64.32 63.98 88.34 25.54"/><polygon class="cls-155" points="88.58 25.69 88.83 25.84 65 63.98 64.66 63.98 88.58 25.69"/><polygon class="cls-156" points="88.83 25.84 89.07 26 65.33 63.98 65 63.98 88.83 25.84"/><polygon class="cls-157" points="89.07 26 89.32 26.15 65.67 63.98 65.33 63.98 89.07 26"/><polygon class="cls-158" points="89.32 26.15 89.56 26.3 66.01 63.98 65.67 63.98 89.32 26.15"/><polygon class="cls-159" points="89.56 26.3 89.8 26.45 66.35 63.98 66.01 63.98 89.56 26.3"/><polygon class="cls-160" points="89.8 26.45 90.05 26.61 66.69 63.98 66.35 63.98 89.8 26.45"/><polygon class="cls-161" points="90.05 26.61 90.29 26.76 67.03 63.98 66.69 63.98 90.05 26.61"/><polygon class="cls-162" points="90.29 26.76 90.53 26.91 67.37 63.98 67.03 63.98 90.29 26.76"/><polygon class="cls-163" points="90.53 26.91 90.78 27.06 67.71 63.98 67.37 63.98 90.53 26.91"/><polygon class="cls-164" points="90.78 27.06 91.02 27.21 68.05 63.98 67.71 63.98 90.78 27.06"/><polygon class="cls-165" points="91.02 27.21 91.27 27.37 68.39 63.98 68.05 63.98 91.02 27.21"/><polygon class="cls-166" points="91.27 27.37 91.51 27.52 68.72 63.98 68.39 63.98 91.27 27.37"/><polygon class="cls-167" points="91.51 27.52 91.75 27.67 69.06 63.98 68.72 63.98 91.51 27.52"/><polygon class="cls-168" points="91.75 27.67 92 27.82 69.4 63.98 69.06 63.98 91.75 27.67"/><polygon class="cls-169" points="92 27.82 92.24 27.98 69.74 63.98 69.4 63.98 92 27.82"/><polygon class="cls-170" points="92.24 27.98 92.48 28.13 70.08 63.98 69.74 63.98 92.24 27.98"/><polygon class="cls-171" points="92.48 28.13 92.73 28.28 70.42 63.98 70.08 63.98 92.48 28.13"/><polygon class="cls-172" points="92.73 28.28 92.97 28.43 70.76 63.98 70.42 63.98 92.73 28.28"/><polygon class="cls-173" points="92.97 28.43 93.22 28.59 71.1 63.98 70.76 63.98 92.97 28.43"/><polygon class="cls-174" points="93.22 28.59 93.46 28.74 71.44 63.98 71.1 63.98 93.22 28.59"/><polygon class="cls-175" points="93.46 28.74 93.7 28.89 71.78 63.98 71.44 63.98 93.46 28.74"/><polygon class="cls-176" points="93.7 28.89 93.95 29.04 72.12 63.98 71.78 63.98 93.7 28.89"/><polygon class="cls-177" points="93.95 29.04 94.19 29.2 72.45 63.98 72.12 63.98 93.95 29.04"/><polygon class="cls-178" points="94.19 29.2 94.44 29.35 72.79 63.98 72.45 63.98 94.19 29.2"/><polygon class="cls-179" points="94.44 29.35 94.68 29.5 73.13 63.98 72.79 63.98 94.44 29.35"/><polygon class="cls-180" points="94.68 29.5 94.92 29.65 73.47 63.98 73.13 63.98 94.68 29.5"/><polygon class="cls-181" points="94.92 29.65 95.17 29.8 73.81 63.98 73.47 63.98 94.92 29.65"/><polygon class="cls-182" points="95.17 29.8 95.41 29.96 74.15 63.98 73.81 63.98 95.17 29.8"/><polygon class="cls-183" points="95.41 29.96 95.66 30.11 74.49 63.98 74.15 63.98 95.41 29.96"/><polygon class="cls-184" points="95.66 30.11 95.9 30.26 74.83 63.98 74.49 63.98 95.66 30.11"/><polygon class="cls-185" points="95.9 30.26 96.14 30.41 75.17 63.98 74.83 63.98 95.9 30.26"/><polygon class="cls-186" points="96.14 30.41 96.39 30.57 75.51 63.98 75.17 63.98 96.14 30.41"/><polygon class="cls-187" points="96.39 30.57 96.63 30.72 75.84 63.98 75.51 63.98 96.39 30.57"/><polygon class="cls-188" points="96.63 30.72 96.87 30.87 76.18 63.98 75.84 63.98 96.63 30.72"/><polygon class="cls-189" points="96.87 30.87 97.12 31.02 76.52 63.98 76.18 63.98 96.87 30.87"/><polygon class="cls-190" points="97.12 31.02 97.36 31.18 76.86 63.98 76.52 63.98 97.12 31.02"/><polygon class="cls-191" points="97.36 31.18 97.61 31.33 77.2 63.98 76.86 63.98 97.36 31.18"/><polygon class="cls-192" points="97.61 31.33 97.85 31.48 77.54 63.98 77.2 63.98 97.61 31.33"/><polygon class="cls-193" points="97.85 31.48 98.09 31.63 77.88 63.98 77.54 63.98 97.85 31.48"/><polygon class="cls-194" points="98.09 31.63 98.34 31.79 78.22 63.98 77.88 63.98 98.09 31.63"/><polygon class="cls-195" points="98.34 31.79 98.58 31.94 78.56 63.98 78.22 63.98 98.34 31.79"/><polygon class="cls-196" points="98.58 31.94 98.83 32.09 78.9 63.98 78.56 63.98 98.58 31.94"/><polygon class="cls-197" points="98.83 32.09 99.07 32.24 79.23 63.98 78.9 63.98 98.83 32.09"/><polygon class="cls-198" points="99.07 32.24 99.31 32.4 79.57 63.98 79.23 63.98 99.07 32.24"/><polygon class="cls-199" points="99.31 32.4 99.56 32.55 79.91 63.98 79.57 63.98 99.31 32.4"/><polygon class="cls-200" points="99.56 32.55 99.8 32.7 80.25 63.98 79.91 63.98 99.56 32.55"/><polygon class="cls-201" points="99.8 32.7 100.04 32.85 80.59 63.98 80.25 63.98 99.8 32.7"/><polygon class="cls-202" points="100.04 32.85 100.29 33.01 80.93 63.98 80.59 63.98 100.04 32.85"/><polygon class="cls-203" points="100.29 33.01 100.53 33.16 81.27 63.98 80.93 63.98 100.29 33.01"/><polygon class="cls-204" points="100.53 33.16 100.78 33.31 81.61 63.98 81.27 63.98 100.53 33.16"/><polygon class="cls-205" points="100.78 33.31 101.02 33.46 81.95 63.98 81.61 63.98 100.78 33.31"/><polygon class="cls-206" points="101.02 33.46 101.23 33.59 101.23 33.67 82.29 63.98 81.95 63.98 101.02 33.46"/><polygon class="cls-207" points="101.23 34.21 82.63 63.98 82.29 63.98 101.23 33.67 101.23 34.21"/><polygon class="cls-208" points="101.23 34.76 82.97 63.98 82.63 63.98 101.23 34.21 101.23 34.76"/><polygon class="cls-209" points="101.23 35.3 83.3 63.98 82.97 63.98 101.23 34.76 101.23 35.3"/><polygon class="cls-210" points="101.23 35.84 83.64 63.98 83.3 63.98 101.23 35.3 101.23 35.84"/><polygon class="cls-211" points="101.23 36.38 83.98 63.98 83.64 63.98 101.23 35.84 101.23 36.38"/><polygon class="cls-212" points="101.23 36.93 84.32 63.98 83.98 63.98 101.23 36.38 101.23 36.93"/><polygon class="cls-213" points="101.23 37.47 84.66 63.98 84.32 63.98 101.23 36.93 101.23 37.47"/><polygon class="cls-214" points="101.23 38.01 85 63.98 84.66 63.98 101.23 37.47 101.23 38.01"/><polygon class="cls-215" points="101.23 38.55 85.34 63.98 85 63.98 101.23 38.01 101.23 38.55"/><polygon class="cls-216" points="101.23 39.1 85.68 63.98 85.34 63.98 101.23 38.55 101.23 39.1"/><polygon class="cls-217" points="101.23 39.64 86.02 63.98 85.68 63.98 101.23 39.1 101.23 39.64"/><polygon class="cls-218" points="101.23 40.18 86.36 63.98 86.02 63.98 101.23 39.64 101.23 40.18"/><polygon class="cls-219" points="101.23 40.73 86.69 63.98 86.36 63.98 101.23 40.18 101.23 40.73"/><polygon class="cls-220" points="101.23 41.27 87.03 63.98 86.69 63.98 101.23 40.73 101.23 41.27"/><polygon class="cls-221" points="101.23 41.81 87.37 63.98 87.03 63.98 101.23 41.27 101.23 41.81"/><polygon class="cls-222" points="101.23 42.35 87.71 63.98 87.37 63.98 101.23 41.81 101.23 42.35"/><polygon class="cls-223" points="101.23 42.9 88.05 63.98 87.71 63.98 101.23 42.35 101.23 42.9"/><polygon class="cls-224" points="101.23 43.44 88.39 63.98 88.05 63.98 101.23 42.9 101.23 43.44"/><polygon class="cls-225" points="101.23 43.98 88.73 63.98 88.39 63.98 101.23 43.44 101.23 43.98"/><polygon class="cls-226" points="101.23 44.52 89.07 63.98 88.73 63.98 101.23 43.98 101.23 44.52"/><polygon class="cls-227" points="101.23 45.06 89.41 63.98 89.07 63.98 101.23 44.52 101.23 45.06"/><polygon class="cls-228" points="101.23 45.61 89.75 63.98 89.41 63.98 101.23 45.06 101.23 45.61"/><polygon class="cls-229" points="101.23 46.15 90.08 63.98 89.75 63.98 101.23 45.61 101.23 46.15"/><polygon class="cls-230" points="101.23 46.69 90.42 63.98 90.08 63.98 101.23 46.15 101.23 46.69"/><polygon class="cls-231" points="101.23 47.24 90.76 63.98 90.42 63.98 101.23 46.69 101.23 47.24"/><polygon class="cls-232" points="101.23 47.78 91.1 63.98 90.76 63.98 101.23 47.24 101.23 47.78"/><polygon class="cls-233" points="101.23 48.32 91.44 63.98 91.1 63.98 101.23 47.78 101.23 48.32"/><polygon class="cls-234" points="101.23 48.86 91.78 63.98 91.44 63.98 101.23 48.32 101.23 48.86"/><polygon class="cls-235" points="101.23 49.41 92.12 63.98 91.78 63.98 101.23 48.86 101.23 49.41"/><polygon class="cls-236" points="101.23 49.95 92.46 63.98 92.12 63.98 101.23 49.41 101.23 49.95"/><polygon class="cls-237" points="101.23 50.49 92.8 63.98 92.46 63.98 101.23 49.95 101.23 50.49"/><polygon class="cls-238" points="101.23 51.03 93.14 63.98 92.8 63.98 101.23 50.49 101.23 51.03"/><polygon class="cls-239" points="101.23 51.58 93.47 63.98 93.14 63.98 101.23 51.03 101.23 51.58"/><polygon class="cls-240" points="101.23 52.12 93.81 63.98 93.47 63.98 101.23 51.58 101.23 52.12"/><polygon class="cls-241" points="101.23 52.66 94.15 63.98 93.81 63.98 101.23 52.12 101.23 52.66"/><polygon class="cls-242" points="101.23 53.2 94.49 63.98 94.15 63.98 101.23 52.66 101.23 53.2"/><polygon class="cls-243" points="101.23 53.75 94.83 63.98 94.49 63.98 101.23 53.2 101.23 53.75"/><polygon class="cls-244" points="101.23 54.29 95.17 63.98 94.83 63.98 101.23 53.75 101.23 54.29"/><polygon class="cls-245" points="101.23 54.83 95.51 63.98 95.17 63.98 101.23 54.29 101.23 54.83"/><polygon class="cls-246" points="101.23 55.37 95.85 63.98 95.51 63.98 101.23 54.83 101.23 55.37"/><polygon class="cls-247" points="101.23 55.92 96.19 63.98 95.85 63.98 101.23 55.37 101.23 55.92"/><polygon class="cls-248" points="101.23 56.46 96.53 63.98 96.19 63.98 101.23 55.92 101.23 56.46"/><polygon class="cls-249" points="101.23 57 96.86 63.98 96.53 63.98 101.23 56.46 101.23 57"/><polygon class="cls-250" points="101.23 57.54 97.2 63.98 96.86 63.98 101.23 57 101.23 57.54"/><polygon class="cls-251" points="101.23 58.09 97.54 63.98 97.2 63.98 101.23 57.54 101.23 58.09"/><polygon class="cls-252" points="101.23 58.63 97.88 63.98 97.54 63.98 101.23 58.09 101.23 58.63"/><polygon class="cls-253" points="101.23 59.17 98.22 63.98 97.88 63.98 101.23 58.63 101.23 59.17"/><polygon class="cls-254" points="101.23 59.72 98.56 63.98 98.22 63.98 101.23 59.17 101.23 59.72"/><polygon class="cls-255" points="101.23 60.26 98.9 63.98 98.56 63.98 101.23 59.72 101.23 60.26"/><polygon class="cls-256" points="101.23 60.8 99.24 63.98 98.9 63.98 101.23 60.26 101.23 60.8"/><polygon class="cls-257" points="101.23 61.34 99.58 63.98 99.24 63.98 101.23 60.8 101.23 61.34"/><polygon class="cls-258" points="101.23 61.88 99.92 63.98 99.58 63.98 101.23 61.34 101.23 61.88"/><polygon class="cls-259" points="101.23 62.43 100.25 63.98 99.92 63.98 101.23 61.88 101.23 62.43"/><polygon class="cls-260" points="101.23 62.97 100.59 63.98 100.25 63.98 101.23 62.43 101.23 62.97"/><polygon class="cls-261" points="101.23 63.51 100.93 63.98 100.59 63.98 101.23 62.97 101.23 63.51"/><polygon class="cls-261" points="100.93 63.98 101.23 63.51 101.23 63.98 100.93 63.98"/></g></svg>