<svg id="Layer_1" data-name="Layer 1" xmlns="http://www.w3.org/2000/svg" viewBox="0 0 146.14 103.25"><defs><style>.cls-1{fill:#fff;}.cls-2{fill:#e6e6e6;}.cls-3{fill:#b3b3b3;}.cls-4{fill:#0c6;}</style></defs><polygon class="cls-1" points="141.6 86.55 35.21 86.55 35.21 71.63 32.18 48.84 23.62 46.49 23.62 3.21 141.6 3.21 141.6 86.55"/><path class="cls-2" d="M36,84.09V49.21A10.84,10.84,0,0,1,46.84,38.38H152.23a10.85,10.85,0,0,1,10.84,10.83V117.3a10.85,10.85,0,0,1-10.84,10.84H58.9v-5h93.33a5.83,5.83,0,0,0,5.83-5.83V49.21a5.83,5.83,0,0,0-5.83-5.82H46.84A5.83,5.83,0,0,0,41,49.21V84.09Z" transform="translate(-16.93 -38.38)"/><path class="cls-2" d="M38.51,53.85V48.21a7.33,7.33,0,0,1,7.33-7.33h107.4a7.33,7.33,0,0,1,7.32,7.33v5.64" transform="translate(-16.93 -38.38)"/><polygon class="cls-3" points="81.63 74.51 71.25 60.73 81.63 46.95 85.63 49.97 77.52 60.73 85.63 71.49 81.63 74.51"/><polygon class="cls-3" points="118.37 74.51 114.37 71.49 122.47 60.73 114.37 49.97 118.37 46.95 128.75 60.73 118.37 74.51"/><rect class="cls-3" x="104.1" y="96.6" width="25.65" height="5.01" transform="translate(-28.87 143.72) rotate(-73.06)"/><circle class="cls-3" cx="135.17" cy="8.56" r="2.53"/><circle class="cls-3" cx="124.98" cy="8.56" r="2.53"/><circle class="cls-3" cx="114.78" cy="8.56" r="2.53"/><path class="cls-4" d="M57.63,110.6H54.56V93.8A11.21,11.21,0,0,0,43.35,82.59H34.94A11.21,11.21,0,0,0,23.72,93.8v5.14h6.62V92.63a3.43,3.43,0,0,1,3.42-3.43H44.52A3.43,3.43,0,0,1,48,92.63v18H19.4a2.47,2.47,0,0,0-2.47,2.47v26.09a2.46,2.46,0,0,0,2.47,2.46H57.63a2.46,2.46,0,0,0,2.46-2.46V113.07A2.47,2.47,0,0,0,57.63,110.6ZM40.81,128.7v4.66h-4.6V128.7a5.19,5.19,0,1,1,4.6,0Z" transform="translate(-16.93 -38.38)"/></svg>