<svg id="Layer_1" data-name="Layer 1" xmlns="http://www.w3.org/2000/svg" viewBox="0 0 80.64 80.68"><defs><style>.cls-1{fill:#fff;}</style></defs><path class="cls-1" d="M55.81,33.07q0-5.16,0-10.32a8.46,8.46,0,1,1,16.92-.1q.06,10.52,0,21a8.47,8.47,0,1,1-16.94,0c0-1.78,0-3.57,0-5.36Z" transform="translate(-13.68 -13.66)"/><path class="cls-1" d="M74.78,56.3c3.44,0,6.88,0,10.32,0a8.43,8.43,0,1,1,0,16.86q-10.51,0-21,0a8.44,8.44,0,1,1,0-16.88c3.58,0,7.15,0,10.72,0Z" transform="translate(-13.68 -13.66)"/><path class="cls-1" d="M33.7,34.87H44.41a8.46,8.46,0,0,1,8.43,8.64,8.54,8.54,0,0,1-9.21,8.26c-2.6-.18-5.22-.09-7.83-.1-4.27,0-8.54,0-12.81,0a8.37,8.37,0,0,1,0-16.74H33.7Z" transform="translate(-13.68 -13.66)"/><path class="cls-1" d="M51.55,74c0,3.57,0,7.15,0,10.72a8.37,8.37,0,0,1-16.74,0V65.68a25.22,25.22,0,0,1,.07-3.89,8.38,8.38,0,0,1,8.78-6.95,8.48,8.48,0,0,1,8,8.33c0,3.61,0,7.23,0,10.84Z" transform="translate(-13.68 -13.66)"/><path class="cls-1" d="M51.55,30.46c-3.39,0-6.58.19-9.73-.05-4.16-.31-7.28-4.19-7.21-8.53a8.46,8.46,0,0,1,16.74-1.49,10.54,10.54,0,0,1,.19,1.94C51.57,25.06,51.55,27.8,51.55,30.46Z" transform="translate(-13.68 -13.66)"/><path class="cls-1" d="M76.94,51.68c.23-3.53.18-7,.73-10.27.72-4.42,5-7.16,9.54-6.53A8.45,8.45,0,0,1,86,51.67C83,51.7,80.07,51.68,76.94,51.68Z" transform="translate(-13.68 -13.66)"/><path class="cls-1" d="M56.1,77.53c3.4,0,6.58-.18,9.74,0,4.08.31,7.26,4.18,7.22,8.41a8.46,8.46,0,0,1-16.72,1.77A9.34,9.34,0,0,1,56.11,86C56.09,83.17,56.1,80.4,56.1,77.53Z" transform="translate(-13.68 -13.66)"/><path class="cls-1" d="M30.34,56.14c0,3.53.36,7-.09,10.28-.57,4.17-4.86,7.06-8.9,6.57a8.44,8.44,0,0,1,.2-16.82C24.45,56,27.37,56.14,30.34,56.14Z" transform="translate(-13.68 -13.66)"/></svg>